solid мой эдит
facet normal -4.9735894163240097e-14 -5.710564695254238e-23 1.0
  outer loop
    vertex 185.81154014633938 130.8537391374349 2.0500009536751493
    vertex 185.61714397015572 139.62284640943153 2.050000953675428
    vertex 184.68561161934957 131.57250623655446 2.0500009536754384
  endloop
endfacet
facet normal -4.9735894163240097e-14 -5.710564695254238e-23 1.0
  outer loop
    vertex 185.61714397015572 139.62284640943153 2.050000953675428
    vertex 185.81154014633938 130.8537391374349 2.0500009536751493
    vertex 185.7875148387104 138.3287511839189 2.050000953675429
  endloop
endfacet
facet normal -4.9735894163240097e-14 -5.710564695254238e-23 1.0
  outer loop
    vertex 185.7875148387104 138.3287511839189 2.050000953675429
    vertex 185.81154014633938 130.8537391374349 2.0500009536751493
    vertex 186.28701695123354 137.12284640943153 2.0500009536754393
  endloop
endfacet
facet normal -4.9735894163240097e-14 -5.710564695254238e-23 1.0
  outer loop
    vertex 186.28701695123354 137.12284640943153 2.0500009536754393
    vertex 185.81154014633938 130.8537391374349 2.0500009536751493
    vertex 187.02322630790067 130.29145738648987 2.050000953675477
  endloop
endfacet
facet normal -4.9735894163240097e-14 -5.710564695254238e-23 1.0
  outer loop
    vertex 186.28701695123354 137.12284640943153 2.0500009536754393
    vertex 187.02322630790067 130.29145738648987 2.050000953675477
    vertex 187.081610064223 136.0873125034988 2.0500009536754558
  endloop
endfacet
facet normal -4.9735894163240097e-14 -5.710564695254238e-23 1.0
  outer loop
    vertex 187.081610064223 136.0873125034988 2.0500009536754558
    vertex 187.02322630790067 130.29145738648987 2.050000953675477
    vertex 188.29904516360253 129.8956946582879 2.0500009536753683
  endloop
endfacet
facet normal -4.9735894163240097e-14 -5.710564695254238e-23 1.0
  outer loop
    vertex 187.081610064223 136.0873125034988 2.0500009536754558
    vertex 188.29904516360253 129.8956946582879 2.0500009536753683
    vertex 188.11714397015572 135.29271939050932 2.0500009536754784
  endloop
endfacet
facet normal -4.9735894163240097e-14 -5.710564695254238e-23 1.0
  outer loop
    vertex 188.11714397015572 135.29271939050932 2.0500009536754784
    vertex 188.29904516360253 129.8956946582879 2.0500009536753683
    vertex 189.32304874464313 134.7932172779862 2.0500009536755055
  endloop
endfacet
facet normal -4.9735894163240097e-14 -5.710564695254238e-23 1.0
  outer loop
    vertex 189.32304874464313 134.7932172779862 2.0500009536755055
    vertex 188.29904516360253 129.8956946582879 2.0500009536753683
    vertex 189.6162310965672 129.67351344611754 2.050000953675513
  endloop
endfacet
facet normal -4.9735894163240097e-14 -5.710564695254238e-23 1.0
  outer loop
    vertex 189.32304874464313 134.7932172779862 2.0500009536755055
    vertex 189.6162310965672 129.67351344611754 2.050000953675513
    vertex 190.61714397015572 134.62284640943153 2.0500009536755353
  endloop
endfacet
facet normal -4.9735894163240097e-14 -5.710564695254238e-23 1.0
  outer loop
    vertex 190.61714397015572 134.62284640943153 2.0500009536755353
    vertex 189.6162310965672 129.67351344611754 2.050000953675513
    vertex 190.95127804014257 129.62887787426666 2.0500009536755286
  endloop
endfacet
facet normal -4.9735894163240097e-14 -5.710564695254238e-23 1.0
  outer loop
    vertex 190.61714397015572 134.62284640943153 2.0500009536755353
    vertex 190.95127804014257 129.62887787426666 2.0500009536755286
    vertex 191.91123919566832 134.7932172779862 2.0500009536755655
  endloop
endfacet
facet normal -4.9735894163240097e-14 -5.710564695254238e-23 1.0
  outer loop
    vertex 191.91123919566832 134.7932172779862 2.0500009536755655
    vertex 190.95127804014257 129.62887787426666 2.0500009536755286
    vertex 192.28036183322618 129.76258449929182 2.050000953675621
  endloop
endfacet
facet normal -4.9735894163240097e-14 -5.710564695254238e-23 1.0
  outer loop
    vertex 191.91123919566832 134.7932172779862 2.0500009536755655
    vertex 192.28036183322618 129.76258449929182 2.050000953675621
    vertex 193.11714397015572 135.29271939050932 2.050000953675594
  endloop
endfacet
facet normal -4.9735894163240097e-14 -5.710564695254238e-23 1.0
  outer loop
    vertex 193.11714397015572 135.29271939050932 2.050000953675594
    vertex 192.28036183322618 129.76258449929182 2.050000953675621
    vertex 193.57976628449188 130.07224926194414 2.050000953675689
  endloop
endfacet
facet normal -4.9735894163240097e-14 -5.710564695254238e-23 1.0
  outer loop
    vertex 193.11714397015572 135.29271939050932 2.050000953675594
    vertex 193.57976628449188 130.07224926194414 2.050000953675689
    vertex 194.15267787608846 136.0873125034988 2.050000953675619
  endloop
endfacet
facet normal -4.9735894163240097e-14 -5.710564695254238e-23 1.0
  outer loop
    vertex 194.15267787608846 136.0873125034988 2.050000953675619
    vertex 193.57976628449188 130.07224926194414 2.050000953675689
    vertex 194.826302122734 130.55234294917352 2.0500009536757564
  endloop
endfacet
facet normal -4.9735894163240097e-14 -5.710564695254238e-23 1.0
  outer loop
    vertex 194.15267787608846 136.0873125034988 2.050000953675619
    vertex 194.826302122734 130.55234294917352 2.0500009536757564
    vertex 194.9472709890779 137.12284640943153 2.0500009536756396
  endloop
endfacet
facet normal -4.9735894163240097e-14 -5.710564695254238e-23 1.0
  outer loop
    vertex 194.9472709890779 137.12284640943153 2.0500009536756396
    vertex 194.826302122734 130.55234294917352 2.0500009536757564
    vertex 195.99772546159576 131.1943015889128 2.0500009536757995
  endloop
endfacet
facet normal -4.9735894163240097e-14 -5.710564695254238e-23 1.0
  outer loop
    vertex 194.9472709890779 137.12284640943153 2.0500009536756396
    vertex 195.99772546159576 131.1943015889128 2.0500009536757995
    vertex 195.44677310160105 138.3287511839189 2.050000953675653
  endloop
endfacet
facet normal -4.9735894163240097e-14 -5.710564695254238e-23 1.0
  outer loop
    vertex 195.44677310160105 138.3287511839189 2.050000953675653
    vertex 195.99772546159576 131.1943015889128 2.0500009536757995
    vertex 195.61714397015572 139.62284640943153 2.0500009536756587
  endloop
endfacet
facet normal -4.9735894163240097e-14 -5.710564695254238e-23 1.0
  outer loop
    vertex 180.70699602182958 138.28728371382326 2.050000953674741
    vertex 180.7069960202153 140.95840958561206 2.050000953674741
    vertex 180.6175910537551 139.6228475986394 2.050000953675245
  endloop
endfacet
facet normal -4.9735894163240097e-14 -5.710564695254238e-23 1.0
  outer loop
    vertex 180.7069960202153 140.95840958561206 2.050000953674741
    vertex 180.70699602182958 138.28728371382326 2.050000953674741
    vertex 180.84217362926069 141.73182668483656 2.0500009536753163
  endloop
endfacet
facet normal -4.9735894163240097e-14 -5.710564695254238e-23 1.0
  outer loop
    vertex 180.84217362926069 141.73182668483656 2.0500009536753163
    vertex 180.70699602182958 138.28728371382326 2.050000953674741
    vertex 180.84217362926066 137.51386662383487 2.0500009536753163
  endloop
endfacet
facet normal -4.9735894163240097e-14 -5.710564695254238e-23 1.0
  outer loop
    vertex 180.84217362926069 141.73182668483656 2.0500009536753163
    vertex 180.84217362926066 137.51386662383487 2.0500009536753163
    vertex 180.97158756815108 136.98474017574085 2.050000953675075
  endloop
endfacet
facet normal -4.9735894163240097e-14 -5.710564695254238e-23 1.0
  outer loop
    vertex 180.84217362926069 141.73182668483656 2.0500009536753163
    vertex 180.97158756815108 136.98474017574085 2.050000953675075
    vertex 180.97158756815105 142.2609531329306 2.050000953675075
  endloop
endfacet
facet normal -4.9735894163240097e-14 -5.710564695254238e-23 1.0
  outer loop
    vertex 180.97158756815105 142.2609531329306 2.050000953675075
    vertex 180.97158756815108 136.98474017574085 2.050000953675075
    vertex 181.41105552755573 143.5265647443065 2.0500009536750596
  endloop
endfacet
facet normal -4.9735894163240097e-14 -5.710564695254238e-23 1.0
  outer loop
    vertex 181.41105552755573 143.5265647443065 2.0500009536750596
    vertex 180.97158756815108 136.98474017574085 2.050000953675075
    vertex 181.41105553795677 135.7191285344113 2.0500009536750596
  endloop
endfacet
facet normal -4.9735894163240097e-14 -5.710564695254238e-23 1.0
  outer loop
    vertex 181.41105552755573 143.5265647443065 2.0500009536750596
    vertex 181.41105553795677 135.7191285344113 2.0500009536750596
    vertex 182.01351328505126 144.71878480364043 2.0500009536750547
  endloop
endfacet
facet normal -4.9735894163240097e-14 -5.710564695254238e-23 1.0
  outer loop
    vertex 182.01351328505126 144.71878480364043 2.0500009536750547
    vertex 181.41105553795677 135.7191285344113 2.0500009536750596
    vertex 182.0135132671061 134.52690759623937 2.0500009536750547
  endloop
endfacet
facet normal -4.9735894163240097e-14 -5.710564695254238e-23 1.0
  outer loop
    vertex 182.01351328505126 144.71878480364043 2.0500009536750547
    vertex 182.0135132671061 134.52690759623937 2.0500009536750547
    vertex 182.76950008267883 133.42562571926643 2.0500009536752515
  endloop
endfacet
facet normal -4.9735894163240097e-14 -5.710564695254238e-23 1.0
  outer loop
    vertex 182.01351328505126 144.71878480364043 2.0500009536750547
    vertex 182.76950008267883 133.42562571926643 2.0500009536752515
    vertex 182.76950010936847 145.82006856321794 2.0500009536752515
  endloop
endfacet
facet normal -4.9735894163240097e-14 -5.710564695254238e-23 1.0
  outer loop
    vertex 182.76950010936847 145.82006856321794 2.0500009536752515
    vertex 182.76950008267883 133.42562571926643 2.0500009536752515
    vertex 183.66553049561435 132.4349314728492 2.0500009536750365
  endloop
endfacet
facet normal -4.9735894163240097e-14 -5.710564695254238e-23 1.0
  outer loop
    vertex 182.76950010936847 145.82006856321794 2.0500009536752515
    vertex 183.66553049561435 132.4349314728492 2.0500009536750365
    vertex 183.66553042358788 146.810761765557 2.0500009536750365
  endloop
endfacet
facet normal -4.9735894163240097e-14 -5.710564695254238e-23 1.0
  outer loop
    vertex 183.66553042358788 146.810761765557 2.0500009536750365
    vertex 183.66553049561435 132.4349314728492 2.0500009536750365
    vertex 184.68561161934954 147.6731861278133 2.0500009536754384
  endloop
endfacet
facet normal -4.9735894163240097e-14 -5.710564695254238e-23 1.0
  outer loop
    vertex 184.68561161934954 147.6731861278133 2.0500009536754384
    vertex 183.66553049561435 132.4349314728492 2.0500009536750365
    vertex 184.68561161934957 131.57250623655446 2.0500009536754384
  endloop
endfacet
facet normal -4.9735894163240097e-14 -5.710564695254238e-23 1.0
  outer loop
    vertex 184.68561161934954 147.6731861278133 2.0500009536754384
    vertex 184.68561161934957 131.57250623655446 2.0500009536754384
    vertex 185.8115401732161 148.39195417902332 2.0500009536751493
  endloop
endfacet
facet normal -4.9735894163240097e-14 -5.710564695254238e-23 1.0
  outer loop
    vertex 185.8115401732161 148.39195417902332 2.0500009536751493
    vertex 184.68561161934957 131.57250623655446 2.0500009536754384
    vertex 185.61714397015572 139.62284640943153 2.050000953675428
  endloop
endfacet
facet normal -4.9735894163240097e-14 -5.710564695254238e-23 1.0
  outer loop
    vertex 185.8115401732161 148.39195417902332 2.0500009536751493
    vertex 185.61714397015572 139.62284640943153 2.050000953675428
    vertex 185.7875148387104 140.91694163494412 2.0500009536754336
  endloop
endfacet
facet normal -4.9735894163240097e-14 -5.710564695254238e-23 1.0
  outer loop
    vertex 185.8115401732161 148.39195417902332 2.0500009536751493
    vertex 185.7875148387104 140.91694163494412 2.0500009536754336
    vertex 186.28701695123354 142.12284640943153 2.050000953675447
  endloop
endfacet
facet normal -4.9735894163240097e-14 -5.710564695254238e-23 1.0
  outer loop
    vertex 185.8115401732161 148.39195417902332 2.0500009536751493
    vertex 186.28701695123354 142.12284640943153 2.050000953675447
    vertex 187.02322624699136 148.95423542176482 2.050000953675477
  endloop
endfacet
facet normal -4.9735894163240097e-14 -5.710564695254238e-23 1.0
  outer loop
    vertex 187.02322624699136 148.95423542176482 2.050000953675477
    vertex 186.28701695123354 142.12284640943153 2.050000953675447
    vertex 187.081610064223 143.15838031536424 2.050000953675467
  endloop
endfacet
facet normal -4.9735894163240097e-14 -5.710564695254238e-23 1.0
  outer loop
    vertex 187.02322624699136 148.95423542176482 2.050000953675477
    vertex 187.081610064223 143.15838031536424 2.050000953675467
    vertex 188.29904519670882 149.34999771166423 2.0500009536753683
  endloop
endfacet
facet normal -4.9735894163240097e-14 -5.710564695254238e-23 1.0
  outer loop
    vertex 188.29904519670882 149.34999771166423 2.0500009536753683
    vertex 187.081610064223 143.15838031536424 2.050000953675467
    vertex 188.11714397015572 143.95297342835372 2.0500009536754926
  endloop
endfacet
facet normal -4.9735894163240097e-14 -5.710564695254238e-23 1.0
  outer loop
    vertex 188.29904519670882 149.34999771166423 2.0500009536753683
    vertex 188.11714397015572 143.95297342835372 2.0500009536754926
    vertex 189.32304874464313 144.45247554087686 2.050000953675521
  endloop
endfacet
facet normal -4.9735894163240097e-14 -5.710564695254238e-23 1.0
  outer loop
    vertex 188.29904519670882 149.34999771166423 2.0500009536753683
    vertex 189.32304874464313 144.45247554087686 2.050000953675521
    vertex 189.61623116585366 149.57217986487038 2.050000953675513
  endloop
endfacet
facet normal -4.9735894163240097e-14 -5.710564695254238e-23 1.0
  outer loop
    vertex 189.61623116585366 149.57217986487038 2.050000953675513
    vertex 189.32304874464313 144.45247554087686 2.050000953675521
    vertex 190.61714397015572 144.6228464094315 2.0500009536755512
  endloop
endfacet
facet normal -4.9735894163240097e-14 -5.710564695254238e-23 1.0
  outer loop
    vertex 189.61623116585366 149.57217986487038 2.050000953675513
    vertex 190.61714397015572 144.6228464094315 2.0500009536755512
    vertex 190.95127800518637 149.61681543323604 2.0500009536755286
  endloop
endfacet
facet normal -4.9735894163240097e-14 -5.710564695254238e-23 1.0
  outer loop
    vertex 190.95127800518637 149.61681543323604 2.0500009536755286
    vertex 190.61714397015572 144.6228464094315 2.0500009536755512
    vertex 191.91123919566832 144.45247554087686 2.050000953675581
  endloop
endfacet
facet normal -4.9735894163240097e-14 -5.710564695254238e-23 1.0
  outer loop
    vertex 190.95127800518637 149.61681543323604 2.0500009536755286
    vertex 191.91123919566832 144.45247554087686 2.050000953675581
    vertex 192.28036186724907 149.4831083338051 2.050000953675621
  endloop
endfacet
facet normal -4.9735894163240097e-14 -5.710564695254238e-23 1.0
  outer loop
    vertex 192.28036186724907 149.4831083338051 2.050000953675621
    vertex 191.91123919566832 144.45247554087686 2.050000953675581
    vertex 193.11714397015572 143.95297342835372 2.050000953675608
  endloop
endfacet
facet normal -4.9735894163240097e-14 -5.710564695254238e-23 1.0
  outer loop
    vertex 192.28036186724907 149.4831083338051 2.050000953675621
    vertex 193.11714397015572 143.95297342835372 2.050000953675608
    vertex 193.57976628449182 149.17344451419385 2.050000953675689
  endloop
endfacet
facet normal -4.9735894163240097e-14 -5.710564695254238e-23 1.0
  outer loop
    vertex 193.57976628449182 149.17344451419385 2.050000953675689
    vertex 193.11714397015572 143.95297342835372 2.050000953675608
    vertex 194.15267787608846 143.15838031536424 2.0500009536756307
  endloop
endfacet
facet normal -4.9735894163240097e-14 -5.710564695254238e-23 1.0
  outer loop
    vertex 193.57976628449182 149.17344451419385 2.050000953675689
    vertex 194.15267787608846 143.15838031536424 2.0500009536756307
    vertex 194.82630215150095 148.6933498809521 2.0500009536757564
  endloop
endfacet
facet normal -4.9735894163240097e-14 -5.710564695254238e-23 1.0
  outer loop
    vertex 194.82630215150095 148.6933498809521 2.0500009536757564
    vertex 194.15267787608846 143.15838031536424 2.0500009536756307
    vertex 194.9472709890779 142.12284640943153 2.050000953675647
  endloop
endfacet
facet normal -4.9735894163240097e-14 -5.710564695254238e-23 1.0
  outer loop
    vertex 194.82630215150095 148.6933498809521 2.0500009536757564
    vertex 194.9472709890779 142.12284640943153 2.050000953675647
    vertex 195.99772548641346 148.0513926457765 2.0500009536757995
  endloop
endfacet
facet normal -4.9735894163240097e-14 -5.710564695254238e-23 1.0
  outer loop
    vertex 195.99772548641346 148.0513926457765 2.0500009536757995
    vertex 194.9472709890779 142.12284640943153 2.050000953675647
    vertex 195.44677310160105 140.91694163494412 2.050000953675657
  endloop
endfacet
facet normal -4.9735894163240097e-14 -5.710564695254238e-23 1.0
  outer loop
    vertex 195.99772548641346 148.0513926457765 2.0500009536757995
    vertex 195.44677310160105 140.91694163494412 2.050000953675657
    vertex 195.61714397015572 139.62284640943153 2.0500009536756587
  endloop
endfacet
facet normal -4.9735894163240097e-14 -5.710564695254238e-23 1.0
  outer loop
    vertex 195.99772548641346 148.0513926457765 2.0500009536757995
    vertex 195.61714397015572 139.62284640943153 2.0500009536756587
    vertex 195.99772546159576 131.1943015889128 2.0500009536757995
  endloop
endfacet
facet normal -4.9735894163240097e-14 -5.710564695254238e-23 1.0
  outer loop
    vertex 195.99772548641346 148.0513926457765 2.0500009536757995
    vertex 195.99772546159576 131.1943015889128 2.0500009536757995
    vertex 197.0731330910523 131.98666666404918 2.050000953675869
  endloop
endfacet
facet normal -4.9735894163240097e-14 -5.710564695254238e-23 1.0
  outer loop
    vertex 195.99772548641346 148.0513926457765 2.0500009536757995
    vertex 197.0731330910523 131.98666666404918 2.050000953675869
    vertex 197.0731330503669 147.25902668397018 2.050000953675869
  endloop
endfacet
facet normal -4.9735894163240097e-14 -5.710564695254238e-23 1.0
  outer loop
    vertex 197.0731330503669 147.25902668397018 2.050000953675869
    vertex 197.0731330910523 131.98666666404918 2.050000953675869
    vertex 198.03333257972128 146.33039329634516 2.0500009536759145
  endloop
endfacet
facet normal -4.9735894163240097e-14 -5.710564695254238e-23 1.0
  outer loop
    vertex 198.03333257972128 146.33039329634516 2.0500009536759145
    vertex 197.0731330910523 131.98666666404918 2.050000953675869
    vertex 198.03333257972128 132.9153000123263 2.0500009536759145
  endloop
endfacet
facet normal -4.9735894163240097e-14 -5.710564695254238e-23 1.0
  outer loop
    vertex 198.03333257972128 146.33039329634516 2.0500009536759145
    vertex 198.03333257972128 132.9153000123263 2.0500009536759145
    vertex 198.86118954614602 133.96362913190146 2.0500009536759594
  endloop
endfacet
facet normal -4.9735894163240097e-14 -5.710564695254238e-23 1.0
  outer loop
    vertex 198.03333257972128 146.33039329634516 2.0500009536759145
    vertex 198.86118954614602 133.96362913190146 2.0500009536759594
    vertex 198.86118956835062 145.28206414865193 2.0500009536759594
  endloop
endfacet
facet normal -4.9735894163240097e-14 -5.710564695254238e-23 1.0
  outer loop
    vertex 198.86118956835062 145.28206414865193 2.0500009536759594
    vertex 198.86118954614602 133.96362913190146 2.0500009536759594
    vertex 199.54193200546302 135.11294784174578 2.05000095367598
  endloop
endfacet
facet normal -4.9735894163240097e-14 -5.710564695254238e-23 1.0
  outer loop
    vertex 198.86118956835062 145.28206414865193 2.0500009536759594
    vertex 199.54193200546302 135.11294784174578 2.05000095367598
    vertex 199.54193201945 144.13274638761453 2.05000095367598
  endloop
endfacet
facet normal -4.9735894163240097e-14 -5.710564695254238e-23 1.0
  outer loop
    vertex 199.54193201945 144.13274638761453 2.05000095367598
    vertex 199.54193200546302 135.11294784174578 2.05000095367598
    vertex 200.06341099800613 136.34274564619682 2.0500009536760273
  endloop
endfacet
facet normal -4.9735894163240097e-14 -5.710564695254238e-23 1.0
  outer loop
    vertex 199.54193201945 144.13274638761453 2.05000095367598
    vertex 200.06341099800613 136.34274564619682 2.0500009536760273
    vertex 200.063410990755 142.90294863324922 2.0500009536760273
  endloop
endfacet
facet normal -4.9735894163240097e-14 -5.710564695254238e-23 1.0
  outer loop
    vertex 200.063410990755 142.90294863324922 2.0500009536760273
    vertex 200.06341099800613 136.34274564619682 2.0500009536760273
    vertex 200.4163220093275 141.61461754321925 2.050000953676025
  endloop
endfacet
facet normal -4.9735894163240097e-14 -5.710564695254238e-23 1.0
  outer loop
    vertex 200.4163220093275 141.61461754321925 2.050000953676025
    vertex 200.06341099800613 136.34274564619682 2.0500009536760273
    vertex 200.4163220118032 137.6310757838606 2.050000953676025
  endloop
endfacet
facet normal -4.9735894163240097e-14 -5.710564695254238e-23 1.0
  outer loop
    vertex 200.4163220093275 141.61461754321925 2.050000953676025
    vertex 200.4163220118032 137.6310757838606 2.050000953676025
    vertex 200.5943654955585 140.2907431562886 2.0500009536760495
  endloop
endfacet
facet normal -4.9735894163240097e-14 -5.710564695254238e-23 1.0
  outer loop
    vertex 200.5943654955585 140.2907431562886 2.0500009536760495
    vertex 200.4163220118032 137.6310757838606 2.050000953676025
    vertex 200.5943654955585 138.95495015238282 2.0500009536760495
  endloop
endfacet
facet normal 4.9735894163240097e-14 5.710564695254238e-23 -1.0
  outer loop
    vertex 180.7069960202154 140.95840958561206 0.1500009536747412
    vertex 180.70699602182967 138.28728371382326 0.1500009536747412
    vertex 180.61759105375518 139.6228475986394 0.15000095367524494
  endloop
endfacet
facet normal 4.9735894163240097e-14 5.710564695254238e-23 -1.0
  outer loop
    vertex 180.70699602182967 138.28728371382326 0.1500009536747412
    vertex 180.7069960202154 140.95840958561206 0.1500009536747412
    vertex 180.84217362926077 141.73182668483656 0.1500009536753165
  endloop
endfacet
facet normal 4.9735894163240097e-14 5.710564695254238e-23 -1.0
  outer loop
    vertex 180.70699602182967 138.28728371382326 0.1500009536747412
    vertex 180.84217362926077 141.73182668483656 0.1500009536753165
    vertex 180.84217362926074 137.51386662383487 0.1500009536753165
  endloop
endfacet
facet normal 4.9735894163240097e-14 5.710564695254238e-23 -1.0
  outer loop
    vertex 180.84217362926074 137.51386662383487 0.1500009536753165
    vertex 180.84217362926077 141.73182668483656 0.1500009536753165
    vertex 180.97158756815116 136.98474017574085 0.15000095367507502
  endloop
endfacet
facet normal 4.9735894163240097e-14 5.710564695254238e-23 -1.0
  outer loop
    vertex 180.97158756815116 136.98474017574085 0.15000095367507502
    vertex 180.84217362926077 141.73182668483656 0.1500009536753165
    vertex 180.97158756815114 142.2609531329306 0.15000095367507502
  endloop
endfacet
facet normal 4.9735894163240097e-14 5.710564695254238e-23 -1.0
  outer loop
    vertex 180.97158756815116 136.98474017574085 0.15000095367507502
    vertex 180.97158756815114 142.2609531329306 0.15000095367507502
    vertex 181.41105552755582 143.5265647443065 0.15000095367505953
  endloop
endfacet
facet normal 4.9735894163240097e-14 5.710564695254238e-23 -1.0
  outer loop
    vertex 180.97158756815116 136.98474017574085 0.15000095367507502
    vertex 181.41105552755582 143.5265647443065 0.15000095367505953
    vertex 181.41105553795686 135.7191285344113 0.15000095367505953
  endloop
endfacet
facet normal 4.9735894163240097e-14 5.710564695254238e-23 -1.0
  outer loop
    vertex 181.41105553795686 135.7191285344113 0.15000095367505953
    vertex 181.41105552755582 143.5265647443065 0.15000095367505953
    vertex 182.01351328505135 144.71878480364043 0.1500009536750546
  endloop
endfacet
facet normal 4.9735894163240097e-14 5.710564695254238e-23 -1.0
  outer loop
    vertex 181.41105553795686 135.7191285344113 0.15000095367505953
    vertex 182.01351328505135 144.71878480364043 0.1500009536750546
    vertex 182.0135132671062 134.52690759623937 0.1500009536750546
  endloop
endfacet
facet normal 4.9735894163240097e-14 5.710564695254238e-23 -1.0
  outer loop
    vertex 182.0135132671062 134.52690759623937 0.1500009536750546
    vertex 182.01351328505135 144.71878480364043 0.1500009536750546
    vertex 182.76950008267892 133.42562571926643 0.15000095367525126
  endloop
endfacet
facet normal 4.9735894163240097e-14 5.710564695254238e-23 -1.0
  outer loop
    vertex 182.76950008267892 133.42562571926643 0.15000095367525126
    vertex 182.01351328505135 144.71878480364043 0.1500009536750546
    vertex 182.76950010936858 145.82006856321794 0.15000095367525126
  endloop
endfacet
facet normal 4.9735894163240097e-14 5.710564695254238e-23 -1.0
  outer loop
    vertex 182.76950008267892 133.42562571926643 0.15000095367525126
    vertex 182.76950010936858 145.82006856321794 0.15000095367525126
    vertex 183.66553049561443 132.4349314728492 0.1500009536750366
  endloop
endfacet
facet normal 4.9735894163240097e-14 5.710564695254238e-23 -1.0
  outer loop
    vertex 183.66553049561443 132.4349314728492 0.1500009536750366
    vertex 182.76950010936858 145.82006856321794 0.15000095367525126
    vertex 183.66553042358797 146.810761765557 0.1500009536750366
  endloop
endfacet
facet normal 4.9735894163240097e-14 5.710564695254238e-23 -1.0
  outer loop
    vertex 183.66553049561443 132.4349314728492 0.1500009536750366
    vertex 183.66553042358797 146.810761765557 0.1500009536750366
    vertex 184.68561161934963 147.6731861278133 0.15000095367543845
  endloop
endfacet
facet normal 4.9735894163240097e-14 5.710564695254238e-23 -1.0
  outer loop
    vertex 183.66553049561443 132.4349314728492 0.1500009536750366
    vertex 184.68561161934963 147.6731861278133 0.15000095367543845
    vertex 184.68561161934966 131.57250623655446 0.15000095367543845
  endloop
endfacet
facet normal 4.9735894163240097e-14 5.710564695254238e-23 -1.0
  outer loop
    vertex 184.68561161934966 131.57250623655446 0.15000095367543845
    vertex 184.68561161934963 147.6731861278133 0.15000095367543845
    vertex 185.81154017321617 148.39195417902332 0.1500009536751494
  endloop
endfacet
facet normal 4.9735894163240097e-14 5.710564695254238e-23 -1.0
  outer loop
    vertex 184.68561161934966 131.57250623655446 0.15000095367543845
    vertex 185.81154017321617 148.39195417902332 0.1500009536751494
    vertex 185.61714397015584 139.62284640943153 0.1500009536754275
  endloop
endfacet
facet normal 4.9735894163240097e-14 5.710564695254238e-23 -1.0
  outer loop
    vertex 185.61714397015584 139.62284640943153 0.1500009536754275
    vertex 185.81154017321617 148.39195417902332 0.1500009536751494
    vertex 185.78751483871048 140.91694163494412 0.1500009536754335
  endloop
endfacet
facet normal 4.9735894163240097e-14 5.710564695254238e-23 -1.0
  outer loop
    vertex 185.78751483871048 140.91694163494412 0.1500009536754335
    vertex 185.81154017321617 148.39195417902332 0.1500009536751494
    vertex 186.28701695123362 142.12284640943153 0.1500009536754469
  endloop
endfacet
facet normal 4.9735894163240097e-14 5.710564695254238e-23 -1.0
  outer loop
    vertex 186.28701695123362 142.12284640943153 0.1500009536754469
    vertex 185.81154017321617 148.39195417902332 0.1500009536751494
    vertex 187.02322624699144 148.95423542176482 0.15000095367547686
  endloop
endfacet
facet normal 4.9735894163240097e-14 5.710564695254238e-23 -1.0
  outer loop
    vertex 186.28701695123362 142.12284640943153 0.1500009536754469
    vertex 187.02322624699144 148.95423542176482 0.15000095367547686
    vertex 187.0816100642231 143.15838031536424 0.150000953675467
  endloop
endfacet
facet normal 4.9735894163240097e-14 5.710564695254238e-23 -1.0
  outer loop
    vertex 187.0816100642231 143.15838031536424 0.150000953675467
    vertex 187.02322624699144 148.95423542176482 0.15000095367547686
    vertex 188.2990451967089 149.34999771166423 0.1500009536753683
  endloop
endfacet
facet normal 4.9735894163240097e-14 5.710564695254238e-23 -1.0
  outer loop
    vertex 187.0816100642231 143.15838031536424 0.150000953675467
    vertex 188.2990451967089 149.34999771166423 0.1500009536753683
    vertex 188.1171439701558 143.95297342835372 0.15000095367549238
  endloop
endfacet
facet normal 4.9735894163240097e-14 5.710564695254238e-23 -1.0
  outer loop
    vertex 188.1171439701558 143.95297342835372 0.15000095367549238
    vertex 188.2990451967089 149.34999771166423 0.1500009536753683
    vertex 189.32304874464322 144.45247554087686 0.15000095367552094
  endloop
endfacet
facet normal 4.9735894163240097e-14 5.710564695254238e-23 -1.0
  outer loop
    vertex 189.32304874464322 144.45247554087686 0.15000095367552094
    vertex 188.2990451967089 149.34999771166423 0.1500009536753683
    vertex 189.61623116585375 149.57217986487038 0.15000095367551283
  endloop
endfacet
facet normal 4.9735894163240097e-14 5.710564695254238e-23 -1.0
  outer loop
    vertex 189.32304874464322 144.45247554087686 0.15000095367552094
    vertex 189.61623116585375 149.57217986487038 0.15000095367551283
    vertex 190.6171439701558 144.6228464094315 0.15000095367555125
  endloop
endfacet
facet normal 4.9735894163240097e-14 5.710564695254238e-23 -1.0
  outer loop
    vertex 190.6171439701558 144.6228464094315 0.15000095367555125
    vertex 189.61623116585375 149.57217986487038 0.15000095367551283
    vertex 190.95127800518645 149.61681543323604 0.15000095367552835
  endloop
endfacet
facet normal 4.9735894163240097e-14 5.710564695254238e-23 -1.0
  outer loop
    vertex 190.6171439701558 144.6228464094315 0.15000095367555125
    vertex 190.95127800518645 149.61681543323604 0.15000095367552835
    vertex 191.91123919566843 144.45247554087686 0.15000095367558086
  endloop
endfacet
facet normal 4.9735894163240097e-14 5.710564695254238e-23 -1.0
  outer loop
    vertex 191.91123919566843 144.45247554087686 0.15000095367558086
    vertex 190.95127800518645 149.61681543323604 0.15000095367552835
    vertex 192.28036186724916 149.4831083338051 0.15000095367562105
  endloop
endfacet
facet normal 4.9735894163240097e-14 5.710564695254238e-23 -1.0
  outer loop
    vertex 191.91123919566843 144.45247554087686 0.15000095367558086
    vertex 192.28036186724916 149.4831083338051 0.15000095367562105
    vertex 193.1171439701558 143.95297342835372 0.150000953675608
  endloop
endfacet
facet normal 4.9735894163240097e-14 5.710564695254238e-23 -1.0
  outer loop
    vertex 193.1171439701558 143.95297342835372 0.150000953675608
    vertex 192.28036186724916 149.4831083338051 0.15000095367562105
    vertex 193.57976628449194 149.17344451419385 0.15000095367568872
  endloop
endfacet
facet normal 4.9735894163240097e-14 5.710564695254238e-23 -1.0
  outer loop
    vertex 193.1171439701558 143.95297342835372 0.150000953675608
    vertex 193.57976628449194 149.17344451419385 0.15000095367568872
    vertex 194.15267787608855 143.15838031536424 0.15000095367563057
  endloop
endfacet
facet normal 4.9735894163240097e-14 5.710564695254238e-23 -1.0
  outer loop
    vertex 194.15267787608855 143.15838031536424 0.15000095367563057
    vertex 193.57976628449194 149.17344451419385 0.15000095367568872
    vertex 194.82630215150107 148.6933498809521 0.1500009536757564
  endloop
endfacet
facet normal 4.9735894163240097e-14 5.710564695254238e-23 -1.0
  outer loop
    vertex 194.15267787608855 143.15838031536424 0.15000095367563057
    vertex 194.82630215150107 148.6933498809521 0.1500009536757564
    vertex 194.947270989078 142.12284640943153 0.15000095367564711
  endloop
endfacet
facet normal 4.9735894163240097e-14 5.710564695254238e-23 -1.0
  outer loop
    vertex 194.947270989078 142.12284640943153 0.15000095367564711
    vertex 194.82630215150107 148.6933498809521 0.1500009536757564
    vertex 195.99772548641357 148.0513926457765 0.1500009536757994
  endloop
endfacet
facet normal 4.9735894163240097e-14 5.710564695254238e-23 -1.0
  outer loop
    vertex 194.947270989078 142.12284640943153 0.15000095367564711
    vertex 195.99772548641357 148.0513926457765 0.1500009536757994
    vertex 195.44677310160114 140.91694163494412 0.150000953675657
  endloop
endfacet
facet normal 4.9735894163240097e-14 5.710564695254238e-23 -1.0
  outer loop
    vertex 195.44677310160114 140.91694163494412 0.150000953675657
    vertex 195.99772548641357 148.0513926457765 0.1500009536757994
    vertex 195.6171439701558 139.62284640943153 0.15000095367565877
  endloop
endfacet
facet normal 4.9735894163240097e-14 5.710564695254238e-23 -1.0
  outer loop
    vertex 195.6171439701558 139.62284640943153 0.15000095367565877
    vertex 195.99772548641357 148.0513926457765 0.1500009536757994
    vertex 195.99772546159585 131.1943015889128 0.1500009536757994
  endloop
endfacet
facet normal 4.9735894163240097e-14 5.710564695254238e-23 -1.0
  outer loop
    vertex 195.99772546159585 131.1943015889128 0.1500009536757994
    vertex 195.99772548641357 148.0513926457765 0.1500009536757994
    vertex 197.0731330910524 131.98666666404918 0.1500009536758692
  endloop
endfacet
facet normal 4.9735894163240097e-14 5.710564695254238e-23 -1.0
  outer loop
    vertex 197.0731330910524 131.98666666404918 0.1500009536758692
    vertex 195.99772548641357 148.0513926457765 0.1500009536757994
    vertex 197.07313305036698 147.25902668397018 0.1500009536758692
  endloop
endfacet
facet normal 4.9735894163240097e-14 5.710564695254238e-23 -1.0
  outer loop
    vertex 197.0731330910524 131.98666666404918 0.1500009536758692
    vertex 197.07313305036698 147.25902668397018 0.1500009536758692
    vertex 198.03333257972136 146.33039329634516 0.15000095367591432
  endloop
endfacet
facet normal 4.9735894163240097e-14 5.710564695254238e-23 -1.0
  outer loop
    vertex 197.0731330910524 131.98666666404918 0.1500009536758692
    vertex 198.03333257972136 146.33039329634516 0.15000095367591432
    vertex 198.03333257972136 132.9153000123263 0.15000095367591432
  endloop
endfacet
facet normal 4.9735894163240097e-14 5.710564695254238e-23 -1.0
  outer loop
    vertex 198.03333257972136 132.9153000123263 0.15000095367591432
    vertex 198.03333257972136 146.33039329634516 0.15000095367591432
    vertex 198.86118956835074 145.28206414865193 0.15000095367595945
  endloop
endfacet
facet normal 4.9735894163240097e-14 5.710564695254238e-23 -1.0
  outer loop
    vertex 198.03333257972136 132.9153000123263 0.15000095367591432
    vertex 198.86118956835074 145.28206414865193 0.15000095367595945
    vertex 198.8611895461461 133.96362913190146 0.15000095367595945
  endloop
endfacet
facet normal 4.9735894163240097e-14 5.710564695254238e-23 -1.0
  outer loop
    vertex 198.8611895461461 133.96362913190146 0.15000095367595945
    vertex 198.86118956835074 145.28206414865193 0.15000095367595945
    vertex 199.5419320054631 135.11294784174578 0.15000095367597954
  endloop
endfacet
facet normal 4.9735894163240097e-14 5.710564695254238e-23 -1.0
  outer loop
    vertex 199.5419320054631 135.11294784174578 0.15000095367597954
    vertex 198.86118956835074 145.28206414865193 0.15000095367595945
    vertex 199.5419320194501 144.13274638761453 0.15000095367597954
  endloop
endfacet
facet normal 4.9735894163240097e-14 5.710564695254238e-23 -1.0
  outer loop
    vertex 199.5419320054631 135.11294784174578 0.15000095367597954
    vertex 199.5419320194501 144.13274638761453 0.15000095367597954
    vertex 200.06341099800625 136.34274564619682 0.15000095367602712
  endloop
endfacet
facet normal 4.9735894163240097e-14 5.710564695254238e-23 -1.0
  outer loop
    vertex 200.06341099800625 136.34274564619682 0.15000095367602712
    vertex 199.5419320194501 144.13274638761453 0.15000095367597954
    vertex 200.0634109907551 142.90294863324922 0.15000095367602712
  endloop
endfacet
facet normal 4.9735894163240097e-14 5.710564695254238e-23 -1.0
  outer loop
    vertex 200.06341099800625 136.34274564619682 0.15000095367602712
    vertex 200.0634109907551 142.90294863324922 0.15000095367602712
    vertex 200.4163220093276 141.61461754321925 0.150000953676025
  endloop
endfacet
facet normal 4.9735894163240097e-14 5.710564695254238e-23 -1.0
  outer loop
    vertex 200.06341099800625 136.34274564619682 0.15000095367602712
    vertex 200.4163220093276 141.61461754321925 0.150000953676025
    vertex 200.4163220118033 137.6310757838606 0.150000953676025
  endloop
endfacet
facet normal 4.9735894163240097e-14 5.710564695254238e-23 -1.0
  outer loop
    vertex 200.4163220118033 137.6310757838606 0.150000953676025
    vertex 200.4163220093276 141.61461754321925 0.150000953676025
    vertex 200.59436549555858 140.2907431562886 0.15000095367604968
  endloop
endfacet
facet normal 4.9735894163240097e-14 5.710564695254238e-23 -1.0
  outer loop
    vertex 200.4163220118033 137.6310757838606 0.150000953676025
    vertex 200.59436549555858 140.2907431562886 0.15000095367604968
    vertex 200.59436549555858 138.95495015238282 0.15000095367604968
  endloop
endfacet
facet normal 4.9735894163240097e-14 5.710564695254238e-23 -1.0
  outer loop
    vertex 185.61714397015584 139.62284640943153 0.1500009536754275
    vertex 185.81154014633947 130.8537391374349 0.1500009536751494
    vertex 184.68561161934966 131.57250623655446 0.15000095367543845
  endloop
endfacet
facet normal 4.9735894163240097e-14 5.710564695254238e-23 -1.0
  outer loop
    vertex 185.81154014633947 130.8537391374349 0.1500009536751494
    vertex 185.61714397015584 139.62284640943153 0.1500009536754275
    vertex 185.78751483871048 138.3287511839189 0.1500009536754293
  endloop
endfacet
facet normal 4.9735894163240097e-14 5.710564695254238e-23 -1.0
  outer loop
    vertex 185.81154014633947 130.8537391374349 0.1500009536751494
    vertex 185.78751483871048 138.3287511839189 0.1500009536754293
    vertex 186.28701695123362 137.12284640943153 0.15000095367543914
  endloop
endfacet
facet normal 4.9735894163240097e-14 5.710564695254238e-23 -1.0
  outer loop
    vertex 185.81154014633947 130.8537391374349 0.1500009536751494
    vertex 186.28701695123362 137.12284640943153 0.15000095367543914
    vertex 187.02322630790076 130.29145738648987 0.15000095367547686
  endloop
endfacet
facet normal 4.9735894163240097e-14 5.710564695254238e-23 -1.0
  outer loop
    vertex 187.02322630790076 130.29145738648987 0.15000095367547686
    vertex 186.28701695123362 137.12284640943153 0.15000095367543914
    vertex 187.0816100642231 136.0873125034988 0.1500009536754557
  endloop
endfacet
facet normal 4.9735894163240097e-14 5.710564695254238e-23 -1.0
  outer loop
    vertex 187.02322630790076 130.29145738648987 0.15000095367547686
    vertex 187.0816100642231 136.0873125034988 0.1500009536754557
    vertex 188.2990451636026 129.8956946582879 0.1500009536753683
  endloop
endfacet
facet normal 4.9735894163240097e-14 5.710564695254238e-23 -1.0
  outer loop
    vertex 188.2990451636026 129.8956946582879 0.1500009536753683
    vertex 187.0816100642231 136.0873125034988 0.1500009536754557
    vertex 188.1171439701558 135.29271939050932 0.15000095367547828
  endloop
endfacet
facet normal 4.9735894163240097e-14 5.710564695254238e-23 -1.0
  outer loop
    vertex 188.2990451636026 129.8956946582879 0.1500009536753683
    vertex 188.1171439701558 135.29271939050932 0.15000095367547828
    vertex 189.32304874464322 134.7932172779862 0.15000095367550542
  endloop
endfacet
facet normal 4.9735894163240097e-14 5.710564695254238e-23 -1.0
  outer loop
    vertex 188.2990451636026 129.8956946582879 0.1500009536753683
    vertex 189.32304874464322 134.7932172779862 0.15000095367550542
    vertex 189.61623109656728 129.67351344611754 0.15000095367551283
  endloop
endfacet
facet normal 4.9735894163240097e-14 5.710564695254238e-23 -1.0
  outer loop
    vertex 189.61623109656728 129.67351344611754 0.15000095367551283
    vertex 189.32304874464322 134.7932172779862 0.15000095367550542
    vertex 190.6171439701558 134.62284640943153 0.15000095367553504
  endloop
endfacet
facet normal 4.9735894163240097e-14 5.710564695254238e-23 -1.0
  outer loop
    vertex 189.61623109656728 129.67351344611754 0.15000095367551283
    vertex 190.6171439701558 134.62284640943153 0.15000095367553504
    vertex 190.95127804014265 129.62887787426666 0.15000095367552835
  endloop
endfacet
facet normal 4.9735894163240097e-14 5.710564695254238e-23 -1.0
  outer loop
    vertex 190.95127804014265 129.62887787426666 0.15000095367552835
    vertex 190.6171439701558 134.62284640943153 0.15000095367553504
    vertex 191.91123919566843 134.7932172779862 0.15000095367556535
  endloop
endfacet
facet normal 4.9735894163240097e-14 5.710564695254238e-23 -1.0
  outer loop
    vertex 190.95127804014265 129.62887787426666 0.15000095367552835
    vertex 191.91123919566843 134.7932172779862 0.15000095367556535
    vertex 192.2803618332263 129.76258449929182 0.15000095367562105
  endloop
endfacet
facet normal 4.9735894163240097e-14 5.710564695254238e-23 -1.0
  outer loop
    vertex 192.2803618332263 129.76258449929182 0.15000095367562105
    vertex 191.91123919566843 134.7932172779862 0.15000095367556535
    vertex 193.1171439701558 135.29271939050932 0.1500009536755939
  endloop
endfacet
facet normal 4.9735894163240097e-14 5.710564695254238e-23 -1.0
  outer loop
    vertex 192.2803618332263 129.76258449929182 0.15000095367562105
    vertex 193.1171439701558 135.29271939050932 0.1500009536755939
    vertex 193.57976628449197 130.07224926194414 0.15000095367568872
  endloop
endfacet
facet normal 4.9735894163240097e-14 5.710564695254238e-23 -1.0
  outer loop
    vertex 193.57976628449197 130.07224926194414 0.15000095367568872
    vertex 193.1171439701558 135.29271939050932 0.1500009536755939
    vertex 194.15267787608855 136.0873125034988 0.15000095367561928
  endloop
endfacet
facet normal 4.9735894163240097e-14 5.710564695254238e-23 -1.0
  outer loop
    vertex 193.57976628449197 130.07224926194414 0.15000095367568872
    vertex 194.15267787608855 136.0873125034988 0.15000095367561928
    vertex 194.8263021227341 130.55234294917352 0.1500009536757564
  endloop
endfacet
facet normal 4.9735894163240097e-14 5.710564695254238e-23 -1.0
  outer loop
    vertex 194.8263021227341 130.55234294917352 0.1500009536757564
    vertex 194.15267787608855 136.0873125034988 0.15000095367561928
    vertex 194.947270989078 137.12284640943153 0.15000095367563937
  endloop
endfacet
facet normal 4.9735894163240097e-14 5.710564695254238e-23 -1.0
  outer loop
    vertex 194.8263021227341 130.55234294917352 0.1500009536757564
    vertex 194.947270989078 137.12284640943153 0.15000095367563937
    vertex 195.99772546159585 131.1943015889128 0.1500009536757994
  endloop
endfacet
facet normal 4.9735894163240097e-14 5.710564695254238e-23 -1.0
  outer loop
    vertex 195.99772546159585 131.1943015889128 0.1500009536757994
    vertex 194.947270989078 137.12284640943153 0.15000095367563937
    vertex 195.44677310160114 138.3287511839189 0.15000095367565278
  endloop
endfacet
facet normal 4.9735894163240097e-14 5.710564695254238e-23 -1.0
  outer loop
    vertex 195.99772546159585 131.1943015889128 0.1500009536757994
    vertex 195.44677310160114 138.3287511839189 0.15000095367565278
    vertex 195.6171439701558 139.62284640943153 0.15000095367565877
  endloop
endfacet
facet normal -0.29627557904750695 -0.9551024977771048 -1.4735530897201225e-14
  outer loop
    vertex 188.29904516360253 129.8956946582879 2.0500009536753683
    vertex 187.02322630790076 130.29145738648987 0.15000095367547686
    vertex 188.2990451636026 129.8956946582879 0.1500009536753683
  endloop
endfacet
facet normal -0.29627557904750695 -0.9551024977771048 -1.4735530897201225e-14
  outer loop
    vertex 187.02322630790076 130.29145738648987 0.15000095367547686
    vertex 188.29904516360253 129.8956946582879 2.0500009536753683
    vertex 187.02322630790067 130.29145738648987 2.050000953675477
  endloop
endfacet
facet normal -0.0334150389623777 -0.999441561658881 -1.6619268983671184e-15
  outer loop
    vertex 190.95127804014265 129.62887787426666 0.15000095367552835
    vertex 189.6162310965672 129.67351344611754 2.050000953675513
    vertex 189.61623109656728 129.67351344611754 0.15000095367551283
  endloop
endfacet
facet normal -0.0334150389623777 -0.999441561658881 -1.6619268983671184e-15
  outer loop
    vertex 189.6162310965672 129.67351344611754 2.050000953675513
    vertex 190.95127804014265 129.62887787426666 0.15000095367552835
    vertex 190.95127804014257 129.62887787426666 2.0500009536755286
  endloop
endfacet
facet normal 0.23182083886431795 -0.9727584996638395 1.1529816651039249e-14
  outer loop
    vertex 193.57976628449197 130.07224926194414 0.15000095367568872
    vertex 192.28036183322618 129.76258449929182 2.050000953675621
    vertex 192.2803618332263 129.76258449929182 0.15000095367562105
  endloop
endfacet
facet normal 0.23182083886431795 -0.9727584996638395 1.1529816651039249e-14
  outer loop
    vertex 192.28036183322618 129.76258449929182 2.050000953675621
    vertex 193.57976628449197 130.07224926194414 0.15000095367568872
    vertex 193.57976628449188 130.07224926194414 2.050000953675689
  endloop
endfacet
facet normal 0.48058234523294957 -0.876949604852182 2.390219260914892e-14
  outer loop
    vertex 195.99772546159585 131.1943015889128 0.1500009536757994
    vertex 194.826302122734 130.55234294917352 2.0500009536757564
    vertex 194.8263021227341 130.55234294917352 0.1500009536757564
  endloop
endfacet
facet normal 0.48058234523294957 -0.876949604852182 2.390219260914892e-14
  outer loop
    vertex 194.826302122734 130.55234294917352 2.0500009536757564
    vertex 195.99772546159585 131.1943015889128 0.1500009536757994
    vertex 195.99772546159576 131.1943015889128 2.0500009536757995
  endloop
endfacet
facet normal 0.5931793650435476 -0.8050703328818754 2.950230607364979e-14
  outer loop
    vertex 197.0731330910524 131.98666666404918 0.1500009536758692
    vertex 195.99772546159576 131.1943015889128 2.0500009536757995
    vertex 195.99772546159585 131.1943015889128 0.1500009536757994
  endloop
endfacet
facet normal 0.5931793650435476 -0.8050703328818754 2.950230607364979e-14
  outer loop
    vertex 195.99772546159576 131.1943015889128 2.0500009536757995
    vertex 197.0731330910524 131.98666666404918 0.1500009536758692
    vertex 197.0731330910523 131.98666666404918 2.050000953675869
  endloop
endfacet
facet normal -0.16632905799328154 -0.9860703040184648 -8.272524480935457e-15
  outer loop
    vertex 189.61623109656728 129.67351344611754 0.15000095367551283
    vertex 188.29904516360253 129.8956946582879 2.0500009536753683
    vertex 188.2990451636026 129.8956946582879 0.1500009536753683
  endloop
endfacet
facet normal -0.16632905799328154 -0.9860703040184648 -8.272524480935457e-15
  outer loop
    vertex 188.29904516360253 129.8956946582879 2.0500009536753683
    vertex 189.61623109656728 129.67351344611754 0.15000095367551283
    vertex 189.6162310965672 129.67351344611754 2.050000953675513
  endloop
endfacet
facet normal -0.4209346542439657 -0.9070909639371969 -2.093556146491796e-14
  outer loop
    vertex 187.02322630790076 130.29145738648987 0.15000095367547686
    vertex 185.81154014633938 130.8537391374349 2.0500009536751493
    vertex 185.81154014633947 130.8537391374349 0.1500009536751494
  endloop
endfacet
facet normal -0.4209346542439657 -0.9070909639371969 -2.093556146491796e-14
  outer loop
    vertex 185.81154014633938 130.8537391374349 2.0500009536751493
    vertex 187.02322630790076 130.29145738648987 0.15000095367547686
    vertex 187.02322630790067 130.29145738648987 2.050000953675477
  endloop
endfacet
facet normal 0.1000953669660535 -0.9949778477493513 4.978332520835463e-15
  outer loop
    vertex 192.2803618332263 129.76258449929182 0.15000095367562105
    vertex 190.95127804014257 129.62887787426666 2.0500009536755286
    vertex 190.95127804014265 129.62887787426666 0.15000095367552835
  endloop
endfacet
facet normal 0.1000953669660535 -0.9949778477493513 4.978332520835463e-15
  outer loop
    vertex 190.95127804014257 129.62887787426666 2.0500009536755286
    vertex 192.2803618332263 129.76258449929182 0.15000095367562105
    vertex 192.28036183322618 129.76258449929182 2.050000953675621
  endloop
endfacet
facet normal 0.3594073893225288 -0.9331807587495384 1.7875447823541832e-14
  outer loop
    vertex 194.8263021227341 130.55234294917352 0.1500009536757564
    vertex 193.57976628449188 130.07224926194414 2.050000953675689
    vertex 193.57976628449197 130.07224926194414 0.15000095367568872
  endloop
endfacet
facet normal 0.3594073893225288 -0.9331807587495384 1.7875447823541832e-14
  outer loop
    vertex 193.57976628449188 130.07224926194414 2.050000953675689
    vertex 194.8263021227341 130.55234294917352 0.1500009536757564
    vertex 194.826302122734 130.55234294917352 2.0500009536757564
  endloop
endfacet
facet normal 0.7847994860044544 -0.6197497614095097 3.903270413989156e-14
  outer loop
    vertex 198.8611895461461 133.96362913190146 0.15000095367595945
    vertex 198.03333257972128 132.9153000123263 2.0500009536759145
    vertex 198.03333257972136 132.9153000123263 0.15000095367591432
  endloop
endfacet
facet normal 0.7847994860044544 -0.6197497614095097 3.903270413989156e-14
  outer loop
    vertex 198.03333257972128 132.9153000123263 2.0500009536759145
    vertex 198.8611895461461 133.96362913190146 0.15000095367595945
    vertex 198.86118954614602 133.96362913190146 2.0500009536759594
  endloop
endfacet
facet normal 0.860401600286285 -0.5096166070928222 4.2792842900619094e-14
  outer loop
    vertex 199.5419320054631 135.11294784174578 0.15000095367597954
    vertex 198.86118954614602 133.96362913190146 2.0500009536759594
    vertex 198.8611895461461 133.96362913190146 0.15000095367595945
  endloop
endfacet
facet normal 0.860401600286285 -0.5096166070928222 4.2792842900619094e-14
  outer loop
    vertex 198.86118954614602 133.96362913190146 2.0500009536759594
    vertex 199.5419320054631 135.11294784174578 0.15000095367597954
    vertex 199.54193200546302 135.11294784174578 2.05000095367598
  endloop
endfacet
facet normal 0.9206499737935583 -0.39038906971625165 4.578934963569276e-14
  outer loop
    vertex 200.06341099800625 136.34274564619682 0.15000095367602712
    vertex 199.54193200546302 135.11294784174578 2.05000095367598
    vertex 199.5419320054631 135.11294784174578 0.15000095367597954
  endloop
endfacet
facet normal 0.9206499737935583 -0.39038906971625165 4.578934963569276e-14
  outer loop
    vertex 199.54193200546302 135.11294784174578 2.05000095367598
    vertex 200.06341099800625 136.34274564619682 0.15000095367602712
    vertex 200.06341099800613 136.34274564619682 2.0500009536760273
  endloop
endfacet
facet normal 0.6951925518742911 -0.7188235637613107 3.457602314204365e-14
  outer loop
    vertex 198.03333257972136 132.9153000123263 0.15000095367591432
    vertex 197.0731330910523 131.98666666404918 2.050000953675869
    vertex 197.0731330910524 131.98666666404918 0.1500009536758692
  endloop
endfacet
facet normal 0.6951925518742911 -0.7188235637613107 3.457602314204365e-14
  outer loop
    vertex 197.0731330910523 131.98666666404918 2.050000953675869
    vertex 198.03333257972136 132.9153000123263 0.15000095367591432
    vertex 198.03333257972128 132.9153000123263 2.0500009536759145
  endloop
endfacet
facet normal -0.538082959875058 -0.8428918841061981 -2.6762037191522743e-14
  outer loop
    vertex 185.81154014633938 130.8537391374349 2.0500009536751493
    vertex 184.68561161934966 131.57250623655446 0.15000095367543845
    vertex 185.81154014633947 130.8537391374349 0.1500009536751494
  endloop
endfacet
facet normal -0.538082959875058 -0.8428918841061981 -2.6762037191522743e-14
  outer loop
    vertex 184.68561161934966 131.57250623655446 0.15000095367543845
    vertex 185.81154014633938 130.8537391374349 2.0500009536751493
    vertex 184.68561161934957 131.57250623655446 2.0500009536754384
  endloop
endfacet
facet normal 0.9206499737935533 0.39038906971626347 4.578934968027935e-14
  outer loop
    vertex 199.5419320194501 144.13274638761453 0.15000095367597954
    vertex 200.063410990755 142.90294863324922 2.0500009536760273
    vertex 200.0634109907551 142.90294863324922 0.15000095367602712
  endloop
endfacet
facet normal 0.9206499737935533 0.39038906971626347 4.578934968027935e-14
  outer loop
    vertex 200.063410990755 142.90294863324922 2.0500009536760273
    vertex 199.5419320194501 144.13274638761453 0.15000095367597954
    vertex 199.54193201945 144.13274638761453 2.05000095367598
  endloop
endfacet
facet normal 0.964468997865096 -0.26419604871590596 4.7968727986457566e-14
  outer loop
    vertex 200.4163220118033 137.6310757838606 0.150000953676025
    vertex 200.06341099800613 136.34274564619682 2.0500009536760273
    vertex 200.06341099800625 136.34274564619682 0.15000095367602712
  endloop
endfacet
facet normal 0.964468997865096 -0.26419604871590596 4.7968727986457566e-14
  outer loop
    vertex 200.06341099800613 136.34274564619682 2.0500009536760273
    vertex 200.4163220118033 137.6310757838606 0.150000953676025
    vertex 200.4163220118032 137.6310757838606 2.050000953676025
  endloop
endfacet
facet normal 1.0 0.0 4.97358941632401e-14
  outer loop
    vertex 200.59436549555858 140.2907431562886 0.15000095367604968
    vertex 200.5943654955585 138.95495015238282 2.0500009536760495
    vertex 200.59436549555858 138.95495015238282 0.15000095367604968
  endloop
endfacet
facet normal 1.0 0.0 4.97358941632401e-14
  outer loop
    vertex 200.5943654955585 138.95495015238282 2.0500009536760495
    vertex 200.59436549555858 140.2907431562886 0.15000095367604968
    vertex 200.5943654955585 140.2907431562886 2.0500009536760495
  endloop
endfacet
facet normal 0.9910775176116661 0.1332867363419848 4.929212653111197e-14
  outer loop
    vertex 200.4163220093276 141.61461754321925 0.150000953676025
    vertex 200.5943654955585 140.2907431562886 2.0500009536760495
    vertex 200.59436549555858 140.2907431562886 0.15000095367604968
  endloop
endfacet
facet normal 0.9910775176116661 0.1332867363419848 4.929212653111197e-14
  outer loop
    vertex 200.5943654955585 140.2907431562886 2.0500009536760495
    vertex 200.4163220093276 141.61461754321925 0.150000953676025
    vertex 200.4163220093275 141.61461754321925 2.050000953676025
  endloop
endfacet
facet normal 0.7847994860044504 0.619749761409515 3.9032704210673784e-14
  outer loop
    vertex 198.03333257972136 146.33039329634516 0.15000095367591432
    vertex 198.86118956835062 145.28206414865193 2.0500009536759594
    vertex 198.86118956835074 145.28206414865193 0.15000095367595945
  endloop
endfacet
facet normal 0.7847994860044504 0.619749761409515 3.9032704210673784e-14
  outer loop
    vertex 198.86118956835062 145.28206414865193 2.0500009536759594
    vertex 198.03333257972136 146.33039329634516 0.15000095367591432
    vertex 198.03333257972128 146.33039329634516 2.0500009536759145
  endloop
endfacet
facet normal 0.8604014185135643 0.5096169139852467 4.279283391819428e-14
  outer loop
    vertex 198.86118956835074 145.28206414865193 0.15000095367595945
    vertex 199.54193201945 144.13274638761453 2.05000095367598
    vertex 199.5419320194501 144.13274638761453 0.15000095367597954
  endloop
endfacet
facet normal 0.8604014185135643 0.5096169139852467 4.279283391819428e-14
  outer loop
    vertex 199.54193201945 144.13274638761453 2.05000095367598
    vertex 198.86118956835074 145.28206414865193 0.15000095367595945
    vertex 198.86118956835062 145.28206414865193 2.0500009536759594
  endloop
endfacet
facet normal 0.9644690467183794 0.2641958703729879 4.796873044639346e-14
  outer loop
    vertex 200.0634109907551 142.90294863324922 0.15000095367602712
    vertex 200.4163220093275 141.61461754321925 2.050000953676025
    vertex 200.4163220093276 141.61461754321925 0.150000953676025
  endloop
endfacet
facet normal 0.9644690467183794 0.2641958703729879 4.796873044639346e-14
  outer loop
    vertex 200.4163220093275 141.61461754321925 2.050000953676025
    vertex 200.0634109907551 142.90294863324922 0.15000095367602712
    vertex 200.063410990755 142.90294863324922 2.0500009536760273
  endloop
endfacet
facet normal 0.6951925518742891 0.7188235637613127 3.4576023224141326e-14
  outer loop
    vertex 197.0731330503669 147.25902668397018 2.050000953675869
    vertex 198.03333257972136 146.33039329634516 0.15000095367591432
    vertex 197.07313305036698 147.25902668397018 0.1500009536758692
  endloop
endfacet
facet normal 0.6951925518742891 0.7188235637613127 3.4576023224141326e-14
  outer loop
    vertex 198.03333257972136 146.33039329634516 0.15000095367591432
    vertex 197.0731330503669 147.25902668397018 2.050000953675869
    vertex 198.03333257972128 146.33039329634516 2.0500009536759145
  endloop
endfacet
facet normal 0.9910775176116656 -0.1332867363419891 4.92921265158891e-14
  outer loop
    vertex 200.59436549555858 138.95495015238282 0.15000095367604968
    vertex 200.4163220118032 137.6310757838606 2.050000953676025
    vertex 200.4163220118033 137.6310757838606 0.150000953676025
  endloop
endfacet
facet normal 0.9910775176116656 -0.1332867363419891 4.92921265158891e-14
  outer loop
    vertex 200.4163220118032 137.6310757838606 2.050000953676025
    vertex 200.59436549555858 138.95495015238282 0.15000095367604968
    vertex 200.5943654955585 138.95495015238282 2.0500009536760495
  endloop
endfacet
facet normal 0.5931798186806531 0.8050699986398621 2.9502328727644956e-14
  outer loop
    vertex 195.99772548641346 148.0513926457765 2.0500009536757995
    vertex 197.07313305036698 147.25902668397018 0.1500009536758692
    vertex 195.99772548641357 148.0513926457765 0.1500009536757994
  endloop
endfacet
facet normal 0.5931798186806531 0.8050699986398621 2.9502328727644956e-14
  outer loop
    vertex 197.07313305036698 147.25902668397018 0.1500009536758692
    vertex 195.99772548641346 148.0513926457765 2.0500009536757995
    vertex 197.0731330503669 147.25902668397018 2.050000953675869
  endloop
endfacet
facet normal -0.29627525981182 0.9551025968048872 -1.4735514910645393e-14
  outer loop
    vertex 187.02322624699144 148.95423542176482 0.15000095367547686
    vertex 188.29904519670882 149.34999771166423 2.0500009536753683
    vertex 188.2990451967089 149.34999771166423 0.1500009536753683
  endloop
endfacet
facet normal -0.29627525981182 0.9551025968048872 -1.4735514910645393e-14
  outer loop
    vertex 188.29904519670882 149.34999771166423 2.0500009536753683
    vertex 187.02322624699144 148.95423542176482 0.15000095367547686
    vertex 187.02322624699136 148.95423542176482 2.050000953675477
  endloop
endfacet
facet normal -0.9977669042449201 -0.06679225099896427 -4.962482915292327e-14
  outer loop
    vertex 180.6175910537551 139.6228475986394 2.050000953675245
    vertex 180.70699602182967 138.28728371382326 0.1500009536747412
    vertex 180.70699602182958 138.28728371382326 2.050000953674741
  endloop
endfacet
facet normal -0.9977669042449201 -0.06679225099896427 -4.962482915292327e-14
  outer loop
    vertex 180.70699602182967 138.28728371382326 0.1500009536747412
    vertex 180.6175910537551 139.6228475986394 2.050000953675245
    vertex 180.61759105375518 139.6228475986394 0.15000095367524494
  endloop
endfacet
facet normal 0.35940799882133906 0.9331805240055326 1.7875478244089917e-14
  outer loop
    vertex 193.57976628449182 149.17344451419385 2.050000953675689
    vertex 194.82630215150107 148.6933498809521 0.1500009536757564
    vertex 193.57976628449194 149.17344451419385 0.15000095367568872
  endloop
endfacet
facet normal 0.35940799882133906 0.9331805240055326 1.7875478244089917e-14
  outer loop
    vertex 194.82630215150107 148.6933498809521 0.1500009536757564
    vertex 193.57976628449182 149.17344451419385 2.050000953675689
    vertex 194.82630215150095 148.6933498809521 2.0500009536757564
  endloop
endfacet
facet normal 0.4805815378453231 0.8769500473129722 2.3902152553160953e-14
  outer loop
    vertex 194.82630215150095 148.6933498809521 2.0500009536757564
    vertex 195.99772548641357 148.0513926457765 0.1500009536757994
    vertex 194.82630215150107 148.6933498809521 0.1500009536757564
  endloop
endfacet
facet normal 0.4805815378453231 0.8769500473129722 2.3902152553160953e-14
  outer loop
    vertex 195.99772548641357 148.0513926457765 0.1500009536757994
    vertex 194.82630215150095 148.6933498809521 2.0500009536757564
    vertex 195.99772548641346 148.0513926457765 2.0500009536757995
  endloop
endfacet
facet normal 0.10009571341423969 0.9949778128963954 4.978349865383489e-15
  outer loop
    vertex 190.95127800518637 149.61681543323604 2.0500009536755286
    vertex 192.28036186724916 149.4831083338051 0.15000095367562105
    vertex 190.95127800518645 149.61681543323604 0.15000095367552835
  endloop
endfacet
facet normal 0.10009571341423969 0.9949778128963954 4.978349865383489e-15
  outer loop
    vertex 192.28036186724916 149.4831083338051 0.15000095367562105
    vertex 190.95127800518637 149.61681543323604 2.0500009536755286
    vertex 192.28036186724907 149.4831083338051 2.050000953675621
  endloop
endfacet
facet normal -0.03341503896238635 0.9994415616588808 -1.661926784220035e-15
  outer loop
    vertex 189.61623116585366 149.57217986487038 2.050000953675513
    vertex 190.95127800518645 149.61681543323604 0.15000095367552835
    vertex 189.61623116585375 149.57217986487038 0.15000095367551283
  endloop
endfacet
facet normal -0.03341503896238635 0.9994415616588808 -1.661926784220035e-15
  outer loop
    vertex 190.95127800518645 149.61681543323604 0.15000095367552835
    vertex 189.61623116585366 149.57217986487038 2.050000953675513
    vertex 190.95127800518637 149.61681543323604 2.0500009536755286
  endloop
endfacet
facet normal 0.2318201765695126 0.972758657496956 1.1529783822314924e-14
  outer loop
    vertex 192.28036186724907 149.4831083338051 2.050000953675621
    vertex 193.57976628449194 149.17344451419385 0.15000095367568872
    vertex 192.28036186724916 149.4831083338051 0.15000095367562105
  endloop
endfacet
facet normal 0.2318201765695126 0.972758657496956 1.1529783822314924e-14
  outer loop
    vertex 193.57976628449194 149.17344451419385 0.15000095367568872
    vertex 192.28036186724907 149.4831083338051 2.050000953675621
    vertex 193.57976628449182 149.17344451419385 2.050000953675689
  endloop
endfacet
facet normal -0.420934366296683 0.9070910975587899 -2.093554704000234e-14
  outer loop
    vertex 185.8115401732161 148.39195417902332 2.0500009536751493
    vertex 187.02322624699144 148.95423542176482 0.15000095367547686
    vertex 185.81154017321617 148.39195417902332 0.1500009536751494
  endloop
endfacet
facet normal -0.420934366296683 0.9070910975587899 -2.093554704000234e-14
  outer loop
    vertex 187.02322624699144 148.95423542176482 0.15000095367547686
    vertex 185.8115401732161 148.39195417902332 2.0500009536751493
    vertex 187.02322624699136 148.95423542176482 2.050000953675477
  endloop
endfacet
facet normal -0.6456275244165967 0.7636524731287768 -3.2110862179649696e-14
  outer loop
    vertex 183.66553042358788 146.810761765557 2.0500009536750365
    vertex 184.68561161934963 147.6731861278133 0.15000095367543845
    vertex 183.66553042358797 146.810761765557 0.1500009536750366
  endloop
endfacet
facet normal -0.6456275244165967 0.7636524731287768 -3.2110862179649696e-14
  outer loop
    vertex 184.68561161934963 147.6731861278133 0.15000095367543845
    vertex 183.66553042358788 146.810761765557 2.0500009536750365
    vertex 184.68561161934954 147.6731861278133 2.0500009536754384
  endloop
endfacet
facet normal -0.7416516552668877 0.6707852281020249 -3.688670819404013e-14
  outer loop
    vertex 183.66553042358788 146.810761765557 2.0500009536750365
    vertex 182.76950010936858 145.82006856321794 0.15000095367525126
    vertex 182.76950010936847 145.82006856321794 2.0500009536752515
  endloop
endfacet
facet normal -0.7416516552668877 0.6707852281020249 -3.688670819404013e-14
  outer loop
    vertex 182.76950010936858 145.82006856321794 0.15000095367525126
    vertex 183.66553042358788 146.810761765557 2.0500009536750365
    vertex 183.66553042358797 146.810761765557 0.1500009536750366
  endloop
endfacet
facet normal -0.16632973853842412 0.9860701892247528 -8.272558215836282e-15
  outer loop
    vertex 188.29904519670882 149.34999771166423 2.0500009536753683
    vertex 189.61623116585375 149.57217986487038 0.15000095367551283
    vertex 188.2990451967089 149.34999771166423 0.1500009536753683
  endloop
endfacet
facet normal -0.16632973853842412 0.9860701892247528 -8.272558215836282e-15
  outer loop
    vertex 189.61623116585375 149.57217986487038 0.15000095367551283
    vertex 188.29904519670882 149.34999771166423 2.0500009536753683
    vertex 189.61623116585366 149.57217986487038 2.050000953675513
  endloop
endfacet
facet normal -0.9446691579356339 0.3280246668242807 -4.698396523963177e-14
  outer loop
    vertex 181.41105552755573 143.5265647443065 2.0500009536750596
    vertex 180.97158756815114 142.2609531329306 0.15000095367507502
    vertex 180.97158756815105 142.2609531329306 2.050000953675075
  endloop
endfacet
facet normal -0.9446691579356339 0.3280246668242807 -4.698396523963177e-14
  outer loop
    vertex 180.97158756815114 142.2609531329306 0.15000095367507502
    vertex 181.41105552755573 143.5265647443065 2.0500009536750596
    vertex 181.41105552755582 143.5265647443065 0.15000095367505953
  endloop
endfacet
facet normal -0.971368544873469 0.2375776715737389 -4.8311883127760365e-14
  outer loop
    vertex 180.97158756815105 142.2609531329306 2.050000953675075
    vertex 180.84217362926077 141.73182668483656 0.1500009536753165
    vertex 180.84217362926069 141.73182668483656 2.0500009536753163
  endloop
endfacet
facet normal -0.971368544873469 0.2375776715737389 -4.8311883127760365e-14
  outer loop
    vertex 180.84217362926077 141.73182668483656 0.1500009536753165
    vertex 180.97158756815105 142.2609531329306 2.050000953675075
    vertex 180.97158756815114 142.2609531329306 0.15000095367507502
  endloop
endfacet
facet normal -0.9850672928763652 0.17216976652487315 -4.899320261233647e-14
  outer loop
    vertex 180.84217362926069 141.73182668483656 2.0500009536753163
    vertex 180.7069960202154 140.95840958561206 0.1500009536747412
    vertex 180.7069960202153 140.95840958561206 2.050000953674741
  endloop
endfacet
facet normal -0.9850672928763652 0.17216976652487315 -4.899320261233647e-14
  outer loop
    vertex 180.7069960202154 140.95840958561206 0.1500009536747412
    vertex 180.84217362926069 141.73182668483656 2.0500009536753163
    vertex 180.84217362926077 141.73182668483656 0.1500009536753165
  endloop
endfacet
facet normal -0.9977668980000373 0.06679234428722532 -4.962482883470001e-14
  outer loop
    vertex 180.7069960202153 140.95840958561206 2.050000953674741
    vertex 180.61759105375518 139.6228475986394 0.15000095367524494
    vertex 180.6175910537551 139.6228475986394 2.050000953675245
  endloop
endfacet
facet normal -0.9977668980000373 0.06679234428722532 -4.962482883470001e-14
  outer loop
    vertex 180.61759105375518 139.6228475986394 0.15000095367524494
    vertex 180.7069960202153 140.95840958561206 2.050000953674741
    vertex 180.7069960202154 140.95840958561206 0.1500009536747412
  endloop
endfacet
facet normal -0.5380834571367583 0.8428915666654604 -2.6762061827010284e-14
  outer loop
    vertex 184.68561161934963 147.6731861278133 0.15000095367543845
    vertex 185.8115401732161 148.39195417902332 2.0500009536751493
    vertex 185.81154017321617 148.39195417902332 0.1500009536751494
  endloop
endfacet
facet normal -0.5380834571367583 0.8428915666654604 -2.6762061827010284e-14
  outer loop
    vertex 185.8115401732161 148.39195417902332 2.0500009536751493
    vertex 184.68561161934963 147.6731861278133 0.15000095367543845
    vertex 184.68561161934954 147.6731861278133 2.0500009536754384
  endloop
endfacet
facet normal -0.8925183006129269 0.4510111784324343 -4.439019571228415e-14
  outer loop
    vertex 182.01351328505126 144.71878480364043 2.0500009536750547
    vertex 181.41105552755582 143.5265647443065 0.15000095367505953
    vertex 181.41105552755573 143.5265647443065 2.0500009536750596
  endloop
endfacet
facet normal -0.8925183006129269 0.4510111784324343 -4.439019571228415e-14
  outer loop
    vertex 181.41105552755582 143.5265647443065 0.15000095367505953
    vertex 182.01351328505126 144.71878480364043 2.0500009536750547
    vertex 182.01351328505135 144.71878480364043 0.1500009536750546
  endloop
endfacet
facet normal -0.8244421478688368 0.5659462384515151 -4.100436737780008e-14
  outer loop
    vertex 182.76950010936847 145.82006856321794 2.0500009536752515
    vertex 182.01351328505135 144.71878480364043 0.1500009536750546
    vertex 182.01351328505126 144.71878480364043 2.0500009536750547
  endloop
endfacet
facet normal -0.8244421478688368 0.5659462384515151 -4.100436737780008e-14
  outer loop
    vertex 182.01351328505135 144.71878480364043 0.1500009536750546
    vertex 182.76950010936847 145.82006856321794 2.0500009536752515
    vertex 182.76950010936858 145.82006856321794 0.15000095367525126
  endloop
endfacet
facet normal -0.9713685448734382 -0.23757767157386572 -4.831188315489288e-14
  outer loop
    vertex 180.84217362926066 137.51386662383487 2.0500009536753163
    vertex 180.97158756815116 136.98474017574085 0.15000095367507502
    vertex 180.97158756815108 136.98474017574085 2.050000953675075
  endloop
endfacet
facet normal -0.9713685448734382 -0.23757767157386572 -4.831188315489288e-14
  outer loop
    vertex 180.97158756815116 136.98474017574085 0.15000095367507502
    vertex 180.84217362926066 137.51386662383487 2.0500009536753163
    vertex 180.84217362926074 137.51386662383487 0.1500009536753165
  endloop
endfacet
facet normal -0.741651970192422 -0.6707848799053978 -3.6886723933754406e-14
  outer loop
    vertex 182.76950008267883 133.42562571926643 2.0500009536752515
    vertex 183.66553049561443 132.4349314728492 0.1500009536750366
    vertex 183.66553049561435 132.4349314728492 2.0500009536750365
  endloop
endfacet
facet normal -0.741651970192422 -0.6707848799053978 -3.6886723933754406e-14
  outer loop
    vertex 183.66553049561443 132.4349314728492 0.1500009536750366
    vertex 182.76950008267883 133.42562571926643 2.0500009536752515
    vertex 182.76950008267892 133.42562571926643 0.15000095367525126
  endloop
endfacet
facet normal -0.9914448613738099 -0.13052619222005613 -4.9310396701429846e-14
  outer loop
    vertex 195.44677310160105 140.91694163494412 2.050000953675657
    vertex 195.6171439701558 139.62284640943153 0.15000095367565877
    vertex 195.61714397015572 139.62284640943153 2.0500009536756587
  endloop
endfacet
facet normal -0.9914448613738099 -0.13052619222005613 -4.9310396701429846e-14
  outer loop
    vertex 195.6171439701558 139.62284640943153 0.15000095367565877
    vertex 195.44677310160105 140.91694163494412 2.050000953675657
    vertex 195.44677310160114 140.91694163494412 0.150000953675657
  endloop
endfacet
facet normal -0.9914448613738099 0.13052619222005613 -4.931039668652228e-14
  outer loop
    vertex 195.61714397015572 139.62284640943153 2.0500009536756587
    vertex 195.44677310160114 138.3287511839189 0.15000095367565278
    vertex 195.44677310160105 138.3287511839189 2.050000953675653
  endloop
endfacet
facet normal -0.9914448613738099 0.13052619222005613 -4.931039668652228e-14
  outer loop
    vertex 195.44677310160114 138.3287511839189 0.15000095367565278
    vertex 195.61714397015572 139.62284640943153 2.0500009536756587
    vertex 195.6171439701558 139.62284640943153 0.15000095367565877
  endloop
endfacet
facet normal -0.9238795325112896 0.38268343236508284 -4.594997462671186e-14
  outer loop
    vertex 195.44677310160105 138.3287511839189 2.050000953675653
    vertex 194.947270989078 137.12284640943153 0.15000095367563937
    vertex 194.9472709890779 137.12284640943153 2.0500009536756396
  endloop
endfacet
facet normal -0.9238795325112896 0.38268343236508284 -4.594997462671186e-14
  outer loop
    vertex 194.947270989078 137.12284640943153 0.15000095367563937
    vertex 195.44677310160105 138.3287511839189 2.050000953675653
    vertex 195.44677310160114 138.3287511839189 0.15000095367565278
  endloop
endfacet
facet normal -0.7933533402912287 0.6087614290087292 -3.9458137732013844e-14
  outer loop
    vertex 194.9472709890779 137.12284640943153 2.0500009536756396
    vertex 194.15267787608855 136.0873125034988 0.15000095367561928
    vertex 194.15267787608846 136.0873125034988 2.050000953675619
  endloop
endfacet
facet normal -0.7933533402912287 0.6087614290087292 -3.9458137732013844e-14
  outer loop
    vertex 194.15267787608855 136.0873125034988 0.15000095367561928
    vertex 194.9472709890779 137.12284640943153 2.0500009536756396
    vertex 194.947270989078 137.12284640943153 0.15000095367563937
  endloop
endfacet
facet normal -0.9446691579356395 -0.32802466682426495 -4.6983965277096176e-14
  outer loop
    vertex 180.97158756815108 136.98474017574085 2.050000953675075
    vertex 181.41105553795686 135.7191285344113 0.15000095367505953
    vertex 181.41105553795677 135.7191285344113 2.0500009536750596
  endloop
endfacet
facet normal -0.9446691579356395 -0.32802466682426495 -4.6983965277096176e-14
  outer loop
    vertex 181.41105553795686 135.7191285344113 0.15000095367505953
    vertex 180.97158756815108 136.98474017574085 2.050000953675075
    vertex 180.97158756815116 136.98474017574085 0.15000095367507502
  endloop
endfacet
facet normal -0.6456279325787759 -0.7636521280491896 -3.2110882567178363e-14
  outer loop
    vertex 184.68561161934966 131.57250623655446 0.15000095367543845
    vertex 183.66553049561435 132.4349314728492 2.0500009536750365
    vertex 183.66553049561443 132.4349314728492 0.1500009536750366
  endloop
endfacet
facet normal -0.6456279325787759 -0.7636521280491896 -3.2110882567178363e-14
  outer loop
    vertex 183.66553049561435 132.4349314728492 2.0500009536750365
    vertex 184.68561161934966 131.57250623655446 0.15000095367543845
    vertex 184.68561161934957 131.57250623655446 2.0500009536754384
  endloop
endfacet
facet normal -0.9238795325112896 -0.38268343236508284 -4.594997467041863e-14
  outer loop
    vertex 194.9472709890779 142.12284640943153 2.050000953675647
    vertex 195.44677310160114 140.91694163494412 0.150000953675657
    vertex 195.44677310160105 140.91694163494412 2.050000953675657
  endloop
endfacet
facet normal -0.9238795325112896 -0.38268343236508284 -4.594997467041863e-14
  outer loop
    vertex 195.44677310160114 140.91694163494412 0.150000953675657
    vertex 194.9472709890779 142.12284640943153 2.050000953675647
    vertex 194.947270989078 142.12284640943153 0.15000095367564711
  endloop
endfacet
facet normal -0.892518442981929 -0.45101089669442934 -4.439020284464432e-14
  outer loop
    vertex 181.41105553795677 135.7191285344113 2.0500009536750596
    vertex 182.0135132671062 134.52690759623937 0.1500009536750546
    vertex 182.0135132671061 134.52690759623937 2.0500009536750547
  endloop
endfacet
facet normal -0.892518442981929 -0.45101089669442934 -4.439020284464432e-14
  outer loop
    vertex 182.0135132671062 134.52690759623937 0.1500009536750546
    vertex 181.41105553795677 135.7191285344113 2.0500009536750596
    vertex 181.41105553795686 135.7191285344113 0.15000095367505953
  endloop
endfacet
facet normal -0.6087614290087292 0.7933533402912287 -3.0277293958536e-14
  outer loop
    vertex 193.11714397015572 135.29271939050932 2.050000953675594
    vertex 194.15267787608855 136.0873125034988 0.15000095367561928
    vertex 193.1171439701558 135.29271939050932 0.1500009536755939
  endloop
endfacet
facet normal -0.6087614290087292 0.7933533402912287 -3.0277293958536e-14
  outer loop
    vertex 194.15267787608855 136.0873125034988 0.15000095367561928
    vertex 193.11714397015572 135.29271939050932 2.050000953675594
    vertex 194.15267787608846 136.0873125034988 2.050000953675619
  endloop
endfacet
facet normal 0.13052619222005613 0.9914448613738099 6.491836938404545e-15
  outer loop
    vertex 189.32304874464313 134.7932172779862 2.0500009536755055
    vertex 190.6171439701558 134.62284640943153 0.15000095367553504
    vertex 189.32304874464322 134.7932172779862 0.15000095367550542
  endloop
endfacet
facet normal 0.13052619222005613 0.9914448613738099 6.491836938404545e-15
  outer loop
    vertex 190.6171439701558 134.62284640943153 0.15000095367553504
    vertex 189.32304874464313 134.7932172779862 2.0500009536755055
    vertex 190.61714397015572 134.62284640943153 2.0500009536755353
  endloop
endfacet
facet normal -0.13052619222005613 0.9914448613738099 -6.4918368251703434e-15
  outer loop
    vertex 190.61714397015572 134.62284640943153 2.0500009536755353
    vertex 191.91123919566843 134.7932172779862 0.15000095367556535
    vertex 190.6171439701558 134.62284640943153 0.15000095367553504
  endloop
endfacet
facet normal -0.13052619222005613 0.9914448613738099 -6.4918368251703434e-15
  outer loop
    vertex 191.91123919566843 134.7932172779862 0.15000095367556535
    vertex 190.61714397015572 134.62284640943153 2.0500009536755353
    vertex 191.91123919566832 134.7932172779862 2.0500009536755655
  endloop
endfacet
facet normal 0.38268343236508284 0.9238795325112896 1.903310274289395e-14
  outer loop
    vertex 188.11714397015572 135.29271939050932 2.0500009536754784
    vertex 189.32304874464322 134.7932172779862 0.15000095367550542
    vertex 188.1171439701558 135.29271939050932 0.15000095367547828
  endloop
endfacet
facet normal 0.38268343236508284 0.9238795325112896 1.903310274289395e-14
  outer loop
    vertex 189.32304874464322 134.7932172779862 0.15000095367550542
    vertex 188.11714397015572 135.29271939050932 2.0500009536754784
    vertex 189.32304874464313 134.7932172779862 2.0500009536755055
  endloop
endfacet
facet normal -0.98506729287637 -0.1721697665248462 -4.899320263200044e-14
  outer loop
    vertex 180.70699602182958 138.28728371382326 2.050000953674741
    vertex 180.84217362926074 137.51386662383487 0.1500009536753165
    vertex 180.84217362926066 137.51386662383487 2.0500009536753163
  endloop
endfacet
facet normal -0.98506729287637 -0.1721697665248462 -4.899320263200044e-14
  outer loop
    vertex 180.84217362926074 137.51386662383487 0.1500009536753165
    vertex 180.70699602182958 138.28728371382326 2.050000953674741
    vertex 180.70699602182967 138.28728371382326 0.1500009536747412
  endloop
endfacet
facet normal -0.38268343236508284 0.9238795325112896 -1.903310263737647e-14
  outer loop
    vertex 191.91123919566832 134.7932172779862 2.0500009536755655
    vertex 193.1171439701558 135.29271939050932 0.1500009536755939
    vertex 191.91123919566843 134.7932172779862 0.15000095367556535
  endloop
endfacet
facet normal -0.38268343236508284 0.9238795325112896 -1.903310263737647e-14
  outer loop
    vertex 193.1171439701558 135.29271939050932 0.1500009536755939
    vertex 191.91123919566832 134.7932172779862 2.0500009536755655
    vertex 193.11714397015572 135.29271939050932 2.050000953675594
  endloop
endfacet
facet normal -0.8244416995132856 -0.565946891592882 -4.1004345143073325e-14
  outer loop
    vertex 182.0135132671061 134.52690759623937 2.0500009536750547
    vertex 182.76950008267892 133.42562571926643 0.15000095367525126
    vertex 182.76950008267883 133.42562571926643 2.0500009536752515
  endloop
endfacet
facet normal -0.8244416995132856 -0.565946891592882 -4.1004345143073325e-14
  outer loop
    vertex 182.76950008267892 133.42562571926643 0.15000095367525126
    vertex 182.0135132671061 134.52690759623937 2.0500009536750547
    vertex 182.0135132671062 134.52690759623937 0.1500009536750546
  endloop
endfacet
facet normal 0.6087614290087292 0.7933533402912287 3.0277294049145914e-14
  outer loop
    vertex 187.081610064223 136.0873125034988 2.0500009536754558
    vertex 188.1171439701558 135.29271939050932 0.15000095367547828
    vertex 187.0816100642231 136.0873125034988 0.1500009536754557
  endloop
endfacet
facet normal 0.6087614290087292 0.7933533402912287 3.0277294049145914e-14
  outer loop
    vertex 188.1171439701558 135.29271939050932 0.15000095367547828
    vertex 187.081610064223 136.0873125034988 2.0500009536754558
    vertex 188.11714397015572 135.29271939050932 2.0500009536754784
  endloop
endfacet
facet normal 0.9914448613738099 -0.13052619222005613 4.931039668652228e-14
  outer loop
    vertex 185.78751483871048 140.91694163494412 0.1500009536754335
    vertex 185.61714397015572 139.62284640943153 2.050000953675428
    vertex 185.61714397015584 139.62284640943153 0.1500009536754275
  endloop
endfacet
facet normal 0.9914448613738099 -0.13052619222005613 4.931039668652228e-14
  outer loop
    vertex 185.61714397015572 139.62284640943153 2.050000953675428
    vertex 185.78751483871048 140.91694163494412 0.1500009536754335
    vertex 185.7875148387104 140.91694163494412 2.0500009536754336
  endloop
endfacet
facet normal 0.9914448613738099 0.13052619222005613 4.9310396701429846e-14
  outer loop
    vertex 185.61714397015584 139.62284640943153 0.1500009536754275
    vertex 185.7875148387104 138.3287511839189 2.050000953675429
    vertex 185.78751483871048 138.3287511839189 0.1500009536754293
  endloop
endfacet
facet normal 0.9914448613738099 0.13052619222005613 4.9310396701429846e-14
  outer loop
    vertex 185.7875148387104 138.3287511839189 2.050000953675429
    vertex 185.61714397015584 139.62284640943153 0.1500009536754275
    vertex 185.61714397015572 139.62284640943153 2.050000953675428
  endloop
endfacet
facet normal 0.7933533402912287 -0.6087614290087292 3.9458137732013844e-14
  outer loop
    vertex 187.0816100642231 143.15838031536424 0.150000953675467
    vertex 186.28701695123354 142.12284640943153 2.050000953675447
    vertex 186.28701695123362 142.12284640943153 0.1500009536754469
  endloop
endfacet
facet normal 0.7933533402912287 -0.6087614290087292 3.9458137732013844e-14
  outer loop
    vertex 186.28701695123354 142.12284640943153 2.050000953675447
    vertex 187.0816100642231 143.15838031536424 0.150000953675467
    vertex 187.081610064223 143.15838031536424 2.050000953675467
  endloop
endfacet
facet normal 0.7933533402912287 0.6087614290087292 3.945813780154127e-14
  outer loop
    vertex 186.28701695123362 137.12284640943153 0.15000095367543914
    vertex 187.081610064223 136.0873125034988 2.0500009536754558
    vertex 187.0816100642231 136.0873125034988 0.1500009536754557
  endloop
endfacet
facet normal 0.7933533402912287 0.6087614290087292 3.945813780154127e-14
  outer loop
    vertex 187.081610064223 136.0873125034988 2.0500009536754558
    vertex 186.28701695123362 137.12284640943153 0.15000095367543914
    vertex 186.28701695123354 137.12284640943153 2.0500009536754393
  endloop
endfacet
facet normal -0.13052619222005613 -0.9914448613738099 -6.491836938404545e-15
  outer loop
    vertex 191.91123919566843 144.45247554087686 0.15000095367558086
    vertex 190.61714397015572 144.6228464094315 2.0500009536755512
    vertex 190.6171439701558 144.6228464094315 0.15000095367555125
  endloop
endfacet
facet normal -0.13052619222005613 -0.9914448613738099 -6.491836938404545e-15
  outer loop
    vertex 190.61714397015572 144.6228464094315 2.0500009536755512
    vertex 191.91123919566843 144.45247554087686 0.15000095367558086
    vertex 191.91123919566832 144.45247554087686 2.050000953675581
  endloop
endfacet
facet normal 0.38268343236508284 -0.9238795325112896 1.903310263737647e-14
  outer loop
    vertex 189.32304874464322 144.45247554087686 0.15000095367552094
    vertex 188.11714397015572 143.95297342835372 2.0500009536754926
    vertex 188.1171439701558 143.95297342835372 0.15000095367549238
  endloop
endfacet
facet normal 0.38268343236508284 -0.9238795325112896 1.903310263737647e-14
  outer loop
    vertex 188.11714397015572 143.95297342835372 2.0500009536754926
    vertex 189.32304874464322 144.45247554087686 0.15000095367552094
    vertex 189.32304874464313 144.45247554087686 2.050000953675521
  endloop
endfacet
facet normal 0.9238795325112896 -0.38268343236508284 4.594997462671186e-14
  outer loop
    vertex 186.28701695123362 142.12284640943153 0.1500009536754469
    vertex 185.7875148387104 140.91694163494412 2.0500009536754336
    vertex 185.78751483871048 140.91694163494412 0.1500009536754335
  endloop
endfacet
facet normal 0.9238795325112896 -0.38268343236508284 4.594997462671186e-14
  outer loop
    vertex 185.7875148387104 140.91694163494412 2.0500009536754336
    vertex 186.28701695123362 142.12284640943153 0.1500009536754469
    vertex 186.28701695123354 142.12284640943153 2.050000953675447
  endloop
endfacet
facet normal 0.9238795325112896 0.38268343236508284 4.594997467041863e-14
  outer loop
    vertex 185.78751483871048 138.3287511839189 0.1500009536754293
    vertex 186.28701695123354 137.12284640943153 2.0500009536754393
    vertex 186.28701695123362 137.12284640943153 0.15000095367543914
  endloop
endfacet
facet normal 0.9238795325112896 0.38268343236508284 4.594997467041863e-14
  outer loop
    vertex 186.28701695123354 137.12284640943153 2.0500009536754393
    vertex 185.78751483871048 138.3287511839189 0.1500009536754293
    vertex 185.7875148387104 138.3287511839189 2.050000953675429
  endloop
endfacet
facet normal 0.6087614290087292 -0.7933533402912287 3.0277293958536e-14
  outer loop
    vertex 188.1171439701558 143.95297342835372 0.15000095367549238
    vertex 187.081610064223 143.15838031536424 2.050000953675467
    vertex 187.0816100642231 143.15838031536424 0.150000953675467
  endloop
endfacet
facet normal 0.6087614290087292 -0.7933533402912287 3.0277293958536e-14
  outer loop
    vertex 187.081610064223 143.15838031536424 2.050000953675467
    vertex 188.1171439701558 143.95297342835372 0.15000095367549238
    vertex 188.11714397015572 143.95297342835372 2.0500009536754926
  endloop
endfacet
facet normal -0.6087614290087292 -0.7933533402912287 -3.0277294049145914e-14
  outer loop
    vertex 194.15267787608855 143.15838031536424 0.15000095367563057
    vertex 193.11714397015572 143.95297342835372 2.050000953675608
    vertex 193.1171439701558 143.95297342835372 0.150000953675608
  endloop
endfacet
facet normal -0.6087614290087292 -0.7933533402912287 -3.0277294049145914e-14
  outer loop
    vertex 193.11714397015572 143.95297342835372 2.050000953675608
    vertex 194.15267787608855 143.15838031536424 0.15000095367563057
    vertex 194.15267787608846 143.15838031536424 2.0500009536756307
  endloop
endfacet
facet normal -0.7933533402912287 -0.6087614290087292 -3.945813780154127e-14
  outer loop
    vertex 194.15267787608846 143.15838031536424 2.0500009536756307
    vertex 194.947270989078 142.12284640943153 0.15000095367564711
    vertex 194.9472709890779 142.12284640943153 2.050000953675647
  endloop
endfacet
facet normal -0.7933533402912287 -0.6087614290087292 -3.945813780154127e-14
  outer loop
    vertex 194.947270989078 142.12284640943153 0.15000095367564711
    vertex 194.15267787608846 143.15838031536424 2.0500009536756307
    vertex 194.15267787608855 143.15838031536424 0.15000095367563057
  endloop
endfacet
facet normal 0.13052619222005613 -0.9914448613738099 6.4918368251703434e-15
  outer loop
    vertex 190.6171439701558 144.6228464094315 0.15000095367555125
    vertex 189.32304874464313 144.45247554087686 2.050000953675521
    vertex 189.32304874464322 144.45247554087686 0.15000095367552094
  endloop
endfacet
facet normal 0.13052619222005613 -0.9914448613738099 6.4918368251703434e-15
  outer loop
    vertex 189.32304874464313 144.45247554087686 2.050000953675521
    vertex 190.6171439701558 144.6228464094315 0.15000095367555125
    vertex 190.61714397015572 144.6228464094315 2.0500009536755512
  endloop
endfacet
facet normal -0.38268343236508284 -0.9238795325112896 -1.903310274289395e-14
  outer loop
    vertex 193.1171439701558 143.95297342835372 0.150000953675608
    vertex 191.91123919566832 144.45247554087686 2.050000953675581
    vertex 191.91123919566843 144.45247554087686 0.15000095367558086
  endloop
endfacet
facet normal -0.38268343236508284 -0.9238795325112896 -1.903310274289395e-14
  outer loop
    vertex 191.91123919566832 144.45247554087686 2.050000953675581
    vertex 193.1171439701558 143.95297342835372 0.150000953675608
    vertex 193.11714397015572 143.95297342835372 2.050000953675608
  endloop
endfacet
endsolid мой эдит
