M48
METRIC,LZ,000.000
;FILE_FORMAT=3:3
;TYPE=PLATED
;Layer: PTH_Through
;EasyEDA v6.5.15, 2022-10-09 18:36:16
;2a5d3d0542d34b858b2f245c142da422,939f56e90c3d43cda586b760d259c3b5,10
;Gerber Generator version 0.2
;Holesize 1 = 0.306 mm
T01C0.306
;Holesize 2 = 0.889 mm
T02C0.889
;Holesize 3 = 0.915 mm
T03C0.915
;Holesize 4 = 1.001 mm
T04C1.001
;Holesize 5 = 1.021 mm
T05C1.021
;Holesize 6 = 1.501 mm
T06C1.501
;Holesize 7 = 2.363 mm
T07C2.363
%
G05
G90
T01
X063730Y-047940
X009344Y-028352
X009743Y-027620
X035152Y-037817
X045000Y-061910
X065000Y-034702
X059138Y-077411
X081799Y-043992
X086704Y-023987
X041590Y-076246
X034566Y-043908
X060828Y-056091
T02
X010000Y-008000
X012489Y-008000
X012489Y-006019
X010000Y-006019
X038000Y-008000
X040489Y-008000
X040489Y-006019
X038000Y-006019
X060000Y-008000
X062489Y-008000
X062489Y-006019
X060000Y-006019
X088000Y-008000
X090489Y-008000
X090489Y-006019
X088000Y-006019
T03
X016016Y-020000
X016016Y-022540
X016016Y-025080
X016016Y-027620
X016016Y-030160
X016016Y-032700
X016016Y-035240
X016016Y-037780
X016016Y-040320
X016016Y-042860
X016016Y-045400
X016016Y-047940
X016016Y-050480
X016016Y-053020
X016016Y-055560
X016016Y-058100
X016016Y-060640
X016016Y-063180
X016016Y-065720
X042035Y-065720
X042035Y-063180
X042035Y-060640
X042035Y-058100
X042035Y-055560
X042035Y-053020
X042035Y-050480
X042035Y-047940
X042035Y-045400
X042035Y-042860
X042035Y-040320
X042035Y-037780
X042035Y-035240
X042035Y-032700
X042035Y-030160
X042035Y-027620
X042035Y-025080
X042035Y-022540
X042035Y-020000
X058016Y-020000
X058016Y-022540
X058016Y-025080
X058016Y-027620
X058016Y-030160
X058016Y-032700
X058016Y-035240
X058016Y-037780
X058016Y-040320
X058016Y-042860
X058016Y-045400
X058016Y-047940
X058016Y-050480
X058016Y-053020
X058016Y-055560
X058016Y-058100
X058016Y-060640
X058016Y-063180
X058016Y-065720
X084035Y-065720
X084035Y-063180
X084035Y-060640
X084035Y-058100
X084035Y-055560
X084035Y-053020
X084035Y-050480
X084035Y-047940
X084035Y-045400
X084035Y-042860
X084035Y-040320
X084035Y-037780
X084035Y-035240
X084035Y-032700
X084035Y-030160
X084035Y-027620
X084035Y-025080
X084035Y-022540
X084035Y-020000
T04
X046270Y-075000
X043730Y-075000
X036270Y-075000
X033730Y-075000
X026270Y-075000
X023730Y-075000
X006270Y-075000
X003730Y-075000
X016270Y-075000
X013730Y-075000
X086270Y-075000
X083730Y-075000
X096270Y-075000
X093730Y-075000
X076270Y-075000
X073730Y-075000
X066270Y-075000
X063730Y-075000
X056270Y-075000
X053730Y-075000
T05
X007540Y-085000
X005000Y-085000
X002460Y-085000
X017540Y-085000
X015000Y-085000
X012460Y-085000
X027540Y-085000
X025000Y-085000
X022460Y-085000
X037540Y-085000
X035000Y-085000
X032460Y-085000
X047540Y-085000
X045000Y-085000
X042460Y-085000
X057540Y-085000
X055000Y-085000
X052460Y-085000
X067540Y-085000
X065000Y-085000
X062460Y-085000
X077540Y-085000
X075000Y-085000
X072460Y-085000
X087540Y-085000
X085000Y-085000
X082460Y-085000
X097540Y-085000
X095000Y-085000
X092460Y-085000
X007540Y-095000
X005000Y-095000
X002460Y-095000
X017540Y-095000
X015000Y-095000
X012460Y-095000
X027540Y-095000
X025000Y-095000
X022460Y-095000
X037540Y-095000
X035000Y-095000
X032460Y-095000
X047540Y-095000
X045000Y-095000
X042460Y-095000
X057540Y-095000
X055000Y-095000
X052460Y-095000
X067540Y-095000
X065000Y-095000
X062460Y-095000
X077540Y-095000
X075000Y-095000
X072460Y-095000
X087540Y-095000
X085000Y-095000
X082460Y-095000
X097540Y-095000
X095000Y-095000
X092460Y-095000
T06
X005000Y-024920
X005000Y-027460
X005000Y-030000
X005000Y-032540
X005000Y-035080
X095000Y-024920
X095000Y-027460
X095000Y-030000
X095000Y-032540
X095000Y-035080
T07
X005225Y-003301
X017264Y-003301
X033225Y-003301
X045264Y-003301
X055225Y-003301
X067264Y-003301
X083225Y-003301
X095264Y-003301
M30
