G04 Layer: BottomLayer*
G04 EasyEDA v6.5.15, 2022-10-09 18:36:16*
G04 2a5d3d0542d34b858b2f245c142da422,939f56e90c3d43cda586b760d259c3b5,10*
G04 Gerber Generator version 0.2*
G04 Scale: 100 percent, Rotated: No, Reflected: No *
G04 Dimensions in millimeters *
G04 leading zeros omitted , absolute positions ,4 integer and 5 decimal *
%FSLAX45Y45*%
%MOMM*%

%ADD10C,0.2540*%
%ADD11C,0.4000*%
%ADD12R,1.9304X1.9304*%
%ADD13R,1.6510X1.6510*%
%ADD14C,1.6510*%
%ADD15C,3.8100*%
%ADD16C,1.5748*%
%ADD17R,1.5748X1.5748*%
%ADD18C,1.5240*%
%ADD19R,2.0000X1.5240*%
%ADD20C,2.0000*%
%ADD21C,0.6100*%
%ADD22C,0.0120*%

%LPD*%
G36*
X36068Y-9974072D02*
G01*
X32156Y-9973310D01*
X28905Y-9971074D01*
X26670Y-9967823D01*
X25908Y-9963912D01*
X25908Y-36068D01*
X26670Y-32156D01*
X28905Y-28905D01*
X32156Y-26670D01*
X36068Y-25908D01*
X4963922Y-25908D01*
X4967833Y-26670D01*
X4971084Y-28905D01*
X4973320Y-32156D01*
X4974082Y-36068D01*
X4974082Y-9963912D01*
X4973320Y-9967823D01*
X4971084Y-9971074D01*
X4967833Y-9973310D01*
X4963922Y-9974072D01*
G37*

%LPC*%
G36*
X1446784Y-9658908D02*
G01*
X2785262Y-9658908D01*
X2793288Y-9658096D01*
X2800502Y-9655911D01*
X2807157Y-9652355D01*
X2813405Y-9647224D01*
X3909263Y-8551367D01*
X3914394Y-8545169D01*
X3917950Y-8538464D01*
X3920134Y-8531250D01*
X3920947Y-8523224D01*
X3920947Y-4373372D01*
X3921709Y-4369511D01*
X3923893Y-4366209D01*
X3948887Y-4341215D01*
X3952189Y-4338980D01*
X3956100Y-4338218D01*
X3959961Y-4338980D01*
X3963263Y-4341215D01*
X3965448Y-4344517D01*
X3966260Y-4348378D01*
X3966260Y-8614257D01*
X3965448Y-8618169D01*
X3963263Y-8621471D01*
X3219043Y-9365691D01*
X3213912Y-9371888D01*
X3210356Y-9378594D01*
X3207105Y-9389719D01*
X3204870Y-9392716D01*
X3201670Y-9394647D01*
X3198012Y-9395358D01*
X3167837Y-9395358D01*
X3161487Y-9396069D01*
X3156051Y-9397949D01*
X3151124Y-9401048D01*
X3147060Y-9405112D01*
X3143961Y-9410039D01*
X3142081Y-9415475D01*
X3141370Y-9421825D01*
X3141370Y-9578136D01*
X3142081Y-9584486D01*
X3143961Y-9589922D01*
X3147060Y-9594850D01*
X3151124Y-9598914D01*
X3156051Y-9602012D01*
X3161487Y-9603892D01*
X3167837Y-9604654D01*
X3324148Y-9604654D01*
X3330498Y-9603892D01*
X3335934Y-9602012D01*
X3340862Y-9598914D01*
X3344926Y-9594850D01*
X3348024Y-9589922D01*
X3349904Y-9584486D01*
X3350666Y-9578136D01*
X3350666Y-9421825D01*
X3349904Y-9415475D01*
X3348024Y-9410039D01*
X3344926Y-9405112D01*
X3340862Y-9401048D01*
X3335934Y-9397949D01*
X3330498Y-9396069D01*
X3323132Y-9395358D01*
X3319221Y-9394545D01*
X3315919Y-9392361D01*
X3313734Y-9389059D01*
X3312972Y-9385198D01*
X3313734Y-9381286D01*
X3315919Y-9377984D01*
X4031792Y-8662111D01*
X4036923Y-8655913D01*
X4040835Y-8648598D01*
X4043730Y-8645194D01*
X4047794Y-8643416D01*
X4052265Y-8643518D01*
X4056227Y-8645499D01*
X4058970Y-8649004D01*
X4059936Y-8653373D01*
X4059936Y-9245396D01*
X4060748Y-9253423D01*
X4062933Y-9260636D01*
X4066489Y-9267291D01*
X4071620Y-9273540D01*
X4176064Y-9377984D01*
X4178249Y-9381286D01*
X4179011Y-9385198D01*
X4178249Y-9389059D01*
X4176064Y-9392361D01*
X4172762Y-9394545D01*
X4167835Y-9395358D01*
X4161485Y-9396069D01*
X4156049Y-9397949D01*
X4151122Y-9401048D01*
X4147058Y-9405112D01*
X4143959Y-9410039D01*
X4142079Y-9415475D01*
X4141368Y-9421825D01*
X4141368Y-9578136D01*
X4142079Y-9584486D01*
X4143959Y-9589922D01*
X4147058Y-9594850D01*
X4151122Y-9598914D01*
X4156049Y-9602012D01*
X4161485Y-9603892D01*
X4167835Y-9604654D01*
X4324146Y-9604654D01*
X4330496Y-9603892D01*
X4335932Y-9602012D01*
X4340860Y-9598914D01*
X4344924Y-9594850D01*
X4348022Y-9589922D01*
X4349902Y-9584486D01*
X4350664Y-9578136D01*
X4350664Y-9421825D01*
X4349902Y-9415475D01*
X4348022Y-9410039D01*
X4344924Y-9405112D01*
X4340860Y-9401048D01*
X4335932Y-9397949D01*
X4330496Y-9396069D01*
X4324146Y-9395358D01*
X4293971Y-9395358D01*
X4290314Y-9394647D01*
X4287113Y-9392716D01*
X4284878Y-9389719D01*
X4281627Y-9378594D01*
X4278071Y-9371888D01*
X4272940Y-9365691D01*
X4140149Y-9232849D01*
X4137914Y-9229547D01*
X4137151Y-9225686D01*
X4137151Y-8608517D01*
X4138066Y-8604300D01*
X4140606Y-8600897D01*
X4144365Y-8598814D01*
X4148683Y-8598458D01*
X4152696Y-8599932D01*
X4156049Y-8602014D01*
X4161485Y-8603894D01*
X4167835Y-8604656D01*
X4324146Y-8604656D01*
X4330496Y-8603894D01*
X4335932Y-8602014D01*
X4340860Y-8598916D01*
X4344924Y-8594852D01*
X4348022Y-8589924D01*
X4349902Y-8584488D01*
X4350664Y-8578138D01*
X4350664Y-8421827D01*
X4349902Y-8415477D01*
X4348022Y-8410041D01*
X4344924Y-8405114D01*
X4340860Y-8401050D01*
X4335932Y-8397951D01*
X4330496Y-8396071D01*
X4324146Y-8395360D01*
X4167835Y-8395360D01*
X4161485Y-8396071D01*
X4156049Y-8397951D01*
X4152696Y-8400034D01*
X4148683Y-8401507D01*
X4144365Y-8401151D01*
X4140606Y-8399068D01*
X4138066Y-8395665D01*
X4137151Y-8391448D01*
X4137151Y-7690103D01*
X4138015Y-7685989D01*
X4140454Y-7682585D01*
X4144060Y-7680452D01*
X4148226Y-7679994D01*
X4158996Y-7680959D01*
X4168800Y-7680096D01*
X4178300Y-7677556D01*
X4187190Y-7673390D01*
X4195216Y-7667752D01*
X4202176Y-7660792D01*
X4207814Y-7652766D01*
X4211980Y-7643875D01*
X4214520Y-7634376D01*
X4215384Y-7624572D01*
X4214520Y-7614767D01*
X4211980Y-7605268D01*
X4207814Y-7596378D01*
X4202176Y-7588351D01*
X4200601Y-7586725D01*
X4198366Y-7583424D01*
X4197604Y-7579563D01*
X4197604Y-7224064D01*
X4198366Y-7220203D01*
X4200601Y-7216902D01*
X4342688Y-7074763D01*
X4347819Y-7068515D01*
X4351375Y-7061860D01*
X4353560Y-7054646D01*
X4354372Y-7046620D01*
X4354372Y-4398772D01*
X4353560Y-4390745D01*
X4351375Y-4383532D01*
X4347819Y-4376826D01*
X4342688Y-4370628D01*
X4302099Y-4329988D01*
X4299966Y-4326890D01*
X4299153Y-4323232D01*
X4299712Y-4319473D01*
X4301947Y-4312970D01*
X4304690Y-4299610D01*
X4305604Y-4285996D01*
X4304690Y-4272381D01*
X4301947Y-4259021D01*
X4297476Y-4246118D01*
X4291330Y-4233976D01*
X4283608Y-4222750D01*
X4274464Y-4212590D01*
X4264507Y-4204157D01*
X4261815Y-4200652D01*
X4260900Y-4196334D01*
X4261866Y-4192066D01*
X4264609Y-4188561D01*
X4267809Y-4185920D01*
X4335221Y-4118508D01*
X4340352Y-4112260D01*
X4343908Y-4105605D01*
X4346092Y-4098391D01*
X4346905Y-4090365D01*
X4346905Y-3375304D01*
X4346092Y-3367278D01*
X4343908Y-3360064D01*
X4340352Y-3353358D01*
X4335221Y-3347161D01*
X4302099Y-3313988D01*
X4299966Y-3310890D01*
X4299153Y-3307232D01*
X4299712Y-3303473D01*
X4301947Y-3296970D01*
X4304690Y-3283610D01*
X4305604Y-3269996D01*
X4304690Y-3256381D01*
X4301947Y-3243021D01*
X4297476Y-3230118D01*
X4291330Y-3217976D01*
X4283608Y-3206750D01*
X4274464Y-3196590D01*
X4264050Y-3187801D01*
X4252569Y-3180486D01*
X4240174Y-3174746D01*
X4227169Y-3170682D01*
X4213707Y-3168446D01*
X4200093Y-3167989D01*
X4186529Y-3169310D01*
X4173270Y-3172510D01*
X4160520Y-3177387D01*
X4148582Y-3183940D01*
X4137609Y-3192018D01*
X4127804Y-3201517D01*
X4119321Y-3212236D01*
X4112361Y-3223971D01*
X4107078Y-3236518D01*
X4103471Y-3249676D01*
X4101642Y-3263188D01*
X4101642Y-3276803D01*
X4103471Y-3290315D01*
X4107078Y-3303473D01*
X4112361Y-3316020D01*
X4119321Y-3327755D01*
X4127804Y-3338474D01*
X4137609Y-3347974D01*
X4148582Y-3356051D01*
X4160520Y-3362604D01*
X4173270Y-3367481D01*
X4186529Y-3370681D01*
X4200093Y-3372002D01*
X4213707Y-3371545D01*
X4227169Y-3369310D01*
X4237380Y-3366160D01*
X4240987Y-3365703D01*
X4244543Y-3366566D01*
X4247540Y-3368649D01*
X4266692Y-3387801D01*
X4268927Y-3391103D01*
X4269689Y-3395014D01*
X4269689Y-3426866D01*
X4268774Y-3431082D01*
X4266184Y-3434537D01*
X4262424Y-3436620D01*
X4258106Y-3436924D01*
X4254042Y-3435451D01*
X4252569Y-3434486D01*
X4240174Y-3428746D01*
X4227169Y-3424682D01*
X4213707Y-3422446D01*
X4200093Y-3421989D01*
X4186529Y-3423310D01*
X4173270Y-3426510D01*
X4160520Y-3431387D01*
X4148582Y-3437940D01*
X4137609Y-3446018D01*
X4127804Y-3455517D01*
X4119321Y-3466236D01*
X4112361Y-3477971D01*
X4107078Y-3490518D01*
X4103471Y-3503676D01*
X4101642Y-3517188D01*
X4101642Y-3530803D01*
X4103471Y-3544315D01*
X4107078Y-3557473D01*
X4112361Y-3570020D01*
X4119321Y-3581755D01*
X4127804Y-3592474D01*
X4137609Y-3601974D01*
X4148582Y-3610051D01*
X4160520Y-3616604D01*
X4173270Y-3621481D01*
X4186529Y-3624681D01*
X4200093Y-3626002D01*
X4213707Y-3625545D01*
X4227169Y-3623310D01*
X4240174Y-3619246D01*
X4252569Y-3613505D01*
X4254042Y-3612540D01*
X4258106Y-3611067D01*
X4262424Y-3611372D01*
X4266184Y-3613454D01*
X4268774Y-3616909D01*
X4269689Y-3621125D01*
X4269689Y-3680866D01*
X4268774Y-3685082D01*
X4266184Y-3688537D01*
X4262424Y-3690620D01*
X4258106Y-3690924D01*
X4254042Y-3689451D01*
X4252569Y-3688486D01*
X4240174Y-3682746D01*
X4227169Y-3678682D01*
X4213707Y-3676446D01*
X4200093Y-3675989D01*
X4186529Y-3677310D01*
X4173270Y-3680510D01*
X4160520Y-3685387D01*
X4148582Y-3691940D01*
X4137609Y-3700018D01*
X4127804Y-3709517D01*
X4119321Y-3720236D01*
X4112361Y-3731971D01*
X4107078Y-3744518D01*
X4103471Y-3757676D01*
X4101642Y-3771188D01*
X4101642Y-3784803D01*
X4103471Y-3798315D01*
X4107078Y-3811473D01*
X4112361Y-3824020D01*
X4119321Y-3835755D01*
X4127804Y-3846474D01*
X4137609Y-3855974D01*
X4148582Y-3864051D01*
X4160520Y-3870604D01*
X4173270Y-3875481D01*
X4186529Y-3878681D01*
X4200093Y-3880002D01*
X4213707Y-3879545D01*
X4227169Y-3877310D01*
X4240174Y-3873246D01*
X4252569Y-3867505D01*
X4254042Y-3866540D01*
X4258106Y-3865067D01*
X4262424Y-3865372D01*
X4266184Y-3867454D01*
X4268774Y-3870909D01*
X4269689Y-3875125D01*
X4269689Y-3934866D01*
X4268774Y-3939082D01*
X4266184Y-3942537D01*
X4262424Y-3944620D01*
X4258106Y-3944924D01*
X4254042Y-3943451D01*
X4252569Y-3942486D01*
X4240174Y-3936746D01*
X4227169Y-3932682D01*
X4213707Y-3930446D01*
X4200093Y-3929989D01*
X4186529Y-3931310D01*
X4173270Y-3934510D01*
X4160520Y-3939387D01*
X4148582Y-3945940D01*
X4137609Y-3954018D01*
X4127804Y-3963517D01*
X4119321Y-3974236D01*
X4112361Y-3985971D01*
X4107078Y-3998518D01*
X4103471Y-4011676D01*
X4101642Y-4025188D01*
X4101642Y-4038803D01*
X4103471Y-4052315D01*
X4107332Y-4066286D01*
X4107637Y-4069842D01*
X4106722Y-4073296D01*
X4104690Y-4076192D01*
X3855364Y-4325518D01*
X3850233Y-4331766D01*
X3846677Y-4338421D01*
X3844493Y-4345635D01*
X3843731Y-4353661D01*
X3843731Y-8417356D01*
X3842969Y-8421166D01*
X3840886Y-8424418D01*
X3837736Y-8426602D01*
X3833977Y-8427516D01*
X3830167Y-8426958D01*
X3826865Y-8425027D01*
X3817670Y-8417001D01*
X3806291Y-8409381D01*
X3794048Y-8403336D01*
X3781094Y-8398916D01*
X3767632Y-8396274D01*
X3754018Y-8395360D01*
X3740353Y-8396274D01*
X3726891Y-8398916D01*
X3713937Y-8403336D01*
X3701694Y-8409381D01*
X3690315Y-8417001D01*
X3680002Y-8425992D01*
X3671011Y-8436305D01*
X3663391Y-8447684D01*
X3657346Y-8459927D01*
X3652926Y-8472881D01*
X3650284Y-8486343D01*
X3649370Y-8500008D01*
X3650284Y-8513622D01*
X3652926Y-8527084D01*
X3657346Y-8540038D01*
X3663391Y-8552281D01*
X3671011Y-8563660D01*
X3680002Y-8573973D01*
X3690315Y-8582964D01*
X3701694Y-8590584D01*
X3713937Y-8596630D01*
X3726891Y-8601049D01*
X3731869Y-8602980D01*
X3734765Y-8606231D01*
X3735984Y-8610396D01*
X3735425Y-8614714D01*
X3733088Y-8618372D01*
X2872384Y-9479076D01*
X2868726Y-9481413D01*
X2864408Y-9481972D01*
X2860243Y-9480753D01*
X2856992Y-9477857D01*
X2855061Y-9472879D01*
X2850642Y-9459925D01*
X2844596Y-9447682D01*
X2836976Y-9436303D01*
X2827985Y-9425990D01*
X2817672Y-9416999D01*
X2806293Y-9409379D01*
X2794050Y-9403334D01*
X2781096Y-9398914D01*
X2767634Y-9396272D01*
X2754020Y-9395358D01*
X2740355Y-9396272D01*
X2726893Y-9398914D01*
X2713939Y-9403334D01*
X2701696Y-9409379D01*
X2690317Y-9416999D01*
X2680004Y-9425990D01*
X2671013Y-9436303D01*
X2663393Y-9447682D01*
X2657348Y-9459925D01*
X2652928Y-9472879D01*
X2650286Y-9486341D01*
X2649372Y-9500006D01*
X2650286Y-9513620D01*
X2652928Y-9527082D01*
X2657348Y-9540036D01*
X2663393Y-9552279D01*
X2673959Y-9568180D01*
X2674518Y-9571990D01*
X2673604Y-9575749D01*
X2671419Y-9578848D01*
X2668168Y-9580981D01*
X2664358Y-9581692D01*
X2589631Y-9581692D01*
X2585821Y-9580981D01*
X2582570Y-9578848D01*
X2580386Y-9575749D01*
X2579471Y-9571990D01*
X2580030Y-9568180D01*
X2590596Y-9552279D01*
X2593848Y-9545726D01*
X2545740Y-9545726D01*
X2545740Y-9571532D01*
X2544927Y-9575444D01*
X2542743Y-9578695D01*
X2539441Y-9580930D01*
X2535580Y-9581692D01*
X2464409Y-9581692D01*
X2460548Y-9580930D01*
X2457246Y-9578695D01*
X2455062Y-9575444D01*
X2454300Y-9571532D01*
X2454300Y-9545726D01*
X2406142Y-9545726D01*
X2409393Y-9552279D01*
X2419959Y-9568180D01*
X2420518Y-9571990D01*
X2419604Y-9575749D01*
X2417419Y-9578848D01*
X2414168Y-9580981D01*
X2410358Y-9581692D01*
X2360777Y-9581692D01*
X2356916Y-9580930D01*
X2353614Y-9578695D01*
X2351430Y-9575444D01*
X2350668Y-9571532D01*
X2350668Y-9421825D01*
X2349906Y-9415475D01*
X2348026Y-9410039D01*
X2344928Y-9405112D01*
X2340864Y-9401048D01*
X2335936Y-9397949D01*
X2330500Y-9396069D01*
X2323134Y-9395358D01*
X2319223Y-9394545D01*
X2315921Y-9392361D01*
X2313736Y-9389059D01*
X2312974Y-9385198D01*
X2313736Y-9381286D01*
X2315921Y-9377984D01*
X2653588Y-9040317D01*
X2658719Y-9034068D01*
X2662275Y-9027414D01*
X2664460Y-9020200D01*
X2665272Y-9012174D01*
X2665272Y-8583472D01*
X2665984Y-8579662D01*
X2668117Y-8576411D01*
X2671216Y-8574227D01*
X2674975Y-8573312D01*
X2678785Y-8573871D01*
X2682138Y-8575802D01*
X2690317Y-8582964D01*
X2701696Y-8590584D01*
X2713939Y-8596630D01*
X2726893Y-8601049D01*
X2740355Y-8603691D01*
X2754020Y-8604605D01*
X2767634Y-8603691D01*
X2781096Y-8601049D01*
X2794050Y-8596630D01*
X2806293Y-8590584D01*
X2817672Y-8582964D01*
X2827985Y-8573973D01*
X2836976Y-8563660D01*
X2844596Y-8552281D01*
X2850642Y-8540038D01*
X2855061Y-8527084D01*
X2857703Y-8513622D01*
X2858617Y-8500008D01*
X2857703Y-8486343D01*
X2855061Y-8472881D01*
X2850642Y-8459927D01*
X2844596Y-8447684D01*
X2836976Y-8436305D01*
X2827985Y-8425992D01*
X2817672Y-8417001D01*
X2806293Y-8409381D01*
X2794050Y-8403336D01*
X2781096Y-8398916D01*
X2767634Y-8396274D01*
X2754020Y-8395360D01*
X2740355Y-8396274D01*
X2726893Y-8398916D01*
X2713939Y-8403336D01*
X2701696Y-8409381D01*
X2690317Y-8417001D01*
X2682138Y-8424164D01*
X2678785Y-8426094D01*
X2674975Y-8426653D01*
X2671216Y-8425738D01*
X2668117Y-8423554D01*
X2665984Y-8420303D01*
X2665272Y-8416493D01*
X2665272Y-7935315D01*
X2666034Y-7931454D01*
X2668270Y-7928152D01*
X3444036Y-7152335D01*
X3447338Y-7150150D01*
X3451250Y-7149388D01*
X3455111Y-7150150D01*
X3458413Y-7152335D01*
X3460597Y-7155637D01*
X3461359Y-7159548D01*
X3461359Y-7367422D01*
X3460597Y-7371283D01*
X3458413Y-7374585D01*
X3455111Y-7376769D01*
X3451250Y-7377582D01*
X3277057Y-7377582D01*
X3270707Y-7378293D01*
X3265271Y-7380173D01*
X3260344Y-7383272D01*
X3256279Y-7387336D01*
X3253181Y-7392263D01*
X3251301Y-7397699D01*
X3250590Y-7404049D01*
X3250590Y-7595920D01*
X3251301Y-7602270D01*
X3253181Y-7607706D01*
X3256279Y-7612634D01*
X3260344Y-7616698D01*
X3265271Y-7619796D01*
X3270707Y-7621676D01*
X3277057Y-7622438D01*
X3451250Y-7622438D01*
X3455111Y-7623200D01*
X3458413Y-7625384D01*
X3460597Y-7628686D01*
X3461359Y-7632598D01*
X3461359Y-8396274D01*
X3460699Y-8399983D01*
X3458718Y-8403183D01*
X3455720Y-8405418D01*
X3447694Y-8409381D01*
X3436315Y-8417001D01*
X3426002Y-8425992D01*
X3417011Y-8436305D01*
X3409391Y-8447684D01*
X3403346Y-8459927D01*
X3398926Y-8472881D01*
X3396284Y-8486343D01*
X3395370Y-8500008D01*
X3396284Y-8513622D01*
X3398926Y-8527084D01*
X3403346Y-8540038D01*
X3409391Y-8552281D01*
X3417011Y-8563660D01*
X3426002Y-8573973D01*
X3436315Y-8582964D01*
X3447694Y-8590584D01*
X3459937Y-8596630D01*
X3472891Y-8601049D01*
X3486353Y-8603691D01*
X3500018Y-8604605D01*
X3513632Y-8603691D01*
X3527094Y-8601049D01*
X3540048Y-8596630D01*
X3552291Y-8590584D01*
X3563670Y-8582964D01*
X3573983Y-8573973D01*
X3582974Y-8563660D01*
X3590594Y-8552281D01*
X3596640Y-8540038D01*
X3601059Y-8527084D01*
X3603701Y-8513622D01*
X3604615Y-8500008D01*
X3603701Y-8486343D01*
X3601059Y-8472881D01*
X3596640Y-8459927D01*
X3590594Y-8447684D01*
X3582974Y-8436305D01*
X3573983Y-8425992D01*
X3563670Y-8417001D01*
X3552291Y-8409381D01*
X3544265Y-8405418D01*
X3541268Y-8403183D01*
X3539286Y-8399983D01*
X3538575Y-8396274D01*
X3538575Y-7632598D01*
X3539388Y-7628686D01*
X3541572Y-7625384D01*
X3544874Y-7623200D01*
X3548786Y-7622438D01*
X3722928Y-7622438D01*
X3729278Y-7621676D01*
X3734714Y-7619796D01*
X3739642Y-7616698D01*
X3743706Y-7612634D01*
X3746804Y-7607706D01*
X3748684Y-7602270D01*
X3749446Y-7595920D01*
X3749446Y-7404049D01*
X3748684Y-7397699D01*
X3746804Y-7392263D01*
X3743706Y-7387336D01*
X3739642Y-7383272D01*
X3734714Y-7380173D01*
X3729278Y-7378293D01*
X3722928Y-7377582D01*
X3548786Y-7377582D01*
X3544874Y-7376769D01*
X3541572Y-7374585D01*
X3539388Y-7371283D01*
X3538575Y-7367422D01*
X3538575Y-4450486D01*
X3539236Y-4446981D01*
X3540963Y-4443933D01*
X3547262Y-4436465D01*
X3550818Y-4429810D01*
X3553002Y-4422597D01*
X3553764Y-4414570D01*
X3553764Y-3826662D01*
X3554577Y-3822801D01*
X3556762Y-3819499D01*
X3558387Y-3817874D01*
X3563975Y-3809847D01*
X3568141Y-3800957D01*
X3570681Y-3791458D01*
X3571544Y-3781653D01*
X3570681Y-3771849D01*
X3568141Y-3762349D01*
X3563975Y-3753459D01*
X3558387Y-3745433D01*
X3551428Y-3738473D01*
X3543350Y-3732834D01*
X3534460Y-3728669D01*
X3524961Y-3726129D01*
X3515207Y-3725265D01*
X3505403Y-3726129D01*
X3495903Y-3728669D01*
X3487013Y-3732834D01*
X3478936Y-3738473D01*
X3471976Y-3745433D01*
X3466388Y-3753459D01*
X3462223Y-3762349D01*
X3459683Y-3771849D01*
X3458819Y-3781653D01*
X3459683Y-3791458D01*
X3462223Y-3800957D01*
X3466388Y-3809847D01*
X3471976Y-3817874D01*
X3473602Y-3819499D01*
X3475786Y-3822801D01*
X3476548Y-3826662D01*
X3476548Y-4325061D01*
X3475736Y-4329176D01*
X3473297Y-4332579D01*
X3469690Y-4334713D01*
X3465525Y-4335221D01*
X3456635Y-4334408D01*
X3447694Y-4335221D01*
X3443528Y-4334713D01*
X3439922Y-4332579D01*
X3437483Y-4329176D01*
X3436670Y-4325061D01*
X3436670Y-3079648D01*
X3437432Y-3075787D01*
X3439617Y-3072485D01*
X4159453Y-2352649D01*
X4162653Y-2350465D01*
X4166463Y-2349652D01*
X4170273Y-2350363D01*
X4173270Y-2351481D01*
X4186529Y-2354681D01*
X4200093Y-2356002D01*
X4213707Y-2355545D01*
X4227169Y-2353310D01*
X4240174Y-2349246D01*
X4252569Y-2343505D01*
X4264050Y-2336190D01*
X4274464Y-2327402D01*
X4283608Y-2317242D01*
X4291330Y-2306015D01*
X4297476Y-2293874D01*
X4301947Y-2280970D01*
X4304690Y-2267610D01*
X4305604Y-2253996D01*
X4304690Y-2240381D01*
X4301947Y-2227021D01*
X4297476Y-2214118D01*
X4291330Y-2201976D01*
X4283608Y-2190750D01*
X4274464Y-2180590D01*
X4264050Y-2171801D01*
X4252569Y-2164486D01*
X4240174Y-2158746D01*
X4227169Y-2154682D01*
X4213707Y-2152446D01*
X4200093Y-2151989D01*
X4186529Y-2153310D01*
X4173270Y-2156510D01*
X4160520Y-2161387D01*
X4148582Y-2167940D01*
X4137609Y-2176018D01*
X4127804Y-2185517D01*
X4119321Y-2196236D01*
X4112361Y-2207971D01*
X4107078Y-2220518D01*
X4103471Y-2233676D01*
X4101642Y-2247188D01*
X4101642Y-2260803D01*
X4103471Y-2274316D01*
X4107332Y-2288286D01*
X4107637Y-2291842D01*
X4106722Y-2295296D01*
X4104690Y-2298192D01*
X3371087Y-3031794D01*
X3365957Y-3038043D01*
X3362401Y-3044698D01*
X3360216Y-3051911D01*
X3359454Y-3059938D01*
X3359454Y-5330291D01*
X3358642Y-5334203D01*
X3356457Y-5337505D01*
X1346047Y-7347915D01*
X1340916Y-7354112D01*
X1337360Y-7360818D01*
X1334109Y-7371943D01*
X1331874Y-7374940D01*
X1328674Y-7376871D01*
X1325016Y-7377582D01*
X1286306Y-7377582D01*
X1282395Y-7376769D01*
X1279093Y-7374585D01*
X1276908Y-7371283D01*
X1276146Y-7367422D01*
X1276146Y-7264603D01*
X1276908Y-7260742D01*
X1279093Y-7257440D01*
X1736496Y-6799986D01*
X1741627Y-6793788D01*
X1745183Y-6787083D01*
X1747367Y-6779869D01*
X1748180Y-6771843D01*
X1748180Y-3124454D01*
X1747367Y-3116427D01*
X1745183Y-3109214D01*
X1741627Y-3102559D01*
X1736496Y-3096310D01*
X1700225Y-3059988D01*
X1698091Y-3056890D01*
X1697228Y-3053232D01*
X1697786Y-3049473D01*
X1700072Y-3042970D01*
X1702765Y-3029610D01*
X1703679Y-3015996D01*
X1702765Y-3002381D01*
X1700072Y-2989021D01*
X1695602Y-2976118D01*
X1689455Y-2963976D01*
X1681734Y-2952750D01*
X1672589Y-2942590D01*
X1662175Y-2933801D01*
X1650644Y-2926486D01*
X1638300Y-2920746D01*
X1625244Y-2916682D01*
X1611833Y-2914446D01*
X1598168Y-2913989D01*
X1584604Y-2915310D01*
X1571345Y-2918510D01*
X1558645Y-2923387D01*
X1546656Y-2929940D01*
X1535684Y-2938018D01*
X1525879Y-2947517D01*
X1517446Y-2958236D01*
X1510487Y-2969971D01*
X1505153Y-2982518D01*
X1501546Y-2995676D01*
X1499717Y-3009188D01*
X1499717Y-3022803D01*
X1501546Y-3036316D01*
X1505153Y-3049473D01*
X1510487Y-3062020D01*
X1517446Y-3073755D01*
X1525879Y-3084474D01*
X1535684Y-3093974D01*
X1546656Y-3102051D01*
X1558645Y-3108604D01*
X1571345Y-3113481D01*
X1584604Y-3116681D01*
X1598168Y-3118002D01*
X1611833Y-3117545D01*
X1625244Y-3115310D01*
X1635455Y-3112160D01*
X1639112Y-3111703D01*
X1642668Y-3112566D01*
X1645666Y-3114649D01*
X1667967Y-3137001D01*
X1670202Y-3140303D01*
X1670964Y-3144164D01*
X1670964Y-3174898D01*
X1670050Y-3179114D01*
X1667459Y-3182569D01*
X1663700Y-3184652D01*
X1659382Y-3184956D01*
X1655318Y-3183483D01*
X1650644Y-3180486D01*
X1638300Y-3174746D01*
X1625244Y-3170682D01*
X1611833Y-3168446D01*
X1598168Y-3167989D01*
X1584604Y-3169310D01*
X1571345Y-3172510D01*
X1558645Y-3177387D01*
X1546656Y-3183940D01*
X1535684Y-3192018D01*
X1525879Y-3201517D01*
X1517446Y-3212236D01*
X1510487Y-3223971D01*
X1505153Y-3236518D01*
X1501546Y-3249676D01*
X1499717Y-3263188D01*
X1499717Y-3276803D01*
X1501546Y-3290315D01*
X1505153Y-3303473D01*
X1510487Y-3316020D01*
X1517446Y-3327755D01*
X1525879Y-3338474D01*
X1535684Y-3347974D01*
X1546656Y-3356051D01*
X1558645Y-3362604D01*
X1571345Y-3367481D01*
X1584604Y-3370681D01*
X1598168Y-3372002D01*
X1611833Y-3371545D01*
X1625244Y-3369310D01*
X1638300Y-3365246D01*
X1650644Y-3359505D01*
X1655318Y-3356508D01*
X1659382Y-3355035D01*
X1663700Y-3355340D01*
X1667459Y-3357422D01*
X1670050Y-3360877D01*
X1670964Y-3365093D01*
X1670964Y-3428898D01*
X1670050Y-3433114D01*
X1667459Y-3436569D01*
X1663700Y-3438651D01*
X1659382Y-3438956D01*
X1655318Y-3437483D01*
X1650644Y-3434486D01*
X1638300Y-3428746D01*
X1625244Y-3424682D01*
X1611833Y-3422446D01*
X1598168Y-3421989D01*
X1584604Y-3423310D01*
X1571345Y-3426510D01*
X1558645Y-3431387D01*
X1546656Y-3437940D01*
X1535684Y-3446018D01*
X1525879Y-3455517D01*
X1517446Y-3466236D01*
X1510487Y-3477971D01*
X1505153Y-3490518D01*
X1501546Y-3503676D01*
X1499717Y-3517188D01*
X1499717Y-3530803D01*
X1501546Y-3544315D01*
X1505153Y-3557473D01*
X1510487Y-3570020D01*
X1517446Y-3581755D01*
X1525879Y-3592474D01*
X1535684Y-3601974D01*
X1546656Y-3610051D01*
X1558645Y-3616604D01*
X1571345Y-3621481D01*
X1584604Y-3624681D01*
X1598168Y-3626002D01*
X1611833Y-3625545D01*
X1625244Y-3623310D01*
X1638300Y-3619246D01*
X1650644Y-3613505D01*
X1655318Y-3610508D01*
X1659382Y-3609035D01*
X1663700Y-3609340D01*
X1667459Y-3611422D01*
X1670050Y-3614877D01*
X1670964Y-3619093D01*
X1670964Y-3682898D01*
X1670050Y-3687114D01*
X1667459Y-3690569D01*
X1663700Y-3692651D01*
X1659382Y-3692956D01*
X1655318Y-3691483D01*
X1650644Y-3688486D01*
X1638300Y-3682746D01*
X1625244Y-3678682D01*
X1611833Y-3676446D01*
X1598168Y-3675989D01*
X1584604Y-3677310D01*
X1571345Y-3680510D01*
X1558645Y-3685387D01*
X1546656Y-3691940D01*
X1535684Y-3700018D01*
X1525879Y-3709517D01*
X1517446Y-3720236D01*
X1510487Y-3731971D01*
X1505153Y-3744518D01*
X1501546Y-3757676D01*
X1499717Y-3771188D01*
X1499717Y-3784803D01*
X1501546Y-3798315D01*
X1505153Y-3811473D01*
X1510487Y-3824020D01*
X1517446Y-3835755D01*
X1525879Y-3846474D01*
X1535684Y-3855974D01*
X1546656Y-3864051D01*
X1558645Y-3870604D01*
X1571345Y-3875481D01*
X1584604Y-3878681D01*
X1598168Y-3880002D01*
X1611833Y-3879545D01*
X1625244Y-3877310D01*
X1638300Y-3873246D01*
X1650644Y-3867505D01*
X1655318Y-3864508D01*
X1659382Y-3863035D01*
X1663700Y-3863340D01*
X1667459Y-3865422D01*
X1670050Y-3868877D01*
X1670964Y-3873093D01*
X1670964Y-3936898D01*
X1670050Y-3941114D01*
X1667459Y-3944569D01*
X1663700Y-3946651D01*
X1659382Y-3946956D01*
X1655318Y-3945483D01*
X1650644Y-3942486D01*
X1638300Y-3936746D01*
X1625244Y-3932682D01*
X1611833Y-3930446D01*
X1598168Y-3929989D01*
X1584604Y-3931310D01*
X1571345Y-3934510D01*
X1558645Y-3939387D01*
X1546656Y-3945940D01*
X1535684Y-3954018D01*
X1525879Y-3963517D01*
X1517446Y-3974236D01*
X1510487Y-3985971D01*
X1505153Y-3998518D01*
X1501546Y-4011676D01*
X1499717Y-4025188D01*
X1499717Y-4038803D01*
X1501546Y-4052315D01*
X1505153Y-4065473D01*
X1510487Y-4078020D01*
X1517446Y-4089755D01*
X1525879Y-4100474D01*
X1535684Y-4109974D01*
X1546656Y-4118051D01*
X1558645Y-4124604D01*
X1571345Y-4129481D01*
X1584604Y-4132681D01*
X1598168Y-4134002D01*
X1611833Y-4133545D01*
X1625244Y-4131310D01*
X1638300Y-4127246D01*
X1650644Y-4121505D01*
X1655318Y-4118508D01*
X1659382Y-4117035D01*
X1663700Y-4117340D01*
X1667459Y-4119422D01*
X1670050Y-4122877D01*
X1670964Y-4127093D01*
X1670964Y-4190898D01*
X1670050Y-4195114D01*
X1667459Y-4198569D01*
X1663700Y-4200652D01*
X1659382Y-4200956D01*
X1655318Y-4199483D01*
X1650644Y-4196486D01*
X1638300Y-4190746D01*
X1625244Y-4186682D01*
X1611833Y-4184446D01*
X1598168Y-4183989D01*
X1584604Y-4185310D01*
X1571345Y-4188510D01*
X1558645Y-4193387D01*
X1546656Y-4199940D01*
X1535684Y-4208018D01*
X1525879Y-4217517D01*
X1517446Y-4228236D01*
X1510487Y-4239971D01*
X1505153Y-4252518D01*
X1501546Y-4265676D01*
X1499717Y-4279188D01*
X1499717Y-4292803D01*
X1501546Y-4306316D01*
X1505153Y-4319473D01*
X1510487Y-4332020D01*
X1517446Y-4343755D01*
X1525879Y-4354474D01*
X1535684Y-4363974D01*
X1546656Y-4372051D01*
X1558645Y-4378604D01*
X1571345Y-4383481D01*
X1584604Y-4386681D01*
X1598168Y-4388002D01*
X1611833Y-4387545D01*
X1625244Y-4385310D01*
X1638300Y-4381246D01*
X1650644Y-4375505D01*
X1655318Y-4372508D01*
X1659382Y-4371035D01*
X1663700Y-4371340D01*
X1667459Y-4373422D01*
X1670050Y-4376877D01*
X1670964Y-4381093D01*
X1670964Y-4444898D01*
X1670050Y-4449114D01*
X1667459Y-4452569D01*
X1663700Y-4454652D01*
X1659382Y-4454956D01*
X1655318Y-4453483D01*
X1650644Y-4450486D01*
X1638300Y-4444746D01*
X1625244Y-4440682D01*
X1611833Y-4438446D01*
X1598168Y-4437989D01*
X1584604Y-4439310D01*
X1571345Y-4442510D01*
X1558645Y-4447387D01*
X1546656Y-4453940D01*
X1535684Y-4462018D01*
X1525879Y-4471517D01*
X1517446Y-4482236D01*
X1510487Y-4493971D01*
X1505153Y-4506518D01*
X1501546Y-4519676D01*
X1499717Y-4533188D01*
X1499717Y-4546803D01*
X1501546Y-4560316D01*
X1505153Y-4573473D01*
X1510487Y-4586020D01*
X1517446Y-4597755D01*
X1525879Y-4608474D01*
X1535684Y-4617974D01*
X1546656Y-4626051D01*
X1558645Y-4632604D01*
X1571345Y-4637481D01*
X1584604Y-4640681D01*
X1598168Y-4642002D01*
X1611833Y-4641545D01*
X1625244Y-4639310D01*
X1638300Y-4635246D01*
X1650644Y-4629505D01*
X1655318Y-4626508D01*
X1659382Y-4625035D01*
X1663700Y-4625340D01*
X1667459Y-4627422D01*
X1670050Y-4630877D01*
X1670964Y-4635093D01*
X1670964Y-4698898D01*
X1670050Y-4703114D01*
X1667459Y-4706569D01*
X1663700Y-4708652D01*
X1659382Y-4708956D01*
X1655318Y-4707483D01*
X1650644Y-4704486D01*
X1638300Y-4698746D01*
X1625244Y-4694682D01*
X1611833Y-4692446D01*
X1598168Y-4691989D01*
X1584604Y-4693310D01*
X1571345Y-4696510D01*
X1558645Y-4701387D01*
X1546656Y-4707940D01*
X1535684Y-4716018D01*
X1525879Y-4725517D01*
X1517446Y-4736236D01*
X1510487Y-4747971D01*
X1505153Y-4760518D01*
X1501546Y-4773676D01*
X1499717Y-4787188D01*
X1499717Y-4800803D01*
X1501546Y-4814316D01*
X1505153Y-4827473D01*
X1510487Y-4840020D01*
X1517446Y-4851755D01*
X1525879Y-4862474D01*
X1535684Y-4871974D01*
X1546656Y-4880051D01*
X1558645Y-4886604D01*
X1571345Y-4891481D01*
X1584604Y-4894681D01*
X1598168Y-4896002D01*
X1611833Y-4895545D01*
X1625244Y-4893310D01*
X1638300Y-4889246D01*
X1650644Y-4883505D01*
X1655318Y-4880508D01*
X1659382Y-4879035D01*
X1663700Y-4879340D01*
X1667459Y-4881422D01*
X1670050Y-4884877D01*
X1670964Y-4889093D01*
X1670964Y-4952898D01*
X1670050Y-4957114D01*
X1667459Y-4960569D01*
X1663700Y-4962652D01*
X1659382Y-4962956D01*
X1655318Y-4961483D01*
X1650644Y-4958486D01*
X1638300Y-4952746D01*
X1625244Y-4948682D01*
X1611833Y-4946446D01*
X1598168Y-4945989D01*
X1584604Y-4947310D01*
X1571345Y-4950510D01*
X1558645Y-4955387D01*
X1546656Y-4961940D01*
X1535684Y-4970018D01*
X1525879Y-4979517D01*
X1517446Y-4990236D01*
X1510487Y-5001971D01*
X1505153Y-5014518D01*
X1501546Y-5027676D01*
X1499717Y-5041188D01*
X1499717Y-5054803D01*
X1501546Y-5068316D01*
X1505153Y-5081473D01*
X1510487Y-5094020D01*
X1517446Y-5105755D01*
X1525879Y-5116474D01*
X1535684Y-5125974D01*
X1546656Y-5134051D01*
X1558645Y-5140604D01*
X1571345Y-5145481D01*
X1584604Y-5148681D01*
X1598168Y-5150002D01*
X1611833Y-5149545D01*
X1625244Y-5147310D01*
X1638300Y-5143246D01*
X1650644Y-5137505D01*
X1655318Y-5134508D01*
X1659382Y-5133035D01*
X1663700Y-5133340D01*
X1667459Y-5135422D01*
X1670050Y-5138877D01*
X1670964Y-5143093D01*
X1670964Y-5206898D01*
X1670050Y-5211114D01*
X1667459Y-5214569D01*
X1663700Y-5216652D01*
X1659382Y-5216956D01*
X1655318Y-5215483D01*
X1650644Y-5212486D01*
X1638300Y-5206746D01*
X1625244Y-5202682D01*
X1611833Y-5200446D01*
X1598168Y-5199989D01*
X1584604Y-5201310D01*
X1571345Y-5204510D01*
X1558645Y-5209387D01*
X1546656Y-5215940D01*
X1535684Y-5224018D01*
X1525879Y-5233517D01*
X1517446Y-5244236D01*
X1510487Y-5255971D01*
X1505153Y-5268518D01*
X1501546Y-5281676D01*
X1499717Y-5295188D01*
X1499717Y-5308803D01*
X1501546Y-5322316D01*
X1505153Y-5335473D01*
X1510487Y-5348020D01*
X1517446Y-5359755D01*
X1525879Y-5370474D01*
X1535684Y-5379974D01*
X1546656Y-5388051D01*
X1558645Y-5394604D01*
X1571345Y-5399481D01*
X1584604Y-5402681D01*
X1598168Y-5404002D01*
X1611833Y-5403545D01*
X1625244Y-5401310D01*
X1638300Y-5397246D01*
X1650644Y-5391505D01*
X1655318Y-5388508D01*
X1659382Y-5387035D01*
X1663700Y-5387340D01*
X1667459Y-5389422D01*
X1670050Y-5392877D01*
X1670964Y-5397093D01*
X1670964Y-5460898D01*
X1670050Y-5465114D01*
X1667459Y-5468569D01*
X1663700Y-5470652D01*
X1659382Y-5470956D01*
X1655318Y-5469483D01*
X1650644Y-5466486D01*
X1638300Y-5460746D01*
X1625244Y-5456682D01*
X1611833Y-5454446D01*
X1598168Y-5453989D01*
X1584604Y-5455310D01*
X1571345Y-5458510D01*
X1558645Y-5463387D01*
X1546656Y-5469940D01*
X1535684Y-5478018D01*
X1525879Y-5487517D01*
X1517446Y-5498236D01*
X1510487Y-5509971D01*
X1505153Y-5522518D01*
X1501546Y-5535676D01*
X1499717Y-5549188D01*
X1499717Y-5562803D01*
X1501546Y-5576316D01*
X1505153Y-5589473D01*
X1510487Y-5602020D01*
X1517446Y-5613755D01*
X1525879Y-5624474D01*
X1535684Y-5633974D01*
X1546656Y-5642051D01*
X1558645Y-5648604D01*
X1571345Y-5653481D01*
X1584604Y-5656681D01*
X1598168Y-5658002D01*
X1611833Y-5657545D01*
X1625244Y-5655310D01*
X1638300Y-5651246D01*
X1650644Y-5645505D01*
X1655318Y-5642508D01*
X1659382Y-5641035D01*
X1663700Y-5641340D01*
X1667459Y-5643422D01*
X1670050Y-5646877D01*
X1670964Y-5651093D01*
X1670964Y-5714898D01*
X1670050Y-5719114D01*
X1667459Y-5722569D01*
X1663700Y-5724652D01*
X1659382Y-5724956D01*
X1655318Y-5723483D01*
X1650644Y-5720486D01*
X1638300Y-5714746D01*
X1625244Y-5710682D01*
X1611833Y-5708446D01*
X1598168Y-5707989D01*
X1584604Y-5709310D01*
X1571345Y-5712510D01*
X1558645Y-5717387D01*
X1546656Y-5723940D01*
X1535684Y-5732018D01*
X1525879Y-5741517D01*
X1517446Y-5752236D01*
X1510487Y-5763971D01*
X1505153Y-5776518D01*
X1501546Y-5789676D01*
X1499717Y-5803188D01*
X1499717Y-5816803D01*
X1501546Y-5830316D01*
X1505153Y-5843473D01*
X1510487Y-5856020D01*
X1517446Y-5867755D01*
X1525879Y-5878474D01*
X1535684Y-5887974D01*
X1546656Y-5896051D01*
X1558645Y-5902604D01*
X1571345Y-5907481D01*
X1584604Y-5910681D01*
X1598168Y-5912002D01*
X1611833Y-5911545D01*
X1625244Y-5909310D01*
X1638300Y-5905246D01*
X1650644Y-5899505D01*
X1655318Y-5896508D01*
X1659382Y-5895035D01*
X1663700Y-5895340D01*
X1667459Y-5897422D01*
X1670050Y-5900877D01*
X1670964Y-5905093D01*
X1670964Y-5968898D01*
X1670050Y-5973114D01*
X1667459Y-5976569D01*
X1663700Y-5978652D01*
X1659382Y-5978956D01*
X1655318Y-5977483D01*
X1650644Y-5974486D01*
X1638300Y-5968746D01*
X1625244Y-5964682D01*
X1611833Y-5962446D01*
X1598168Y-5961989D01*
X1584604Y-5963310D01*
X1571345Y-5966510D01*
X1558645Y-5971387D01*
X1546656Y-5977940D01*
X1535684Y-5986018D01*
X1525879Y-5995517D01*
X1517446Y-6006236D01*
X1510487Y-6017971D01*
X1505153Y-6030518D01*
X1501546Y-6043676D01*
X1499717Y-6057188D01*
X1499717Y-6070803D01*
X1501546Y-6084316D01*
X1505153Y-6097473D01*
X1510487Y-6110020D01*
X1517446Y-6121755D01*
X1525879Y-6132474D01*
X1535684Y-6141974D01*
X1546656Y-6150051D01*
X1558645Y-6156604D01*
X1571345Y-6161481D01*
X1584604Y-6164681D01*
X1598168Y-6166002D01*
X1611833Y-6165545D01*
X1625244Y-6163310D01*
X1638300Y-6159246D01*
X1650644Y-6153505D01*
X1655318Y-6150508D01*
X1659382Y-6149035D01*
X1663700Y-6149340D01*
X1667459Y-6151422D01*
X1670050Y-6154877D01*
X1670964Y-6159093D01*
X1670964Y-6222898D01*
X1670050Y-6227114D01*
X1667459Y-6230569D01*
X1663700Y-6232652D01*
X1659382Y-6232956D01*
X1655318Y-6231483D01*
X1650644Y-6228486D01*
X1638300Y-6222746D01*
X1625244Y-6218682D01*
X1611833Y-6216446D01*
X1598168Y-6215989D01*
X1584604Y-6217310D01*
X1571345Y-6220510D01*
X1558645Y-6225387D01*
X1546656Y-6231940D01*
X1535684Y-6240018D01*
X1525879Y-6249517D01*
X1517446Y-6260236D01*
X1510487Y-6271971D01*
X1505153Y-6284518D01*
X1501546Y-6297676D01*
X1499717Y-6311188D01*
X1499717Y-6324803D01*
X1501546Y-6338316D01*
X1505153Y-6351473D01*
X1510487Y-6364020D01*
X1517446Y-6375755D01*
X1525879Y-6386474D01*
X1535684Y-6395974D01*
X1546656Y-6404051D01*
X1558645Y-6410604D01*
X1571345Y-6415481D01*
X1584604Y-6418681D01*
X1598168Y-6420002D01*
X1611833Y-6419545D01*
X1625244Y-6417310D01*
X1638300Y-6413246D01*
X1650644Y-6407505D01*
X1655318Y-6404508D01*
X1659382Y-6403035D01*
X1663700Y-6403340D01*
X1667459Y-6405422D01*
X1670050Y-6408877D01*
X1670964Y-6413093D01*
X1670964Y-6476898D01*
X1670050Y-6481114D01*
X1667459Y-6484569D01*
X1663700Y-6486652D01*
X1659382Y-6486956D01*
X1655318Y-6485483D01*
X1650644Y-6482486D01*
X1638300Y-6476746D01*
X1625244Y-6472682D01*
X1611833Y-6470446D01*
X1598168Y-6469989D01*
X1584604Y-6471310D01*
X1574901Y-6473647D01*
X1571447Y-6473850D01*
X1568145Y-6472936D01*
X1565351Y-6470954D01*
X1102969Y-6008573D01*
X1100785Y-6005271D01*
X1100023Y-6001410D01*
X1099972Y-970787D01*
X1098753Y-962050D01*
X1096060Y-954024D01*
X1091946Y-946658D01*
X1086205Y-939749D01*
X1072235Y-925779D01*
X1070051Y-922528D01*
X1069289Y-918616D01*
X1070051Y-914704D01*
X1072235Y-911453D01*
X1075537Y-909218D01*
X1079449Y-908456D01*
X1081989Y-908456D01*
X1088288Y-907745D01*
X1093774Y-905814D01*
X1098651Y-902766D01*
X1102766Y-898652D01*
X1105814Y-893775D01*
X1107744Y-888288D01*
X1108456Y-881989D01*
X1108456Y-718007D01*
X1107744Y-711708D01*
X1105814Y-706221D01*
X1102766Y-701344D01*
X1098651Y-697230D01*
X1093774Y-694182D01*
X1088288Y-692251D01*
X1086104Y-691997D01*
X1081938Y-690575D01*
X1078788Y-687527D01*
X1077214Y-683463D01*
X1077468Y-679043D01*
X1079601Y-675233D01*
X1086002Y-667867D01*
X1093927Y-656082D01*
X1100175Y-643382D01*
X1104747Y-629920D01*
X1107490Y-616051D01*
X1108456Y-601878D01*
X1107490Y-587705D01*
X1104747Y-573836D01*
X1100175Y-560374D01*
X1093927Y-547674D01*
X1086002Y-535889D01*
X1076655Y-525221D01*
X1065987Y-515874D01*
X1054201Y-507949D01*
X1041501Y-501700D01*
X1028039Y-497128D01*
X1014171Y-494385D01*
X999998Y-493420D01*
X985824Y-494385D01*
X971956Y-497128D01*
X958494Y-501700D01*
X945794Y-507949D01*
X934008Y-515874D01*
X923340Y-525221D01*
X913993Y-535889D01*
X906068Y-547674D01*
X899820Y-560374D01*
X895248Y-573836D01*
X892505Y-587705D01*
X891540Y-601878D01*
X892505Y-616051D01*
X895248Y-629920D01*
X899820Y-643382D01*
X906068Y-656082D01*
X913993Y-667867D01*
X920394Y-675233D01*
X922528Y-679043D01*
X922782Y-683463D01*
X921207Y-687527D01*
X918057Y-690575D01*
X913892Y-691997D01*
X911707Y-692251D01*
X906221Y-694182D01*
X901344Y-697230D01*
X897229Y-701344D01*
X894181Y-706221D01*
X892251Y-711708D01*
X891540Y-718007D01*
X891540Y-881989D01*
X892251Y-888288D01*
X894181Y-893775D01*
X897229Y-898652D01*
X901344Y-902766D01*
X906221Y-905814D01*
X911707Y-907745D01*
X918006Y-908456D01*
X943914Y-908456D01*
X947775Y-909218D01*
X951026Y-911352D01*
X953262Y-914552D01*
X954074Y-918362D01*
X954125Y-920242D01*
X955395Y-929081D01*
X957173Y-935024D01*
X960983Y-942695D01*
X966266Y-949655D01*
X1005230Y-988618D01*
X1007414Y-991920D01*
X1008176Y-995781D01*
X1008176Y-2699867D01*
X1007364Y-2703830D01*
X1005078Y-2707182D01*
X1001674Y-2709367D01*
X997661Y-2710027D01*
X984097Y-2706471D01*
X974344Y-2705608D01*
X964539Y-2706471D01*
X955040Y-2709011D01*
X946150Y-2713177D01*
X938072Y-2718816D01*
X931113Y-2725775D01*
X925525Y-2733802D01*
X921359Y-2742692D01*
X918819Y-2752191D01*
X917956Y-2761945D01*
X918971Y-2773019D01*
X918514Y-2777134D01*
X916482Y-2780741D01*
X913180Y-2783179D01*
X906221Y-2786430D01*
X898194Y-2792069D01*
X891235Y-2799029D01*
X885596Y-2807055D01*
X881430Y-2815945D01*
X878890Y-2825445D01*
X878027Y-2835249D01*
X878890Y-2845054D01*
X881430Y-2854553D01*
X885596Y-2863443D01*
X891235Y-2871470D01*
X892810Y-2873095D01*
X895045Y-2876397D01*
X895807Y-2880258D01*
X895807Y-8045348D01*
X895045Y-8049259D01*
X892810Y-8052562D01*
X545998Y-8399373D01*
X542899Y-8401507D01*
X539292Y-8402320D01*
X535584Y-8401812D01*
X527100Y-8398916D01*
X513638Y-8396274D01*
X500024Y-8395360D01*
X486359Y-8396274D01*
X472897Y-8398916D01*
X459943Y-8403336D01*
X447700Y-8409381D01*
X436321Y-8417001D01*
X426008Y-8425992D01*
X424484Y-8427720D01*
X421233Y-8430209D01*
X417271Y-8431174D01*
X413258Y-8430564D01*
X409803Y-8428380D01*
X407517Y-8425027D01*
X406704Y-8421065D01*
X406654Y-8387029D01*
X405434Y-8378291D01*
X402742Y-8370265D01*
X398627Y-8362899D01*
X392887Y-8355990D01*
X289306Y-8252409D01*
X287121Y-8249107D01*
X286359Y-8245246D01*
X286359Y-7632598D01*
X287121Y-7628686D01*
X289306Y-7625384D01*
X292608Y-7623200D01*
X296519Y-7622438D01*
X468934Y-7622438D01*
X475284Y-7621676D01*
X480720Y-7619796D01*
X485648Y-7616698D01*
X489712Y-7612634D01*
X491388Y-7609941D01*
X494233Y-7606995D01*
X497941Y-7605420D01*
X502056Y-7605420D01*
X505764Y-7606995D01*
X508609Y-7609941D01*
X510285Y-7612634D01*
X514350Y-7616698D01*
X519277Y-7619796D01*
X524713Y-7621676D01*
X531063Y-7622438D01*
X722934Y-7622438D01*
X729284Y-7621676D01*
X734720Y-7619796D01*
X739648Y-7616698D01*
X743712Y-7612634D01*
X746810Y-7607706D01*
X748690Y-7602270D01*
X749452Y-7595920D01*
X749452Y-7404049D01*
X748690Y-7397699D01*
X746810Y-7392263D01*
X743712Y-7387336D01*
X739648Y-7383272D01*
X734720Y-7380173D01*
X729284Y-7378293D01*
X722934Y-7377582D01*
X531063Y-7377582D01*
X524713Y-7378293D01*
X519277Y-7380173D01*
X514350Y-7383272D01*
X510285Y-7387336D01*
X508609Y-7390028D01*
X505764Y-7392974D01*
X502056Y-7394549D01*
X497941Y-7394549D01*
X494233Y-7392974D01*
X491388Y-7390028D01*
X489712Y-7387336D01*
X485648Y-7383272D01*
X480720Y-7380173D01*
X475284Y-7378293D01*
X468934Y-7377582D01*
X296519Y-7377582D01*
X292608Y-7376769D01*
X289306Y-7374585D01*
X287121Y-7371283D01*
X286359Y-7367422D01*
X286359Y-3028797D01*
X287121Y-3024886D01*
X289306Y-3021584D01*
X365252Y-2945688D01*
X369011Y-2943301D01*
X373430Y-2942742D01*
X377698Y-2944164D01*
X380898Y-2947263D01*
X382473Y-2951429D01*
X382117Y-2955899D01*
X377748Y-2969869D01*
X375005Y-2984804D01*
X374091Y-2999994D01*
X375005Y-3015183D01*
X377748Y-3030118D01*
X382270Y-3044647D01*
X388518Y-3058515D01*
X396392Y-3071520D01*
X405790Y-3083458D01*
X416509Y-3094228D01*
X428498Y-3103575D01*
X441502Y-3111449D01*
X455422Y-3117748D01*
X458571Y-3119932D01*
X460654Y-3123184D01*
X461416Y-3126994D01*
X460654Y-3130804D01*
X458571Y-3134055D01*
X455422Y-3136239D01*
X441502Y-3142538D01*
X428498Y-3150412D01*
X416509Y-3159760D01*
X405790Y-3170529D01*
X396392Y-3182467D01*
X388518Y-3195472D01*
X382270Y-3209340D01*
X377748Y-3223869D01*
X375005Y-3238804D01*
X374091Y-3253994D01*
X375005Y-3269183D01*
X377748Y-3284118D01*
X382270Y-3298647D01*
X388518Y-3312515D01*
X396392Y-3325520D01*
X405790Y-3337458D01*
X416509Y-3348228D01*
X428498Y-3357575D01*
X441502Y-3365449D01*
X455422Y-3371748D01*
X458571Y-3373932D01*
X460654Y-3377184D01*
X461416Y-3380994D01*
X460654Y-3384804D01*
X458571Y-3388055D01*
X455422Y-3390239D01*
X441502Y-3396538D01*
X428498Y-3404412D01*
X416509Y-3413760D01*
X405790Y-3424529D01*
X396392Y-3436467D01*
X388518Y-3449472D01*
X382270Y-3463340D01*
X377748Y-3477869D01*
X375005Y-3492804D01*
X374091Y-3507994D01*
X375005Y-3523183D01*
X377748Y-3538118D01*
X382270Y-3552647D01*
X388518Y-3566515D01*
X396392Y-3579520D01*
X405790Y-3591458D01*
X416509Y-3602228D01*
X428498Y-3611575D01*
X441502Y-3619449D01*
X455371Y-3625697D01*
X469849Y-3630218D01*
X484835Y-3632962D01*
X500024Y-3633876D01*
X515162Y-3632962D01*
X530148Y-3630218D01*
X544626Y-3625697D01*
X558495Y-3619449D01*
X571500Y-3611575D01*
X583488Y-3602228D01*
X594207Y-3591458D01*
X603605Y-3579520D01*
X611479Y-3566515D01*
X617728Y-3552647D01*
X622249Y-3538118D01*
X624992Y-3523183D01*
X625906Y-3507994D01*
X624992Y-3492804D01*
X622249Y-3477869D01*
X617728Y-3463340D01*
X611479Y-3449472D01*
X603605Y-3436467D01*
X594207Y-3424529D01*
X583488Y-3413760D01*
X571500Y-3404412D01*
X558495Y-3396538D01*
X544576Y-3390239D01*
X541426Y-3388055D01*
X539343Y-3384804D01*
X538581Y-3380994D01*
X539343Y-3377184D01*
X541426Y-3373932D01*
X544576Y-3371748D01*
X558495Y-3365449D01*
X571500Y-3357575D01*
X583488Y-3348228D01*
X594207Y-3337458D01*
X603605Y-3325520D01*
X611479Y-3312515D01*
X617728Y-3298647D01*
X622249Y-3284118D01*
X624992Y-3269183D01*
X625906Y-3253994D01*
X624992Y-3238804D01*
X622249Y-3223869D01*
X617728Y-3209340D01*
X611479Y-3195472D01*
X603605Y-3182467D01*
X594207Y-3170529D01*
X583488Y-3159760D01*
X571500Y-3150412D01*
X558495Y-3142538D01*
X544576Y-3136239D01*
X541426Y-3134055D01*
X539343Y-3130804D01*
X538581Y-3126994D01*
X539343Y-3123184D01*
X541426Y-3119932D01*
X544576Y-3117748D01*
X558495Y-3111449D01*
X571500Y-3103575D01*
X583488Y-3094228D01*
X594207Y-3083458D01*
X603605Y-3071520D01*
X611479Y-3058515D01*
X617728Y-3044647D01*
X622249Y-3030118D01*
X624992Y-3015183D01*
X625906Y-2999994D01*
X624992Y-2984804D01*
X622249Y-2969869D01*
X617728Y-2955340D01*
X611479Y-2941472D01*
X603605Y-2928467D01*
X594207Y-2916529D01*
X583488Y-2905760D01*
X571500Y-2896412D01*
X558495Y-2888538D01*
X544576Y-2882239D01*
X541426Y-2880055D01*
X539343Y-2876804D01*
X538581Y-2872994D01*
X539343Y-2869184D01*
X541426Y-2865932D01*
X544576Y-2863748D01*
X558495Y-2857449D01*
X571500Y-2849575D01*
X583488Y-2840228D01*
X594207Y-2829458D01*
X603605Y-2817520D01*
X611479Y-2804515D01*
X617728Y-2790647D01*
X622249Y-2776118D01*
X624992Y-2761183D01*
X625906Y-2745994D01*
X624992Y-2730804D01*
X622249Y-2715869D01*
X617728Y-2701340D01*
X611479Y-2687472D01*
X603605Y-2674467D01*
X594207Y-2662529D01*
X583488Y-2651760D01*
X571500Y-2642412D01*
X558495Y-2634538D01*
X544626Y-2628290D01*
X530148Y-2623769D01*
X515162Y-2621026D01*
X500024Y-2620111D01*
X484835Y-2621026D01*
X469849Y-2623769D01*
X455371Y-2628290D01*
X441502Y-2634538D01*
X428498Y-2642412D01*
X416509Y-2651760D01*
X405790Y-2662529D01*
X396392Y-2674467D01*
X388518Y-2687472D01*
X382270Y-2701340D01*
X377748Y-2715869D01*
X375005Y-2730804D01*
X374091Y-2745994D01*
X375005Y-2761183D01*
X377748Y-2776118D01*
X382422Y-2791002D01*
X382828Y-2794609D01*
X381965Y-2798165D01*
X379882Y-2801162D01*
X206756Y-2974390D01*
X201422Y-2981401D01*
X197662Y-2988970D01*
X195376Y-2997149D01*
X194513Y-3006039D01*
X194564Y-8270240D01*
X195783Y-8278977D01*
X198475Y-8287003D01*
X202590Y-8294370D01*
X208330Y-8301278D01*
X285038Y-8377986D01*
X287223Y-8381288D01*
X288036Y-8385200D01*
X287223Y-8389061D01*
X285038Y-8392363D01*
X281736Y-8394547D01*
X277876Y-8395360D01*
X167843Y-8395360D01*
X161493Y-8396071D01*
X156057Y-8397951D01*
X151130Y-8401050D01*
X147066Y-8405114D01*
X143967Y-8410041D01*
X142087Y-8415477D01*
X141376Y-8421827D01*
X141376Y-8578138D01*
X142087Y-8584488D01*
X143967Y-8589924D01*
X147066Y-8594852D01*
X151130Y-8598916D01*
X156057Y-8602014D01*
X161493Y-8603894D01*
X167843Y-8604656D01*
X324154Y-8604656D01*
X330504Y-8603894D01*
X335940Y-8602014D01*
X340868Y-8598916D01*
X343408Y-8596376D01*
X346710Y-8594140D01*
X350621Y-8593378D01*
X354482Y-8594140D01*
X357784Y-8596376D01*
X416306Y-8654796D01*
X423316Y-8660130D01*
X430885Y-8663889D01*
X439064Y-8666175D01*
X447954Y-8667038D01*
X634644Y-8666988D01*
X643382Y-8665768D01*
X651408Y-8663076D01*
X658774Y-8658961D01*
X665683Y-8653221D01*
X715670Y-8603234D01*
X718769Y-8601100D01*
X722426Y-8600236D01*
X740359Y-8603691D01*
X754024Y-8604605D01*
X767638Y-8603691D01*
X781100Y-8601049D01*
X794054Y-8596630D01*
X806297Y-8590584D01*
X817676Y-8582964D01*
X827989Y-8573973D01*
X836980Y-8563660D01*
X844600Y-8552281D01*
X850646Y-8540038D01*
X855065Y-8527084D01*
X857707Y-8513622D01*
X858621Y-8500008D01*
X857707Y-8486343D01*
X855065Y-8472881D01*
X850646Y-8459927D01*
X844600Y-8447684D01*
X836980Y-8436305D01*
X827989Y-8425992D01*
X817676Y-8417001D01*
X806297Y-8409381D01*
X794054Y-8403336D01*
X781100Y-8398916D01*
X767638Y-8396274D01*
X754024Y-8395360D01*
X740359Y-8396274D01*
X726897Y-8398916D01*
X713943Y-8403336D01*
X701700Y-8409381D01*
X690321Y-8417001D01*
X680008Y-8425992D01*
X671017Y-8436305D01*
X663397Y-8447684D01*
X657352Y-8459927D01*
X652932Y-8472881D01*
X650290Y-8486343D01*
X649376Y-8500008D01*
X650290Y-8513622D01*
X653745Y-8531555D01*
X652881Y-8535212D01*
X650748Y-8538311D01*
X616813Y-8572246D01*
X613511Y-8574430D01*
X609650Y-8575192D01*
X594309Y-8575192D01*
X590042Y-8574278D01*
X586587Y-8571636D01*
X584504Y-8567826D01*
X584250Y-8563457D01*
X585876Y-8559393D01*
X590600Y-8552281D01*
X596646Y-8540038D01*
X601065Y-8527084D01*
X603707Y-8513622D01*
X604621Y-8500008D01*
X603707Y-8486343D01*
X601065Y-8472881D01*
X598170Y-8464397D01*
X597662Y-8460689D01*
X598525Y-8457082D01*
X600608Y-8453983D01*
X961339Y-8093202D01*
X966469Y-8087004D01*
X970026Y-8080298D01*
X972210Y-8073085D01*
X973023Y-8065058D01*
X973023Y-8052155D01*
X973785Y-8048244D01*
X976020Y-8044942D01*
X979271Y-8042757D01*
X983183Y-8041995D01*
X987094Y-8042757D01*
X990346Y-8044942D01*
X1323390Y-8377986D01*
X1325626Y-8381288D01*
X1326388Y-8385200D01*
X1325626Y-8389061D01*
X1323390Y-8392363D01*
X1320088Y-8394547D01*
X1316228Y-8395360D01*
X1167841Y-8395360D01*
X1161491Y-8396071D01*
X1156055Y-8397951D01*
X1151128Y-8401050D01*
X1147064Y-8405114D01*
X1143965Y-8410041D01*
X1142085Y-8415477D01*
X1141374Y-8421827D01*
X1141374Y-8578138D01*
X1142085Y-8584488D01*
X1143965Y-8589924D01*
X1147064Y-8594852D01*
X1151128Y-8598916D01*
X1156055Y-8602014D01*
X1161491Y-8603894D01*
X1167841Y-8604656D01*
X1324152Y-8604656D01*
X1330502Y-8603894D01*
X1335938Y-8602014D01*
X1340866Y-8598916D01*
X1344930Y-8594852D01*
X1348028Y-8589924D01*
X1349908Y-8584488D01*
X1350670Y-8578138D01*
X1350670Y-8429752D01*
X1351432Y-8425891D01*
X1353616Y-8422589D01*
X1356918Y-8420354D01*
X1360830Y-8419592D01*
X1364691Y-8420354D01*
X1367993Y-8422589D01*
X1399387Y-8453983D01*
X1401521Y-8457082D01*
X1402334Y-8460689D01*
X1401826Y-8464397D01*
X1398930Y-8472881D01*
X1396288Y-8486343D01*
X1395374Y-8500008D01*
X1396288Y-8513622D01*
X1398930Y-8527084D01*
X1403350Y-8540038D01*
X1409395Y-8552281D01*
X1417015Y-8563660D01*
X1426006Y-8573973D01*
X1436319Y-8582964D01*
X1447698Y-8590584D01*
X1459941Y-8596630D01*
X1472895Y-8601049D01*
X1486357Y-8603691D01*
X1500022Y-8604605D01*
X1513636Y-8603691D01*
X1527098Y-8601049D01*
X1540052Y-8596630D01*
X1552295Y-8590584D01*
X1563674Y-8582964D01*
X1573987Y-8573973D01*
X1582978Y-8563660D01*
X1590598Y-8552281D01*
X1596644Y-8540038D01*
X1601063Y-8527084D01*
X1603705Y-8513622D01*
X1604619Y-8500008D01*
X1603705Y-8486343D01*
X1601063Y-8472881D01*
X1596644Y-8459927D01*
X1590598Y-8447684D01*
X1582978Y-8436305D01*
X1573987Y-8425992D01*
X1563674Y-8417001D01*
X1552295Y-8409381D01*
X1540052Y-8403336D01*
X1527098Y-8398916D01*
X1513636Y-8396274D01*
X1500022Y-8395360D01*
X1486357Y-8396274D01*
X1472895Y-8398916D01*
X1464411Y-8401812D01*
X1460703Y-8402320D01*
X1457096Y-8401507D01*
X1453997Y-8399373D01*
X1034592Y-7979968D01*
X1032357Y-7976666D01*
X1031595Y-7972755D01*
X1031595Y-6091580D01*
X1032357Y-6087668D01*
X1034592Y-6084366D01*
X1037844Y-6082182D01*
X1041755Y-6081420D01*
X1045667Y-6082182D01*
X1048918Y-6084366D01*
X1500530Y-6535978D01*
X1502562Y-6538874D01*
X1503476Y-6542328D01*
X1503172Y-6545834D01*
X1501546Y-6551676D01*
X1499717Y-6565188D01*
X1499717Y-6578803D01*
X1501546Y-6592316D01*
X1505153Y-6605473D01*
X1510487Y-6618020D01*
X1517446Y-6629755D01*
X1525879Y-6640474D01*
X1535684Y-6649974D01*
X1546656Y-6658051D01*
X1558645Y-6664604D01*
X1571345Y-6669481D01*
X1584604Y-6672681D01*
X1598168Y-6674002D01*
X1611833Y-6673545D01*
X1625244Y-6671309D01*
X1638300Y-6667246D01*
X1650644Y-6661505D01*
X1655318Y-6658508D01*
X1659382Y-6657035D01*
X1663700Y-6657340D01*
X1667459Y-6659422D01*
X1670050Y-6662877D01*
X1670964Y-6667093D01*
X1670964Y-6752132D01*
X1670202Y-6756044D01*
X1667967Y-6759346D01*
X1210564Y-7216749D01*
X1205433Y-7222998D01*
X1201877Y-7229652D01*
X1199692Y-7236866D01*
X1198930Y-7244892D01*
X1198930Y-7600086D01*
X1199692Y-7608112D01*
X1201877Y-7615326D01*
X1205433Y-7622031D01*
X1210564Y-7628229D01*
X1957425Y-8375091D01*
X1963674Y-8380222D01*
X1970328Y-8383778D01*
X1977542Y-8385962D01*
X1985568Y-8386775D01*
X2140864Y-8386775D01*
X2144776Y-8387537D01*
X2148078Y-8389772D01*
X2150262Y-8393023D01*
X2151024Y-8396935D01*
X2150262Y-8400846D01*
X2147062Y-8405114D01*
X2143963Y-8410041D01*
X2142083Y-8415477D01*
X2141372Y-8421827D01*
X2141372Y-8578138D01*
X2142083Y-8584488D01*
X2143963Y-8589924D01*
X2147062Y-8594852D01*
X2151126Y-8598916D01*
X2156053Y-8602014D01*
X2161489Y-8603894D01*
X2167839Y-8604656D01*
X2324150Y-8604656D01*
X2330500Y-8603894D01*
X2335936Y-8602014D01*
X2340864Y-8598916D01*
X2344928Y-8594852D01*
X2348026Y-8589924D01*
X2349906Y-8584488D01*
X2350668Y-8578138D01*
X2350668Y-8429752D01*
X2351430Y-8425891D01*
X2353614Y-8422589D01*
X2356916Y-8420354D01*
X2360777Y-8419592D01*
X2364689Y-8420354D01*
X2367991Y-8422589D01*
X2399385Y-8453983D01*
X2401468Y-8457082D01*
X2402332Y-8460689D01*
X2401824Y-8464397D01*
X2398928Y-8472881D01*
X2396286Y-8486343D01*
X2395372Y-8500008D01*
X2396286Y-8513622D01*
X2398928Y-8527084D01*
X2403348Y-8540038D01*
X2409393Y-8552281D01*
X2417013Y-8563660D01*
X2426004Y-8573973D01*
X2436317Y-8582964D01*
X2447696Y-8590584D01*
X2459939Y-8596630D01*
X2472893Y-8601049D01*
X2486355Y-8603691D01*
X2500020Y-8604605D01*
X2513634Y-8603691D01*
X2527096Y-8601049D01*
X2540050Y-8596630D01*
X2552293Y-8590584D01*
X2563672Y-8582964D01*
X2571191Y-8576411D01*
X2574544Y-8574481D01*
X2578354Y-8573871D01*
X2582113Y-8574786D01*
X2585212Y-8577021D01*
X2587345Y-8580272D01*
X2588056Y-8584031D01*
X2588056Y-8992463D01*
X2587294Y-8996324D01*
X2585059Y-8999626D01*
X2219045Y-9365691D01*
X2213914Y-9371888D01*
X2210358Y-9378594D01*
X2207107Y-9389719D01*
X2204872Y-9392716D01*
X2201672Y-9394647D01*
X2198014Y-9395358D01*
X2167839Y-9395358D01*
X2161489Y-9396069D01*
X2156053Y-9397949D01*
X2151126Y-9401048D01*
X2147062Y-9405112D01*
X2143963Y-9410039D01*
X2142083Y-9415475D01*
X2141372Y-9421825D01*
X2141372Y-9571532D01*
X2140559Y-9575444D01*
X2138375Y-9578695D01*
X2135073Y-9580930D01*
X2131161Y-9581692D01*
X1843633Y-9581692D01*
X1839823Y-9580981D01*
X1836623Y-9578848D01*
X1834388Y-9575749D01*
X1833473Y-9571990D01*
X1834032Y-9568180D01*
X1844598Y-9552279D01*
X1850643Y-9540036D01*
X1855063Y-9527082D01*
X1857705Y-9513620D01*
X1858619Y-9500006D01*
X1857705Y-9486341D01*
X1855063Y-9472879D01*
X1850643Y-9459925D01*
X1844598Y-9447682D01*
X1836978Y-9436303D01*
X1827987Y-9425990D01*
X1817674Y-9416999D01*
X1806295Y-9409379D01*
X1794052Y-9403334D01*
X1781098Y-9398914D01*
X1767636Y-9396272D01*
X1754022Y-9395358D01*
X1740357Y-9396272D01*
X1726895Y-9398914D01*
X1713941Y-9403334D01*
X1701698Y-9409379D01*
X1690319Y-9416999D01*
X1680006Y-9425990D01*
X1671015Y-9436303D01*
X1663395Y-9447682D01*
X1657350Y-9459925D01*
X1652930Y-9472879D01*
X1650288Y-9486341D01*
X1649374Y-9500006D01*
X1650288Y-9513620D01*
X1652930Y-9527082D01*
X1657350Y-9540036D01*
X1663395Y-9552279D01*
X1673961Y-9568180D01*
X1674520Y-9571990D01*
X1673606Y-9575749D01*
X1671421Y-9578848D01*
X1668170Y-9580981D01*
X1664360Y-9581692D01*
X1589633Y-9581692D01*
X1585823Y-9580981D01*
X1582623Y-9578848D01*
X1580388Y-9575749D01*
X1579473Y-9571990D01*
X1580032Y-9568180D01*
X1590598Y-9552279D01*
X1593850Y-9545726D01*
X1545742Y-9545726D01*
X1545742Y-9571532D01*
X1544929Y-9575444D01*
X1542745Y-9578695D01*
X1539443Y-9580930D01*
X1535582Y-9581692D01*
X1466494Y-9581692D01*
X1462633Y-9580930D01*
X1459331Y-9578695D01*
X1457248Y-9576663D01*
X1455064Y-9573361D01*
X1454302Y-9569450D01*
X1454302Y-9545726D01*
X1430528Y-9545726D01*
X1426616Y-9544913D01*
X1423314Y-9542729D01*
X1394256Y-9513620D01*
X1392021Y-9510318D01*
X1391259Y-9506458D01*
X1391259Y-9500463D01*
X1390446Y-9492437D01*
X1388262Y-9485223D01*
X1384706Y-9478568D01*
X1379931Y-9472726D01*
X1374089Y-9467900D01*
X1367383Y-9464344D01*
X1356258Y-9461093D01*
X1353261Y-9458858D01*
X1351330Y-9455658D01*
X1350670Y-9452000D01*
X1350670Y-9421825D01*
X1349908Y-9415475D01*
X1348028Y-9410039D01*
X1344930Y-9405112D01*
X1340866Y-9401048D01*
X1335938Y-9397949D01*
X1330502Y-9396069D01*
X1324152Y-9395358D01*
X1167841Y-9395358D01*
X1161491Y-9396069D01*
X1156055Y-9397949D01*
X1151128Y-9401048D01*
X1147064Y-9405112D01*
X1143965Y-9410039D01*
X1142085Y-9415475D01*
X1141374Y-9421825D01*
X1141374Y-9578136D01*
X1142085Y-9584486D01*
X1143965Y-9589922D01*
X1147064Y-9594850D01*
X1151128Y-9598914D01*
X1156055Y-9602012D01*
X1161491Y-9603892D01*
X1167841Y-9604654D01*
X1324152Y-9604654D01*
X1330502Y-9603892D01*
X1335938Y-9602012D01*
X1340866Y-9598914D01*
X1344930Y-9594850D01*
X1346403Y-9592564D01*
X1348841Y-9589871D01*
X1352042Y-9588195D01*
X1355648Y-9587788D01*
X1359204Y-9588703D01*
X1362151Y-9590786D01*
X1418640Y-9647224D01*
X1424889Y-9652355D01*
X1431544Y-9655911D01*
X1438757Y-9658096D01*
G37*
G36*
X167843Y-9604654D02*
G01*
X324154Y-9604654D01*
X330504Y-9603892D01*
X335940Y-9602012D01*
X340868Y-9598914D01*
X344932Y-9594850D01*
X348030Y-9589922D01*
X349910Y-9584486D01*
X350672Y-9578136D01*
X350672Y-9421825D01*
X349910Y-9415475D01*
X348030Y-9410039D01*
X344932Y-9405112D01*
X340868Y-9401048D01*
X335940Y-9397949D01*
X330504Y-9396069D01*
X324154Y-9395358D01*
X167843Y-9395358D01*
X161493Y-9396069D01*
X156057Y-9397949D01*
X151130Y-9401048D01*
X147066Y-9405112D01*
X143967Y-9410039D01*
X142087Y-9415475D01*
X141376Y-9421825D01*
X141376Y-9578136D01*
X142087Y-9584486D01*
X143967Y-9589922D01*
X147066Y-9594850D01*
X151130Y-9598914D01*
X156057Y-9602012D01*
X161493Y-9603892D01*
G37*
G36*
X754024Y-9604603D02*
G01*
X767638Y-9603689D01*
X781100Y-9601047D01*
X794054Y-9596628D01*
X806297Y-9590582D01*
X817676Y-9582962D01*
X827989Y-9573971D01*
X836980Y-9563658D01*
X844600Y-9552279D01*
X850646Y-9540036D01*
X855065Y-9527082D01*
X857707Y-9513620D01*
X858621Y-9500006D01*
X857707Y-9486341D01*
X855065Y-9472879D01*
X850646Y-9459925D01*
X844600Y-9447682D01*
X836980Y-9436303D01*
X827989Y-9425990D01*
X817676Y-9416999D01*
X806297Y-9409379D01*
X794054Y-9403334D01*
X781100Y-9398914D01*
X767638Y-9396272D01*
X754024Y-9395358D01*
X740359Y-9396272D01*
X726897Y-9398914D01*
X713943Y-9403334D01*
X701700Y-9409379D01*
X690321Y-9416999D01*
X680008Y-9425990D01*
X671017Y-9436303D01*
X663397Y-9447682D01*
X657352Y-9459925D01*
X652932Y-9472879D01*
X650290Y-9486341D01*
X649376Y-9500006D01*
X650290Y-9513620D01*
X652932Y-9527082D01*
X657352Y-9540036D01*
X663397Y-9552279D01*
X671017Y-9563658D01*
X680008Y-9573971D01*
X690321Y-9582962D01*
X701700Y-9590582D01*
X713943Y-9596628D01*
X726897Y-9601047D01*
X740359Y-9603689D01*
G37*
G36*
X3754018Y-9604603D02*
G01*
X3767632Y-9603689D01*
X3781094Y-9601047D01*
X3794048Y-9596628D01*
X3806291Y-9590582D01*
X3817670Y-9582962D01*
X3827983Y-9573971D01*
X3836974Y-9563658D01*
X3844594Y-9552279D01*
X3850640Y-9540036D01*
X3855059Y-9527082D01*
X3857701Y-9513620D01*
X3858615Y-9500006D01*
X3857701Y-9486341D01*
X3855059Y-9472879D01*
X3850640Y-9459925D01*
X3844594Y-9447682D01*
X3836974Y-9436303D01*
X3827983Y-9425990D01*
X3817670Y-9416999D01*
X3806291Y-9409379D01*
X3794048Y-9403334D01*
X3781094Y-9398914D01*
X3767632Y-9396272D01*
X3754018Y-9395358D01*
X3740353Y-9396272D01*
X3726891Y-9398914D01*
X3713937Y-9403334D01*
X3701694Y-9409379D01*
X3690315Y-9416999D01*
X3680002Y-9425990D01*
X3671011Y-9436303D01*
X3663391Y-9447682D01*
X3657346Y-9459925D01*
X3652926Y-9472879D01*
X3650284Y-9486341D01*
X3649370Y-9500006D01*
X3650284Y-9513620D01*
X3652926Y-9527082D01*
X3657346Y-9540036D01*
X3663391Y-9552279D01*
X3671011Y-9563658D01*
X3680002Y-9573971D01*
X3690315Y-9582962D01*
X3701694Y-9590582D01*
X3713937Y-9596628D01*
X3726891Y-9601047D01*
X3740353Y-9603689D01*
G37*
G36*
X4754016Y-9604603D02*
G01*
X4767630Y-9603689D01*
X4781092Y-9601047D01*
X4794046Y-9596628D01*
X4806289Y-9590582D01*
X4817668Y-9582962D01*
X4827981Y-9573971D01*
X4836972Y-9563658D01*
X4844592Y-9552279D01*
X4850638Y-9540036D01*
X4855057Y-9527082D01*
X4857699Y-9513620D01*
X4858613Y-9500006D01*
X4857699Y-9486341D01*
X4855057Y-9472879D01*
X4850638Y-9459925D01*
X4844592Y-9447682D01*
X4836972Y-9436303D01*
X4827981Y-9425990D01*
X4817668Y-9416999D01*
X4806289Y-9409379D01*
X4794046Y-9403334D01*
X4781092Y-9398914D01*
X4767630Y-9396272D01*
X4754016Y-9395358D01*
X4740351Y-9396272D01*
X4726889Y-9398914D01*
X4713935Y-9403334D01*
X4701692Y-9409379D01*
X4690313Y-9416999D01*
X4680000Y-9425990D01*
X4671009Y-9436303D01*
X4663389Y-9447682D01*
X4657344Y-9459925D01*
X4652924Y-9472879D01*
X4650282Y-9486341D01*
X4649368Y-9500006D01*
X4650282Y-9513620D01*
X4652924Y-9527082D01*
X4657344Y-9540036D01*
X4663389Y-9552279D01*
X4671009Y-9563658D01*
X4680000Y-9573971D01*
X4690313Y-9582962D01*
X4701692Y-9590582D01*
X4713935Y-9596628D01*
X4726889Y-9601047D01*
X4740351Y-9603689D01*
G37*
G36*
X454304Y-9593834D02*
G01*
X454304Y-9545726D01*
X406146Y-9545726D01*
X409397Y-9552279D01*
X417017Y-9563658D01*
X426008Y-9573971D01*
X436321Y-9582962D01*
X447700Y-9590582D01*
G37*
G36*
X545744Y-9593834D02*
G01*
X552297Y-9590582D01*
X563676Y-9582962D01*
X573989Y-9573971D01*
X582980Y-9563658D01*
X590600Y-9552279D01*
X593852Y-9545726D01*
X545744Y-9545726D01*
G37*
G36*
X4454296Y-9593834D02*
G01*
X4454296Y-9545726D01*
X4406138Y-9545726D01*
X4409389Y-9552279D01*
X4417009Y-9563658D01*
X4426000Y-9573971D01*
X4436313Y-9582962D01*
X4447692Y-9590582D01*
G37*
G36*
X3454298Y-9593834D02*
G01*
X3454298Y-9545726D01*
X3406140Y-9545726D01*
X3409391Y-9552279D01*
X3417011Y-9563658D01*
X3426002Y-9573971D01*
X3436315Y-9582962D01*
X3447694Y-9590582D01*
G37*
G36*
X3545738Y-9593834D02*
G01*
X3552291Y-9590582D01*
X3563670Y-9582962D01*
X3573983Y-9573971D01*
X3582974Y-9563658D01*
X3590594Y-9552279D01*
X3593846Y-9545726D01*
X3545738Y-9545726D01*
G37*
G36*
X4545736Y-9593834D02*
G01*
X4552289Y-9590582D01*
X4563668Y-9582962D01*
X4573981Y-9573971D01*
X4582972Y-9563658D01*
X4590592Y-9552279D01*
X4593844Y-9545726D01*
X4545736Y-9545726D01*
G37*
G36*
X1545742Y-9454286D02*
G01*
X1593850Y-9454286D01*
X1590598Y-9447682D01*
X1582978Y-9436303D01*
X1573987Y-9425990D01*
X1563674Y-9416999D01*
X1552295Y-9409379D01*
X1545742Y-9406128D01*
G37*
G36*
X1406144Y-9454286D02*
G01*
X1454302Y-9454286D01*
X1454302Y-9406128D01*
X1447698Y-9409379D01*
X1436319Y-9416999D01*
X1426006Y-9425990D01*
X1417015Y-9436303D01*
X1409395Y-9447682D01*
G37*
G36*
X406146Y-9454286D02*
G01*
X454304Y-9454286D01*
X454304Y-9406128D01*
X447700Y-9409379D01*
X436321Y-9416999D01*
X426008Y-9425990D01*
X417017Y-9436303D01*
X409397Y-9447682D01*
G37*
G36*
X545744Y-9454286D02*
G01*
X593852Y-9454286D01*
X590600Y-9447682D01*
X582980Y-9436303D01*
X573989Y-9425990D01*
X563676Y-9416999D01*
X552297Y-9409379D01*
X545744Y-9406128D01*
G37*
G36*
X3406140Y-9454286D02*
G01*
X3454298Y-9454286D01*
X3454298Y-9406128D01*
X3447694Y-9409379D01*
X3436315Y-9416999D01*
X3426002Y-9425990D01*
X3417011Y-9436303D01*
X3409391Y-9447682D01*
G37*
G36*
X2406142Y-9454286D02*
G01*
X2454300Y-9454286D01*
X2454300Y-9406128D01*
X2447696Y-9409379D01*
X2436317Y-9416999D01*
X2426004Y-9425990D01*
X2417013Y-9436303D01*
X2409393Y-9447682D01*
G37*
G36*
X4406138Y-9454286D02*
G01*
X4454296Y-9454286D01*
X4454296Y-9406128D01*
X4447692Y-9409379D01*
X4436313Y-9416999D01*
X4426000Y-9425990D01*
X4417009Y-9436303D01*
X4409389Y-9447682D01*
G37*
G36*
X2545740Y-9454286D02*
G01*
X2593848Y-9454286D01*
X2590596Y-9447682D01*
X2582976Y-9436303D01*
X2573985Y-9425990D01*
X2563672Y-9416999D01*
X2552293Y-9409379D01*
X2545740Y-9406128D01*
G37*
G36*
X4545736Y-9454286D02*
G01*
X4593844Y-9454286D01*
X4590592Y-9447682D01*
X4582972Y-9436303D01*
X4573981Y-9425990D01*
X4563668Y-9416999D01*
X4552289Y-9409379D01*
X4545736Y-9406128D01*
G37*
G36*
X3545738Y-9454286D02*
G01*
X3593846Y-9454286D01*
X3590594Y-9447682D01*
X3582974Y-9436303D01*
X3573983Y-9425990D01*
X3563670Y-9416999D01*
X3552291Y-9409379D01*
X3545738Y-9406128D01*
G37*
G36*
X3167837Y-8604656D02*
G01*
X3324148Y-8604656D01*
X3330498Y-8603894D01*
X3335934Y-8602014D01*
X3340862Y-8598916D01*
X3344926Y-8594852D01*
X3348024Y-8589924D01*
X3349904Y-8584488D01*
X3350666Y-8578138D01*
X3350666Y-8421827D01*
X3349904Y-8415477D01*
X3348024Y-8410041D01*
X3344926Y-8405114D01*
X3340862Y-8401050D01*
X3335934Y-8397951D01*
X3330498Y-8396071D01*
X3324148Y-8395360D01*
X3167837Y-8395360D01*
X3161487Y-8396071D01*
X3156051Y-8397951D01*
X3151124Y-8401050D01*
X3147060Y-8405114D01*
X3143961Y-8410041D01*
X3142081Y-8415477D01*
X3141370Y-8421827D01*
X3141370Y-8578138D01*
X3142081Y-8584488D01*
X3143961Y-8589924D01*
X3147060Y-8594852D01*
X3151124Y-8598916D01*
X3156051Y-8602014D01*
X3161487Y-8603894D01*
G37*
G36*
X1754022Y-8604605D02*
G01*
X1767636Y-8603691D01*
X1781098Y-8601049D01*
X1794052Y-8596630D01*
X1806295Y-8590584D01*
X1817674Y-8582964D01*
X1827987Y-8573973D01*
X1836978Y-8563660D01*
X1844598Y-8552281D01*
X1850643Y-8540038D01*
X1855063Y-8527084D01*
X1857705Y-8513622D01*
X1858619Y-8500008D01*
X1857705Y-8486343D01*
X1855063Y-8472881D01*
X1850643Y-8459927D01*
X1844598Y-8447684D01*
X1836978Y-8436305D01*
X1827987Y-8425992D01*
X1817674Y-8417001D01*
X1806295Y-8409381D01*
X1794052Y-8403336D01*
X1781098Y-8398916D01*
X1767636Y-8396274D01*
X1754022Y-8395360D01*
X1740357Y-8396274D01*
X1726895Y-8398916D01*
X1713941Y-8403336D01*
X1701698Y-8409381D01*
X1690319Y-8417001D01*
X1680006Y-8425992D01*
X1671015Y-8436305D01*
X1663395Y-8447684D01*
X1657350Y-8459927D01*
X1652930Y-8472881D01*
X1650288Y-8486343D01*
X1649374Y-8500008D01*
X1650288Y-8513622D01*
X1652930Y-8527084D01*
X1657350Y-8540038D01*
X1663395Y-8552281D01*
X1671015Y-8563660D01*
X1680006Y-8573973D01*
X1690319Y-8582964D01*
X1701698Y-8590584D01*
X1713941Y-8596630D01*
X1726895Y-8601049D01*
X1740357Y-8603691D01*
G37*
G36*
X4754016Y-8604605D02*
G01*
X4767630Y-8603691D01*
X4781092Y-8601049D01*
X4794046Y-8596630D01*
X4806289Y-8590584D01*
X4817668Y-8582964D01*
X4827981Y-8573973D01*
X4836972Y-8563660D01*
X4844592Y-8552281D01*
X4850638Y-8540038D01*
X4855057Y-8527084D01*
X4857699Y-8513622D01*
X4858613Y-8500008D01*
X4857699Y-8486343D01*
X4855057Y-8472881D01*
X4850638Y-8459927D01*
X4844592Y-8447684D01*
X4836972Y-8436305D01*
X4827981Y-8425992D01*
X4817668Y-8417001D01*
X4806289Y-8409381D01*
X4794046Y-8403336D01*
X4781092Y-8398916D01*
X4767630Y-8396274D01*
X4754016Y-8395360D01*
X4740351Y-8396274D01*
X4726889Y-8398916D01*
X4713935Y-8403336D01*
X4701692Y-8409381D01*
X4690313Y-8417001D01*
X4680000Y-8425992D01*
X4671009Y-8436305D01*
X4663389Y-8447684D01*
X4657344Y-8459927D01*
X4652924Y-8472881D01*
X4650282Y-8486343D01*
X4649368Y-8500008D01*
X4650282Y-8513622D01*
X4652924Y-8527084D01*
X4657344Y-8540038D01*
X4663389Y-8552281D01*
X4671009Y-8563660D01*
X4680000Y-8573973D01*
X4690313Y-8582964D01*
X4701692Y-8590584D01*
X4713935Y-8596630D01*
X4726889Y-8601049D01*
X4740351Y-8603691D01*
G37*
G36*
X4500016Y-8604605D02*
G01*
X4513630Y-8603691D01*
X4527092Y-8601049D01*
X4540046Y-8596630D01*
X4552289Y-8590584D01*
X4563668Y-8582964D01*
X4573981Y-8573973D01*
X4582972Y-8563660D01*
X4590592Y-8552281D01*
X4596638Y-8540038D01*
X4601057Y-8527084D01*
X4603699Y-8513622D01*
X4604613Y-8500008D01*
X4603699Y-8486343D01*
X4601057Y-8472881D01*
X4596638Y-8459927D01*
X4590592Y-8447684D01*
X4582972Y-8436305D01*
X4573981Y-8425992D01*
X4563668Y-8417001D01*
X4552289Y-8409381D01*
X4544263Y-8405418D01*
X4541266Y-8403183D01*
X4539284Y-8399983D01*
X4538624Y-8396274D01*
X4538624Y-7632598D01*
X4539386Y-7628686D01*
X4541570Y-7625384D01*
X4544872Y-7623200D01*
X4548784Y-7622438D01*
X4722926Y-7622438D01*
X4729276Y-7621676D01*
X4734712Y-7619796D01*
X4739640Y-7616698D01*
X4743704Y-7612634D01*
X4746802Y-7607706D01*
X4748682Y-7602270D01*
X4749444Y-7595920D01*
X4749444Y-7404049D01*
X4748682Y-7397699D01*
X4746802Y-7392263D01*
X4743704Y-7387336D01*
X4739640Y-7383272D01*
X4734712Y-7380173D01*
X4729276Y-7378293D01*
X4722926Y-7377582D01*
X4548784Y-7377582D01*
X4544872Y-7376769D01*
X4541570Y-7374585D01*
X4539386Y-7371283D01*
X4538624Y-7367422D01*
X4538624Y-6236004D01*
X4539386Y-6232144D01*
X4541570Y-6228842D01*
X4543196Y-6227216D01*
X4548784Y-6219190D01*
X4552950Y-6210300D01*
X4555490Y-6200800D01*
X4556353Y-6190996D01*
X4555490Y-6181191D01*
X4552950Y-6171692D01*
X4548784Y-6162802D01*
X4543196Y-6154775D01*
X4536236Y-6147816D01*
X4528159Y-6142177D01*
X4519269Y-6138011D01*
X4509770Y-6135471D01*
X4500016Y-6134608D01*
X4490212Y-6135471D01*
X4480712Y-6138011D01*
X4471822Y-6142177D01*
X4463745Y-6147816D01*
X4456785Y-6154775D01*
X4451197Y-6162802D01*
X4447032Y-6171692D01*
X4444492Y-6181191D01*
X4443628Y-6190996D01*
X4444492Y-6200800D01*
X4447032Y-6210300D01*
X4451197Y-6219190D01*
X4456785Y-6227216D01*
X4458411Y-6228842D01*
X4460595Y-6232144D01*
X4461408Y-6236004D01*
X4461408Y-7367422D01*
X4460595Y-7371283D01*
X4458411Y-7374585D01*
X4455109Y-7376769D01*
X4451248Y-7377582D01*
X4277055Y-7377582D01*
X4270705Y-7378293D01*
X4265269Y-7380173D01*
X4260342Y-7383272D01*
X4256278Y-7387336D01*
X4253179Y-7392263D01*
X4251299Y-7397699D01*
X4250588Y-7404049D01*
X4250588Y-7595920D01*
X4251299Y-7602270D01*
X4253179Y-7607706D01*
X4256278Y-7612634D01*
X4260342Y-7616698D01*
X4265269Y-7619796D01*
X4270705Y-7621676D01*
X4277055Y-7622438D01*
X4451248Y-7622438D01*
X4455109Y-7623200D01*
X4458411Y-7625384D01*
X4460595Y-7628686D01*
X4461408Y-7632598D01*
X4461408Y-8396274D01*
X4460697Y-8399983D01*
X4458716Y-8403183D01*
X4455718Y-8405418D01*
X4447692Y-8409381D01*
X4436313Y-8417001D01*
X4426000Y-8425992D01*
X4417009Y-8436305D01*
X4409389Y-8447684D01*
X4403344Y-8459927D01*
X4398924Y-8472881D01*
X4396282Y-8486343D01*
X4395368Y-8500008D01*
X4396282Y-8513622D01*
X4398924Y-8527084D01*
X4403344Y-8540038D01*
X4409389Y-8552281D01*
X4417009Y-8563660D01*
X4426000Y-8573973D01*
X4436313Y-8582964D01*
X4447692Y-8590584D01*
X4459935Y-8596630D01*
X4472889Y-8601049D01*
X4486351Y-8603691D01*
G37*
G36*
X4200093Y-3118002D02*
G01*
X4213707Y-3117545D01*
X4227169Y-3115310D01*
X4240174Y-3111246D01*
X4252569Y-3105505D01*
X4264050Y-3098190D01*
X4274464Y-3089402D01*
X4283608Y-3079242D01*
X4291330Y-3068015D01*
X4297476Y-3055874D01*
X4301947Y-3042970D01*
X4304690Y-3029610D01*
X4305604Y-3015996D01*
X4304690Y-3002381D01*
X4301947Y-2989021D01*
X4297476Y-2976118D01*
X4291330Y-2963976D01*
X4283608Y-2952750D01*
X4274464Y-2942590D01*
X4264050Y-2933801D01*
X4252569Y-2926486D01*
X4240174Y-2920746D01*
X4227169Y-2916682D01*
X4213707Y-2914446D01*
X4200093Y-2913989D01*
X4186529Y-2915310D01*
X4173270Y-2918510D01*
X4160520Y-2923387D01*
X4148582Y-2929940D01*
X4137609Y-2938018D01*
X4127804Y-2947517D01*
X4119321Y-2958236D01*
X4112361Y-2969971D01*
X4107078Y-2982518D01*
X4103471Y-2995676D01*
X4101642Y-3009188D01*
X4101642Y-3022803D01*
X4103471Y-3036316D01*
X4107078Y-3049473D01*
X4112361Y-3062020D01*
X4119321Y-3073755D01*
X4127804Y-3084474D01*
X4137609Y-3093974D01*
X4148582Y-3102051D01*
X4160520Y-3108604D01*
X4173270Y-3113481D01*
X4186529Y-3116681D01*
G37*
G36*
X1598168Y-2864002D02*
G01*
X1611833Y-2863545D01*
X1625244Y-2861310D01*
X1638300Y-2857246D01*
X1650644Y-2851505D01*
X1662175Y-2844190D01*
X1672589Y-2835402D01*
X1681734Y-2825242D01*
X1689455Y-2814015D01*
X1695602Y-2801874D01*
X1700072Y-2788970D01*
X1702765Y-2775610D01*
X1703679Y-2761996D01*
X1702765Y-2748381D01*
X1700072Y-2735021D01*
X1695602Y-2722118D01*
X1689455Y-2709976D01*
X1681734Y-2698750D01*
X1672589Y-2688590D01*
X1662175Y-2679801D01*
X1650644Y-2672486D01*
X1638300Y-2666746D01*
X1625244Y-2662682D01*
X1611833Y-2660446D01*
X1598168Y-2659989D01*
X1584604Y-2661310D01*
X1571345Y-2664510D01*
X1558645Y-2669387D01*
X1546656Y-2675940D01*
X1535684Y-2684018D01*
X1525879Y-2693517D01*
X1517446Y-2704236D01*
X1510487Y-2715971D01*
X1505153Y-2728518D01*
X1501546Y-2741676D01*
X1499717Y-2755188D01*
X1499717Y-2768803D01*
X1501546Y-2782316D01*
X1505153Y-2795473D01*
X1510487Y-2808020D01*
X1517446Y-2819755D01*
X1525879Y-2830474D01*
X1535684Y-2839974D01*
X1546656Y-2848051D01*
X1558645Y-2854604D01*
X1571345Y-2859481D01*
X1584604Y-2862681D01*
G37*
G36*
X4200093Y-2864002D02*
G01*
X4213707Y-2863545D01*
X4227169Y-2861310D01*
X4240174Y-2857246D01*
X4252569Y-2851505D01*
X4264050Y-2844190D01*
X4274464Y-2835402D01*
X4283608Y-2825242D01*
X4291330Y-2814015D01*
X4297476Y-2801874D01*
X4301947Y-2788970D01*
X4304690Y-2775610D01*
X4305604Y-2761996D01*
X4304690Y-2748381D01*
X4301947Y-2735021D01*
X4297476Y-2722118D01*
X4291330Y-2709976D01*
X4283608Y-2698750D01*
X4274464Y-2688590D01*
X4264050Y-2679801D01*
X4252569Y-2672486D01*
X4240174Y-2666746D01*
X4227169Y-2662682D01*
X4213707Y-2660446D01*
X4200093Y-2659989D01*
X4186529Y-2661310D01*
X4173270Y-2664510D01*
X4160520Y-2669387D01*
X4148582Y-2675940D01*
X4137609Y-2684018D01*
X4127804Y-2693517D01*
X4119321Y-2704236D01*
X4112361Y-2715971D01*
X4107078Y-2728518D01*
X4103471Y-2741676D01*
X4101642Y-2755188D01*
X4101642Y-2768803D01*
X4103471Y-2782316D01*
X4107078Y-2795473D01*
X4112361Y-2808020D01*
X4119321Y-2819755D01*
X4127804Y-2830474D01*
X4137609Y-2839974D01*
X4148582Y-2848051D01*
X4160520Y-2854604D01*
X4173270Y-2859481D01*
X4186529Y-2862681D01*
G37*
G36*
X1598168Y-2610002D02*
G01*
X1611833Y-2609545D01*
X1625244Y-2607310D01*
X1638300Y-2603246D01*
X1650644Y-2597505D01*
X1662175Y-2590190D01*
X1672589Y-2581402D01*
X1681734Y-2571242D01*
X1689455Y-2560015D01*
X1695602Y-2547874D01*
X1700072Y-2534970D01*
X1702765Y-2521610D01*
X1703679Y-2507996D01*
X1702765Y-2494381D01*
X1700072Y-2481021D01*
X1695602Y-2468118D01*
X1689455Y-2455976D01*
X1681734Y-2444750D01*
X1672589Y-2434590D01*
X1662175Y-2425801D01*
X1650644Y-2418486D01*
X1638300Y-2412746D01*
X1625244Y-2408682D01*
X1611833Y-2406446D01*
X1598168Y-2405989D01*
X1584604Y-2407310D01*
X1571345Y-2410510D01*
X1558645Y-2415387D01*
X1546656Y-2421940D01*
X1535684Y-2430018D01*
X1525879Y-2439517D01*
X1517446Y-2450236D01*
X1510487Y-2461971D01*
X1505153Y-2474518D01*
X1501546Y-2487676D01*
X1499717Y-2501188D01*
X1499717Y-2514803D01*
X1501546Y-2528316D01*
X1505153Y-2541473D01*
X1510487Y-2554020D01*
X1517446Y-2565755D01*
X1525879Y-2576474D01*
X1535684Y-2585974D01*
X1546656Y-2594051D01*
X1558645Y-2600604D01*
X1571345Y-2605481D01*
X1584604Y-2608681D01*
G37*
G36*
X4200093Y-2610002D02*
G01*
X4213707Y-2609545D01*
X4227169Y-2607310D01*
X4240174Y-2603246D01*
X4252569Y-2597505D01*
X4264050Y-2590190D01*
X4274464Y-2581402D01*
X4283608Y-2571242D01*
X4291330Y-2560015D01*
X4297476Y-2547874D01*
X4301947Y-2534970D01*
X4304690Y-2521610D01*
X4305604Y-2507996D01*
X4304690Y-2494381D01*
X4301947Y-2481021D01*
X4297476Y-2468118D01*
X4291330Y-2455976D01*
X4283608Y-2444750D01*
X4274464Y-2434590D01*
X4264050Y-2425801D01*
X4252569Y-2418486D01*
X4240174Y-2412746D01*
X4227169Y-2408682D01*
X4213707Y-2406446D01*
X4200093Y-2405989D01*
X4186529Y-2407310D01*
X4173270Y-2410510D01*
X4160520Y-2415387D01*
X4148582Y-2421940D01*
X4137609Y-2430018D01*
X4127804Y-2439517D01*
X4119321Y-2450236D01*
X4112361Y-2461971D01*
X4107078Y-2474518D01*
X4103471Y-2487676D01*
X4101642Y-2501188D01*
X4101642Y-2514803D01*
X4103471Y-2528316D01*
X4107078Y-2541473D01*
X4112361Y-2554020D01*
X4119321Y-2565755D01*
X4127804Y-2576474D01*
X4137609Y-2585974D01*
X4148582Y-2594051D01*
X4160520Y-2600604D01*
X4173270Y-2605481D01*
X4186529Y-2608681D01*
G37*
G36*
X400558Y-2594102D02*
G01*
X599440Y-2594102D01*
X605739Y-2593390D01*
X611225Y-2591460D01*
X616102Y-2588412D01*
X620217Y-2584297D01*
X623265Y-2579420D01*
X625195Y-2573934D01*
X625906Y-2567635D01*
X625906Y-2416352D01*
X625195Y-2410053D01*
X623265Y-2404567D01*
X620217Y-2399690D01*
X616102Y-2395575D01*
X611225Y-2392527D01*
X605739Y-2390597D01*
X599440Y-2389886D01*
X400558Y-2389886D01*
X394258Y-2390597D01*
X388772Y-2392527D01*
X383895Y-2395575D01*
X379780Y-2399690D01*
X376732Y-2404567D01*
X374802Y-2410053D01*
X374091Y-2416352D01*
X374091Y-2567635D01*
X374802Y-2573934D01*
X376732Y-2579420D01*
X379780Y-2584297D01*
X383895Y-2588412D01*
X388772Y-2591460D01*
X394258Y-2593390D01*
G37*
G36*
X1598168Y-2356002D02*
G01*
X1611833Y-2355545D01*
X1625244Y-2353310D01*
X1638300Y-2349246D01*
X1650644Y-2343505D01*
X1662175Y-2336190D01*
X1672589Y-2327402D01*
X1681734Y-2317242D01*
X1689455Y-2306015D01*
X1695602Y-2293874D01*
X1700072Y-2280970D01*
X1702765Y-2267610D01*
X1703679Y-2253996D01*
X1702765Y-2240381D01*
X1700072Y-2227021D01*
X1695602Y-2214118D01*
X1689455Y-2201976D01*
X1681734Y-2190750D01*
X1672589Y-2180590D01*
X1662175Y-2171801D01*
X1650644Y-2164486D01*
X1638300Y-2158746D01*
X1625244Y-2154682D01*
X1611833Y-2152446D01*
X1598168Y-2151989D01*
X1584604Y-2153310D01*
X1571345Y-2156510D01*
X1558645Y-2161387D01*
X1546656Y-2167940D01*
X1535684Y-2176018D01*
X1525879Y-2185517D01*
X1517446Y-2196236D01*
X1510487Y-2207971D01*
X1505153Y-2220518D01*
X1501546Y-2233676D01*
X1499717Y-2247188D01*
X1499717Y-2260803D01*
X1501546Y-2274316D01*
X1505153Y-2287473D01*
X1510487Y-2300020D01*
X1517446Y-2311755D01*
X1525879Y-2322474D01*
X1535684Y-2331974D01*
X1546656Y-2340051D01*
X1558645Y-2346604D01*
X1571345Y-2351481D01*
X1584604Y-2354681D01*
G37*
G36*
X1598168Y-2102002D02*
G01*
X1611833Y-2101545D01*
X1625244Y-2099310D01*
X1638300Y-2095246D01*
X1650644Y-2089505D01*
X1662175Y-2082190D01*
X1672589Y-2073402D01*
X1681734Y-2063242D01*
X1689455Y-2052015D01*
X1695602Y-2039874D01*
X1700072Y-2026970D01*
X1702765Y-2013610D01*
X1703679Y-1999996D01*
X1702765Y-1986381D01*
X1700072Y-1973021D01*
X1695602Y-1960118D01*
X1689455Y-1947976D01*
X1681734Y-1936750D01*
X1672589Y-1926589D01*
X1662175Y-1917801D01*
X1650644Y-1910486D01*
X1638300Y-1904746D01*
X1625244Y-1900682D01*
X1611833Y-1898446D01*
X1598168Y-1897989D01*
X1584604Y-1899310D01*
X1571345Y-1902510D01*
X1558645Y-1907387D01*
X1546656Y-1913940D01*
X1535684Y-1922018D01*
X1525879Y-1931517D01*
X1517446Y-1942236D01*
X1510487Y-1953971D01*
X1505153Y-1966518D01*
X1501546Y-1979675D01*
X1499717Y-1993188D01*
X1499717Y-2006803D01*
X1501546Y-2020316D01*
X1505153Y-2033473D01*
X1510487Y-2046020D01*
X1517446Y-2057755D01*
X1525879Y-2068474D01*
X1535684Y-2077974D01*
X1546656Y-2086051D01*
X1558645Y-2092604D01*
X1571345Y-2097481D01*
X1584604Y-2100681D01*
G37*
G36*
X4200093Y-2102002D02*
G01*
X4213707Y-2101545D01*
X4227169Y-2099310D01*
X4240174Y-2095246D01*
X4252569Y-2089505D01*
X4264050Y-2082190D01*
X4274464Y-2073402D01*
X4283608Y-2063242D01*
X4291330Y-2052015D01*
X4297476Y-2039874D01*
X4301947Y-2026970D01*
X4304690Y-2013610D01*
X4305604Y-1999996D01*
X4304690Y-1986381D01*
X4301947Y-1973021D01*
X4297476Y-1960118D01*
X4291330Y-1947976D01*
X4283608Y-1936750D01*
X4274464Y-1926589D01*
X4264050Y-1917801D01*
X4252569Y-1910486D01*
X4240174Y-1904746D01*
X4227169Y-1900682D01*
X4213707Y-1898446D01*
X4200093Y-1897989D01*
X4186529Y-1899310D01*
X4173270Y-1902510D01*
X4160520Y-1907387D01*
X4148582Y-1913940D01*
X4137609Y-1922018D01*
X4127804Y-1931517D01*
X4119321Y-1942236D01*
X4112361Y-1953971D01*
X4107078Y-1966518D01*
X4103471Y-1979675D01*
X4101642Y-1993188D01*
X4101642Y-2006803D01*
X4103471Y-2020316D01*
X4107078Y-2033473D01*
X4112361Y-2046020D01*
X4119321Y-2057755D01*
X4127804Y-2068474D01*
X4137609Y-2077974D01*
X4148582Y-2086051D01*
X4160520Y-2092604D01*
X4173270Y-2097481D01*
X4186529Y-2100681D01*
G37*
G36*
X3847642Y-908456D02*
G01*
X3881983Y-908456D01*
X3888282Y-907745D01*
X3893769Y-905814D01*
X3898646Y-902766D01*
X3902760Y-898652D01*
X3905808Y-893775D01*
X3907739Y-888288D01*
X3908450Y-881989D01*
X3908450Y-847648D01*
X3847642Y-847648D01*
G37*
G36*
X3718001Y-908456D02*
G01*
X3752392Y-908456D01*
X3752392Y-847648D01*
X3691534Y-847648D01*
X3691534Y-881989D01*
X3692245Y-888288D01*
X3694176Y-893775D01*
X3697224Y-898652D01*
X3701338Y-902766D01*
X3706215Y-905814D01*
X3711701Y-907745D01*
G37*
G36*
X1248918Y-908456D02*
G01*
X1263091Y-907491D01*
X1276959Y-904748D01*
X1290421Y-900176D01*
X1303121Y-893927D01*
X1314907Y-886002D01*
X1325575Y-876655D01*
X1334922Y-865987D01*
X1342847Y-854202D01*
X1349095Y-841502D01*
X1353667Y-828040D01*
X1356410Y-814171D01*
X1357376Y-799998D01*
X1356410Y-785825D01*
X1353667Y-771956D01*
X1349095Y-758494D01*
X1342847Y-745794D01*
X1334922Y-734009D01*
X1325575Y-723341D01*
X1314907Y-713994D01*
X1308049Y-709371D01*
X1305255Y-706577D01*
X1303731Y-702919D01*
X1303731Y-698957D01*
X1305255Y-695299D01*
X1308049Y-692505D01*
X1314907Y-687882D01*
X1325575Y-678535D01*
X1334922Y-667867D01*
X1342847Y-656082D01*
X1349095Y-643382D01*
X1353667Y-629920D01*
X1356410Y-616051D01*
X1357376Y-601878D01*
X1356410Y-587705D01*
X1353667Y-573836D01*
X1349095Y-560374D01*
X1342847Y-547674D01*
X1334922Y-535889D01*
X1325575Y-525221D01*
X1314907Y-515874D01*
X1303121Y-507949D01*
X1290421Y-501700D01*
X1276959Y-497128D01*
X1263091Y-494385D01*
X1248918Y-493420D01*
X1234744Y-494385D01*
X1220876Y-497128D01*
X1207414Y-501700D01*
X1194714Y-507949D01*
X1182928Y-515874D01*
X1172260Y-525221D01*
X1162913Y-535889D01*
X1154988Y-547674D01*
X1148740Y-560374D01*
X1144168Y-573836D01*
X1141425Y-587705D01*
X1140460Y-601878D01*
X1141425Y-616051D01*
X1144168Y-629920D01*
X1148740Y-643382D01*
X1154988Y-656082D01*
X1162913Y-667867D01*
X1172260Y-678535D01*
X1182928Y-687882D01*
X1189786Y-692505D01*
X1192580Y-695299D01*
X1194104Y-698957D01*
X1194104Y-702919D01*
X1192580Y-706577D01*
X1189786Y-709371D01*
X1182928Y-713994D01*
X1172260Y-723341D01*
X1162913Y-734009D01*
X1154988Y-745794D01*
X1148740Y-758494D01*
X1144168Y-771956D01*
X1141425Y-785825D01*
X1140460Y-799998D01*
X1141425Y-814171D01*
X1144168Y-828040D01*
X1148740Y-841502D01*
X1154988Y-854202D01*
X1162913Y-865987D01*
X1172260Y-876655D01*
X1182928Y-886002D01*
X1194714Y-893927D01*
X1207414Y-900176D01*
X1220876Y-904748D01*
X1234744Y-907491D01*
G37*
G36*
X4048912Y-908456D02*
G01*
X4063085Y-907491D01*
X4076954Y-904748D01*
X4090415Y-900176D01*
X4103115Y-893927D01*
X4114901Y-886002D01*
X4125569Y-876655D01*
X4134916Y-865987D01*
X4142841Y-854202D01*
X4149090Y-841502D01*
X4153662Y-828040D01*
X4156405Y-814171D01*
X4157370Y-799998D01*
X4156405Y-785825D01*
X4153662Y-771956D01*
X4149090Y-758494D01*
X4142841Y-745794D01*
X4134916Y-734009D01*
X4125569Y-723341D01*
X4114901Y-713994D01*
X4108043Y-709371D01*
X4105249Y-706577D01*
X4103725Y-702919D01*
X4103725Y-698957D01*
X4105249Y-695299D01*
X4108043Y-692505D01*
X4114901Y-687882D01*
X4125569Y-678535D01*
X4134916Y-667867D01*
X4142841Y-656082D01*
X4149090Y-643382D01*
X4153662Y-629920D01*
X4156405Y-616051D01*
X4157370Y-601878D01*
X4156405Y-587705D01*
X4153662Y-573836D01*
X4149090Y-560374D01*
X4142841Y-547674D01*
X4134916Y-535889D01*
X4125569Y-525221D01*
X4114901Y-515874D01*
X4103115Y-507949D01*
X4090415Y-501700D01*
X4076954Y-497128D01*
X4063085Y-494385D01*
X4048912Y-493420D01*
X4034739Y-494385D01*
X4020870Y-497128D01*
X4007408Y-501700D01*
X3994708Y-507949D01*
X3982923Y-515874D01*
X3972255Y-525221D01*
X3962908Y-535889D01*
X3954983Y-547674D01*
X3948734Y-560374D01*
X3944162Y-573836D01*
X3941419Y-587705D01*
X3940454Y-601878D01*
X3941419Y-616051D01*
X3944162Y-629920D01*
X3948734Y-643382D01*
X3954983Y-656082D01*
X3962908Y-667867D01*
X3972255Y-678535D01*
X3982923Y-687882D01*
X3989781Y-692505D01*
X3992575Y-695299D01*
X3994099Y-698957D01*
X3994099Y-702919D01*
X3992575Y-706577D01*
X3989781Y-709371D01*
X3982923Y-713994D01*
X3972255Y-723341D01*
X3962908Y-734009D01*
X3954983Y-745794D01*
X3948734Y-758494D01*
X3944162Y-771956D01*
X3941419Y-785825D01*
X3940454Y-799998D01*
X3941419Y-814171D01*
X3944162Y-828040D01*
X3948734Y-841502D01*
X3954983Y-854202D01*
X3962908Y-865987D01*
X3972255Y-876655D01*
X3982923Y-886002D01*
X3994708Y-893927D01*
X4007408Y-900176D01*
X4020870Y-904748D01*
X4034739Y-907491D01*
G37*
G36*
X3691534Y-752398D02*
G01*
X3752392Y-752398D01*
X3752392Y-714146D01*
X3753104Y-710387D01*
X3755136Y-707186D01*
X3758285Y-704951D01*
X3761994Y-704037D01*
X3765804Y-704545D01*
X3771950Y-706628D01*
X3785819Y-709371D01*
X3799992Y-710336D01*
X3814165Y-709371D01*
X3828034Y-706628D01*
X3834180Y-704545D01*
X3837990Y-704037D01*
X3841699Y-704951D01*
X3844848Y-707186D01*
X3846880Y-710387D01*
X3847642Y-714146D01*
X3847642Y-752398D01*
X3908450Y-752398D01*
X3908450Y-718007D01*
X3907739Y-711708D01*
X3905808Y-706221D01*
X3902760Y-701344D01*
X3898646Y-697230D01*
X3893769Y-694182D01*
X3888282Y-692251D01*
X3886098Y-691997D01*
X3881932Y-690575D01*
X3878783Y-687527D01*
X3877208Y-683463D01*
X3877462Y-679043D01*
X3879596Y-675233D01*
X3885996Y-667867D01*
X3893921Y-656082D01*
X3900170Y-643382D01*
X3904742Y-629920D01*
X3907485Y-616051D01*
X3908450Y-601878D01*
X3907485Y-587705D01*
X3904742Y-573836D01*
X3900170Y-560374D01*
X3893921Y-547674D01*
X3885996Y-535889D01*
X3876649Y-525221D01*
X3865981Y-515874D01*
X3854196Y-507949D01*
X3841496Y-501700D01*
X3828034Y-497128D01*
X3814165Y-494385D01*
X3799992Y-493420D01*
X3785819Y-494385D01*
X3771950Y-497128D01*
X3758488Y-501700D01*
X3745788Y-507949D01*
X3734003Y-515874D01*
X3723335Y-525221D01*
X3713987Y-535889D01*
X3706063Y-547674D01*
X3699814Y-560374D01*
X3695242Y-573836D01*
X3692499Y-587705D01*
X3691534Y-601878D01*
X3692499Y-616051D01*
X3695242Y-629920D01*
X3699814Y-643382D01*
X3706063Y-656082D01*
X3713987Y-667867D01*
X3720388Y-675233D01*
X3722522Y-679043D01*
X3722776Y-683463D01*
X3721201Y-687527D01*
X3718051Y-690575D01*
X3713886Y-691997D01*
X3711701Y-692251D01*
X3706215Y-694182D01*
X3701338Y-697230D01*
X3697224Y-701344D01*
X3694176Y-706221D01*
X3692245Y-711708D01*
X3691534Y-718007D01*
G37*
G36*
X4526432Y-546506D02*
G01*
X4546701Y-545541D01*
X4566767Y-542696D01*
X4586528Y-537972D01*
X4605731Y-531469D01*
X4624222Y-523138D01*
X4641850Y-513130D01*
X4658512Y-501497D01*
X4673955Y-488391D01*
X4688128Y-473913D01*
X4700879Y-458114D01*
X4712106Y-441198D01*
X4721707Y-423316D01*
X4729581Y-404622D01*
X4735677Y-385267D01*
X4739944Y-365455D01*
X4742281Y-345287D01*
X4742789Y-325018D01*
X4741367Y-304800D01*
X4738014Y-284784D01*
X4732832Y-265176D01*
X4725873Y-246125D01*
X4717135Y-227787D01*
X4706721Y-210413D01*
X4694732Y-194056D01*
X4681220Y-178866D01*
X4666386Y-165049D01*
X4650333Y-152654D01*
X4633163Y-141833D01*
X4615078Y-132689D01*
X4596180Y-125272D01*
X4576724Y-119633D01*
X4556760Y-115824D01*
X4536592Y-113944D01*
X4516272Y-113944D01*
X4496104Y-115824D01*
X4476140Y-119633D01*
X4456684Y-125272D01*
X4437786Y-132689D01*
X4419701Y-141833D01*
X4402531Y-152654D01*
X4386478Y-165049D01*
X4371644Y-178866D01*
X4358132Y-194056D01*
X4346143Y-210413D01*
X4335729Y-227787D01*
X4326991Y-246125D01*
X4320032Y-265176D01*
X4314850Y-284784D01*
X4311497Y-304800D01*
X4310075Y-325018D01*
X4310583Y-345287D01*
X4312920Y-365455D01*
X4317187Y-385267D01*
X4323283Y-404622D01*
X4331157Y-423316D01*
X4340758Y-441198D01*
X4351985Y-458114D01*
X4364736Y-473913D01*
X4378909Y-488391D01*
X4394352Y-501497D01*
X4411014Y-513130D01*
X4428642Y-523138D01*
X4447133Y-531469D01*
X4466336Y-537972D01*
X4486097Y-542696D01*
X4506163Y-545541D01*
G37*
G36*
X3322472Y-546506D02*
G01*
X3342741Y-545541D01*
X3362807Y-542696D01*
X3382568Y-537972D01*
X3401771Y-531469D01*
X3420262Y-523138D01*
X3437890Y-513130D01*
X3454552Y-501497D01*
X3469995Y-488391D01*
X3484168Y-473913D01*
X3496919Y-458114D01*
X3508146Y-441198D01*
X3517747Y-423316D01*
X3525621Y-404622D01*
X3531717Y-385267D01*
X3535984Y-365455D01*
X3538321Y-345287D01*
X3538829Y-325018D01*
X3537407Y-304800D01*
X3534054Y-284784D01*
X3528872Y-265176D01*
X3521913Y-246125D01*
X3513175Y-227787D01*
X3502761Y-210413D01*
X3490772Y-194056D01*
X3477260Y-178866D01*
X3462426Y-165049D01*
X3446373Y-152654D01*
X3429203Y-141833D01*
X3411118Y-132689D01*
X3392220Y-125272D01*
X3372764Y-119633D01*
X3352800Y-115824D01*
X3332632Y-113944D01*
X3312312Y-113944D01*
X3292144Y-115824D01*
X3272180Y-119633D01*
X3252724Y-125272D01*
X3233826Y-132689D01*
X3215741Y-141833D01*
X3198571Y-152654D01*
X3182518Y-165049D01*
X3167684Y-178866D01*
X3154172Y-194056D01*
X3142183Y-210413D01*
X3131769Y-227787D01*
X3123031Y-246125D01*
X3116072Y-265176D01*
X3110890Y-284784D01*
X3107537Y-304800D01*
X3106115Y-325018D01*
X3106623Y-345287D01*
X3108960Y-365455D01*
X3113227Y-385267D01*
X3119323Y-404622D01*
X3127197Y-423316D01*
X3136798Y-441198D01*
X3148025Y-458114D01*
X3160776Y-473913D01*
X3174949Y-488391D01*
X3190392Y-501497D01*
X3207054Y-513130D01*
X3224682Y-523138D01*
X3243173Y-531469D01*
X3262376Y-537972D01*
X3282137Y-542696D01*
X3302203Y-545541D01*
G37*
G36*
X1726438Y-546506D02*
G01*
X1746707Y-545541D01*
X1766773Y-542696D01*
X1786534Y-537972D01*
X1805736Y-531469D01*
X1824228Y-523138D01*
X1841855Y-513130D01*
X1858518Y-501497D01*
X1873961Y-488391D01*
X1888134Y-473913D01*
X1900885Y-458114D01*
X1912112Y-441198D01*
X1921713Y-423316D01*
X1929587Y-404622D01*
X1935683Y-385267D01*
X1939950Y-365455D01*
X1942287Y-345287D01*
X1942795Y-325018D01*
X1941372Y-304800D01*
X1938020Y-284784D01*
X1932838Y-265176D01*
X1925878Y-246125D01*
X1917141Y-227787D01*
X1906727Y-210413D01*
X1894738Y-194056D01*
X1881225Y-178866D01*
X1866392Y-165049D01*
X1850339Y-152654D01*
X1833168Y-141833D01*
X1815084Y-132689D01*
X1796186Y-125272D01*
X1776730Y-119633D01*
X1756765Y-115824D01*
X1736598Y-113944D01*
X1716278Y-113944D01*
X1696110Y-115824D01*
X1676146Y-119633D01*
X1656689Y-125272D01*
X1637792Y-132689D01*
X1619707Y-141833D01*
X1602536Y-152654D01*
X1586484Y-165049D01*
X1571650Y-178866D01*
X1558137Y-194056D01*
X1546148Y-210413D01*
X1535734Y-227787D01*
X1526997Y-246125D01*
X1520037Y-265176D01*
X1514856Y-284784D01*
X1511503Y-304800D01*
X1510080Y-325018D01*
X1510588Y-345287D01*
X1512925Y-365455D01*
X1517192Y-385267D01*
X1523288Y-404622D01*
X1531162Y-423316D01*
X1540764Y-441198D01*
X1551990Y-458114D01*
X1564741Y-473913D01*
X1578914Y-488391D01*
X1594358Y-501497D01*
X1611020Y-513130D01*
X1628648Y-523138D01*
X1647139Y-531469D01*
X1666341Y-537972D01*
X1686102Y-542696D01*
X1706168Y-545541D01*
G37*
G36*
X522478Y-546506D02*
G01*
X542747Y-545541D01*
X562813Y-542696D01*
X582574Y-537972D01*
X601776Y-531469D01*
X620268Y-523138D01*
X637895Y-513130D01*
X654558Y-501497D01*
X670001Y-488391D01*
X684174Y-473913D01*
X696925Y-458114D01*
X708152Y-441198D01*
X717753Y-423316D01*
X725627Y-404622D01*
X731723Y-385267D01*
X735990Y-365455D01*
X738327Y-345287D01*
X738835Y-325018D01*
X737412Y-304800D01*
X734060Y-284784D01*
X728878Y-265176D01*
X721918Y-246125D01*
X713181Y-227787D01*
X702767Y-210413D01*
X690778Y-194056D01*
X677265Y-178866D01*
X662432Y-165049D01*
X646379Y-152654D01*
X629208Y-141833D01*
X611124Y-132689D01*
X592226Y-125272D01*
X572770Y-119633D01*
X552805Y-115824D01*
X532638Y-113944D01*
X512318Y-113944D01*
X492150Y-115824D01*
X472185Y-119633D01*
X452729Y-125272D01*
X433832Y-132689D01*
X415747Y-141833D01*
X398576Y-152654D01*
X382524Y-165049D01*
X367690Y-178866D01*
X354177Y-194056D01*
X342188Y-210413D01*
X331774Y-227787D01*
X323037Y-246125D01*
X316077Y-265176D01*
X310896Y-284784D01*
X307543Y-304800D01*
X306120Y-325018D01*
X306628Y-345287D01*
X308965Y-365455D01*
X313232Y-385267D01*
X319328Y-404622D01*
X327202Y-423316D01*
X336804Y-441198D01*
X348030Y-458114D01*
X360781Y-473913D01*
X374954Y-488391D01*
X390398Y-501497D01*
X407060Y-513130D01*
X424688Y-523138D01*
X443179Y-531469D01*
X462381Y-537972D01*
X482142Y-542696D01*
X502208Y-545541D01*
G37*

%LPD*%
G36*
X5039868Y-9974072D02*
G01*
X5035956Y-9973310D01*
X5032705Y-9971074D01*
X5030470Y-9967823D01*
X5029708Y-9963912D01*
X5029708Y-36068D01*
X5030470Y-32156D01*
X5032705Y-28905D01*
X5035956Y-26670D01*
X5039868Y-25908D01*
X9963912Y-25908D01*
X9967823Y-26670D01*
X9971125Y-28905D01*
X9973310Y-32156D01*
X9974072Y-36068D01*
X9974072Y-9963912D01*
X9973310Y-9967823D01*
X9971125Y-9971074D01*
X9967823Y-9973310D01*
X9963912Y-9974072D01*
G37*

%LPC*%
G36*
X5167833Y-9604654D02*
G01*
X5324144Y-9604654D01*
X5330494Y-9603892D01*
X5335930Y-9602012D01*
X5340858Y-9598914D01*
X5344922Y-9594850D01*
X5348020Y-9589922D01*
X5349900Y-9584486D01*
X5350662Y-9578136D01*
X5350662Y-9421825D01*
X5349900Y-9415475D01*
X5348020Y-9410039D01*
X5344922Y-9405112D01*
X5340858Y-9401048D01*
X5335930Y-9397949D01*
X5330494Y-9396069D01*
X5323128Y-9395358D01*
X5319217Y-9394545D01*
X5315915Y-9392361D01*
X5313730Y-9389059D01*
X5312968Y-9385198D01*
X5313730Y-9381286D01*
X5315915Y-9377984D01*
X6109716Y-8584184D01*
X6114846Y-8577935D01*
X6118402Y-8571280D01*
X6120587Y-8564067D01*
X6121044Y-8559393D01*
X6122416Y-8555228D01*
X6125413Y-8552027D01*
X6129477Y-8550351D01*
X6133846Y-8550605D01*
X6137757Y-8552637D01*
X6140399Y-8556091D01*
X6141364Y-8560409D01*
X6141364Y-8578138D01*
X6142075Y-8584488D01*
X6143955Y-8589924D01*
X6147054Y-8594852D01*
X6151118Y-8598916D01*
X6156045Y-8602014D01*
X6161481Y-8603894D01*
X6167831Y-8604656D01*
X6324142Y-8604656D01*
X6330492Y-8603894D01*
X6335928Y-8602014D01*
X6340856Y-8598916D01*
X6344920Y-8594852D01*
X6348018Y-8589924D01*
X6349898Y-8584488D01*
X6350660Y-8578138D01*
X6350660Y-8421827D01*
X6349898Y-8415477D01*
X6348018Y-8410041D01*
X6344920Y-8405114D01*
X6340856Y-8401050D01*
X6335928Y-8397951D01*
X6330492Y-8396071D01*
X6324142Y-8395360D01*
X6167831Y-8395360D01*
X6161481Y-8396071D01*
X6156045Y-8397951D01*
X6151118Y-8401050D01*
X6147054Y-8405114D01*
X6143955Y-8410041D01*
X6142075Y-8415477D01*
X6141669Y-8418982D01*
X6140246Y-8423148D01*
X6137249Y-8426297D01*
X6133185Y-8427872D01*
X6128816Y-8427669D01*
X6124956Y-8425586D01*
X6122314Y-8422132D01*
X6121400Y-8417864D01*
X6121400Y-5654090D01*
X6122162Y-5650230D01*
X6124397Y-5646928D01*
X6125972Y-5645302D01*
X6131610Y-5637276D01*
X6135776Y-5628386D01*
X6138316Y-5618886D01*
X6139180Y-5609082D01*
X6138316Y-5599277D01*
X6135776Y-5589778D01*
X6131610Y-5580888D01*
X6125972Y-5572861D01*
X6119012Y-5565902D01*
X6110986Y-5560263D01*
X6102096Y-5556097D01*
X6092596Y-5553557D01*
X6082792Y-5552694D01*
X6072987Y-5553557D01*
X6063488Y-5556097D01*
X6060338Y-5557570D01*
X6056426Y-5558536D01*
X6052413Y-5557875D01*
X6049010Y-5555691D01*
X6046724Y-5552338D01*
X6045911Y-5548376D01*
X6045911Y-918616D01*
X6046673Y-914704D01*
X6048857Y-911453D01*
X6052159Y-909218D01*
X6056071Y-908456D01*
X6081979Y-908456D01*
X6088278Y-907745D01*
X6093764Y-905814D01*
X6098641Y-902766D01*
X6102756Y-898652D01*
X6105804Y-893775D01*
X6107734Y-888288D01*
X6108446Y-881989D01*
X6108446Y-718007D01*
X6107734Y-711708D01*
X6105804Y-706221D01*
X6102756Y-701344D01*
X6098641Y-697230D01*
X6093764Y-694182D01*
X6088278Y-692251D01*
X6086094Y-691997D01*
X6081928Y-690575D01*
X6078778Y-687527D01*
X6077204Y-683463D01*
X6077458Y-679043D01*
X6079591Y-675233D01*
X6085992Y-667867D01*
X6093917Y-656082D01*
X6100165Y-643382D01*
X6104737Y-629920D01*
X6107480Y-616051D01*
X6108446Y-601878D01*
X6107480Y-587705D01*
X6104737Y-573836D01*
X6100165Y-560374D01*
X6093917Y-547674D01*
X6085992Y-535889D01*
X6076645Y-525221D01*
X6065977Y-515874D01*
X6054191Y-507949D01*
X6041491Y-501700D01*
X6028029Y-497128D01*
X6014161Y-494385D01*
X5999988Y-493420D01*
X5985814Y-494385D01*
X5971946Y-497128D01*
X5958484Y-501700D01*
X5945784Y-507949D01*
X5933998Y-515874D01*
X5923330Y-525221D01*
X5913983Y-535889D01*
X5906058Y-547674D01*
X5899810Y-560374D01*
X5895238Y-573836D01*
X5892495Y-587705D01*
X5891530Y-601878D01*
X5892495Y-616051D01*
X5895238Y-629920D01*
X5899810Y-643382D01*
X5906058Y-656082D01*
X5913983Y-667867D01*
X5920384Y-675233D01*
X5922518Y-679043D01*
X5922772Y-683463D01*
X5921197Y-687527D01*
X5918047Y-690575D01*
X5913882Y-691997D01*
X5911697Y-692251D01*
X5906211Y-694182D01*
X5901334Y-697230D01*
X5897219Y-701344D01*
X5894171Y-706221D01*
X5892241Y-711708D01*
X5891530Y-718007D01*
X5891530Y-881989D01*
X5892241Y-888288D01*
X5894171Y-893775D01*
X5897219Y-898652D01*
X5901334Y-902766D01*
X5906211Y-905814D01*
X5911697Y-907745D01*
X5917996Y-908456D01*
X5943904Y-908456D01*
X5947816Y-909218D01*
X5951118Y-911453D01*
X5953302Y-914704D01*
X5954064Y-918616D01*
X5954064Y-3089351D01*
X5953302Y-3093262D01*
X5951118Y-3096564D01*
X5947816Y-3098749D01*
X5943904Y-3099511D01*
X5940044Y-3098749D01*
X5936742Y-3096564D01*
X5900216Y-3059988D01*
X5898083Y-3056890D01*
X5897219Y-3053232D01*
X5897778Y-3049473D01*
X5900064Y-3042970D01*
X5902756Y-3029610D01*
X5903671Y-3015996D01*
X5902756Y-3002381D01*
X5900064Y-2989021D01*
X5895594Y-2976118D01*
X5889447Y-2963976D01*
X5881725Y-2952750D01*
X5872581Y-2942590D01*
X5862167Y-2933801D01*
X5850636Y-2926486D01*
X5838291Y-2920746D01*
X5825236Y-2916682D01*
X5811824Y-2914446D01*
X5798159Y-2913989D01*
X5784596Y-2915310D01*
X5771337Y-2918510D01*
X5758637Y-2923387D01*
X5746648Y-2929940D01*
X5735675Y-2938018D01*
X5725871Y-2947517D01*
X5717438Y-2958236D01*
X5710478Y-2969971D01*
X5705144Y-2982518D01*
X5701538Y-2995676D01*
X5699709Y-3009188D01*
X5699709Y-3022803D01*
X5701538Y-3036316D01*
X5705144Y-3049473D01*
X5710478Y-3062020D01*
X5717438Y-3073755D01*
X5725871Y-3084474D01*
X5735675Y-3093974D01*
X5746648Y-3102051D01*
X5758637Y-3108604D01*
X5771337Y-3113481D01*
X5784596Y-3116681D01*
X5798159Y-3118002D01*
X5811824Y-3117545D01*
X5825236Y-3115310D01*
X5835446Y-3112160D01*
X5839104Y-3111703D01*
X5842660Y-3112566D01*
X5845657Y-3114649D01*
X5909665Y-3178657D01*
X5911850Y-3181959D01*
X5912662Y-3185871D01*
X5912662Y-3221278D01*
X5911646Y-3225647D01*
X5908852Y-3229203D01*
X5904839Y-3231184D01*
X5900318Y-3231235D01*
X5896254Y-3229305D01*
X5893409Y-3225850D01*
X5889447Y-3217976D01*
X5881725Y-3206750D01*
X5872581Y-3196590D01*
X5862167Y-3187801D01*
X5850636Y-3180486D01*
X5838291Y-3174746D01*
X5825236Y-3170682D01*
X5811824Y-3168446D01*
X5798159Y-3167989D01*
X5784596Y-3169310D01*
X5771337Y-3172510D01*
X5758637Y-3177387D01*
X5746648Y-3183940D01*
X5735675Y-3192018D01*
X5725871Y-3201517D01*
X5717438Y-3212236D01*
X5710478Y-3223971D01*
X5705144Y-3236518D01*
X5701538Y-3249676D01*
X5699709Y-3263188D01*
X5699709Y-3276803D01*
X5701538Y-3290315D01*
X5705144Y-3303473D01*
X5710478Y-3316020D01*
X5717438Y-3327755D01*
X5725871Y-3338474D01*
X5735675Y-3347974D01*
X5746648Y-3356051D01*
X5758637Y-3362604D01*
X5771337Y-3367481D01*
X5784596Y-3370681D01*
X5798159Y-3372002D01*
X5811824Y-3371545D01*
X5825236Y-3369310D01*
X5838291Y-3365246D01*
X5850636Y-3359505D01*
X5862167Y-3352190D01*
X5872581Y-3343401D01*
X5881725Y-3333242D01*
X5889447Y-3322015D01*
X5893409Y-3314141D01*
X5896254Y-3310686D01*
X5900318Y-3308756D01*
X5904839Y-3308807D01*
X5908852Y-3310788D01*
X5911646Y-3314344D01*
X5912662Y-3318713D01*
X5912662Y-3475278D01*
X5911646Y-3479647D01*
X5908852Y-3483203D01*
X5904839Y-3485184D01*
X5900318Y-3485235D01*
X5896254Y-3483305D01*
X5893409Y-3479850D01*
X5889447Y-3471976D01*
X5881725Y-3460750D01*
X5872581Y-3450590D01*
X5862167Y-3441801D01*
X5850636Y-3434486D01*
X5838291Y-3428746D01*
X5825236Y-3424682D01*
X5811824Y-3422446D01*
X5798159Y-3421989D01*
X5784596Y-3423310D01*
X5771337Y-3426510D01*
X5758637Y-3431387D01*
X5746648Y-3437940D01*
X5735675Y-3446018D01*
X5725871Y-3455517D01*
X5717438Y-3466236D01*
X5710478Y-3477971D01*
X5705144Y-3490518D01*
X5701538Y-3503676D01*
X5699709Y-3517188D01*
X5699709Y-3530803D01*
X5701538Y-3544315D01*
X5705144Y-3557473D01*
X5710478Y-3570020D01*
X5717438Y-3581755D01*
X5725871Y-3592474D01*
X5735675Y-3601974D01*
X5746648Y-3610051D01*
X5758637Y-3616604D01*
X5771337Y-3621481D01*
X5784596Y-3624681D01*
X5798159Y-3626002D01*
X5811824Y-3625545D01*
X5825236Y-3623310D01*
X5835446Y-3620160D01*
X5839104Y-3619703D01*
X5842660Y-3620566D01*
X5845657Y-3622649D01*
X5868720Y-3645712D01*
X5870905Y-3649014D01*
X5871718Y-3652926D01*
X5871718Y-3683355D01*
X5870752Y-3687572D01*
X5868212Y-3691026D01*
X5864402Y-3693109D01*
X5860135Y-3693414D01*
X5856071Y-3691940D01*
X5850636Y-3688486D01*
X5838291Y-3682746D01*
X5825236Y-3678682D01*
X5811824Y-3676446D01*
X5798159Y-3675989D01*
X5784596Y-3677310D01*
X5771337Y-3680510D01*
X5758637Y-3685387D01*
X5746648Y-3691940D01*
X5735675Y-3700018D01*
X5725871Y-3709517D01*
X5717438Y-3720236D01*
X5710478Y-3731971D01*
X5705144Y-3744518D01*
X5701538Y-3757676D01*
X5699709Y-3771188D01*
X5699709Y-3784803D01*
X5701538Y-3798315D01*
X5705144Y-3811473D01*
X5710478Y-3824020D01*
X5717438Y-3835755D01*
X5725871Y-3846474D01*
X5735675Y-3855974D01*
X5746648Y-3864051D01*
X5758637Y-3870604D01*
X5771337Y-3875481D01*
X5784596Y-3878681D01*
X5798159Y-3880002D01*
X5811824Y-3879545D01*
X5825236Y-3877310D01*
X5838291Y-3873246D01*
X5850636Y-3867505D01*
X5856071Y-3864051D01*
X5860135Y-3862578D01*
X5864402Y-3862882D01*
X5868212Y-3864965D01*
X5870752Y-3868420D01*
X5871718Y-3872636D01*
X5871718Y-3937355D01*
X5870752Y-3941572D01*
X5868212Y-3945026D01*
X5864402Y-3947109D01*
X5860135Y-3947414D01*
X5856071Y-3945940D01*
X5850636Y-3942486D01*
X5838291Y-3936746D01*
X5825236Y-3932682D01*
X5811824Y-3930446D01*
X5798159Y-3929989D01*
X5784596Y-3931310D01*
X5771337Y-3934510D01*
X5758637Y-3939387D01*
X5746648Y-3945940D01*
X5735675Y-3954018D01*
X5725871Y-3963517D01*
X5717438Y-3974236D01*
X5710478Y-3985971D01*
X5705144Y-3998518D01*
X5701538Y-4011676D01*
X5699709Y-4025188D01*
X5699709Y-4038803D01*
X5701538Y-4052315D01*
X5705144Y-4065473D01*
X5710478Y-4078020D01*
X5717438Y-4089755D01*
X5725871Y-4100474D01*
X5735675Y-4109974D01*
X5746648Y-4118051D01*
X5758637Y-4124604D01*
X5771337Y-4129481D01*
X5784596Y-4132681D01*
X5798159Y-4134002D01*
X5811824Y-4133545D01*
X5825236Y-4131310D01*
X5838291Y-4127246D01*
X5850636Y-4121505D01*
X5856071Y-4118051D01*
X5860135Y-4116578D01*
X5864402Y-4116882D01*
X5868212Y-4118965D01*
X5870752Y-4122420D01*
X5871718Y-4126636D01*
X5871718Y-4191355D01*
X5870752Y-4195572D01*
X5868212Y-4199026D01*
X5864402Y-4201109D01*
X5860135Y-4201414D01*
X5856071Y-4199940D01*
X5850636Y-4196486D01*
X5838291Y-4190746D01*
X5825236Y-4186682D01*
X5811824Y-4184446D01*
X5798159Y-4183989D01*
X5784596Y-4185310D01*
X5771337Y-4188510D01*
X5758637Y-4193387D01*
X5746648Y-4199940D01*
X5735675Y-4208018D01*
X5725871Y-4217517D01*
X5717438Y-4228236D01*
X5710478Y-4239971D01*
X5705144Y-4252518D01*
X5701538Y-4265676D01*
X5699709Y-4279188D01*
X5699709Y-4292803D01*
X5701538Y-4306316D01*
X5705144Y-4319473D01*
X5710478Y-4332020D01*
X5717438Y-4343755D01*
X5725871Y-4354474D01*
X5735675Y-4363974D01*
X5746648Y-4372051D01*
X5758637Y-4378604D01*
X5771337Y-4383481D01*
X5784596Y-4386681D01*
X5798159Y-4388002D01*
X5811824Y-4387545D01*
X5825236Y-4385310D01*
X5838291Y-4381246D01*
X5850636Y-4375505D01*
X5856071Y-4372051D01*
X5860135Y-4370578D01*
X5864402Y-4370882D01*
X5868212Y-4372965D01*
X5870752Y-4376420D01*
X5871718Y-4380636D01*
X5871718Y-4445355D01*
X5870752Y-4449572D01*
X5868212Y-4453026D01*
X5864402Y-4455109D01*
X5860135Y-4455414D01*
X5856071Y-4453940D01*
X5850636Y-4450486D01*
X5838291Y-4444746D01*
X5825236Y-4440682D01*
X5811824Y-4438446D01*
X5798159Y-4437989D01*
X5784596Y-4439310D01*
X5771337Y-4442510D01*
X5758637Y-4447387D01*
X5746648Y-4453940D01*
X5735675Y-4462018D01*
X5725871Y-4471517D01*
X5717438Y-4482236D01*
X5710478Y-4493971D01*
X5705144Y-4506518D01*
X5701538Y-4519676D01*
X5699709Y-4533188D01*
X5699709Y-4546803D01*
X5701538Y-4560316D01*
X5705398Y-4574286D01*
X5705754Y-4577842D01*
X5704840Y-4581296D01*
X5702808Y-4584192D01*
X5346039Y-4940960D01*
X5340908Y-4947158D01*
X5337352Y-4953863D01*
X5335168Y-4961077D01*
X5334406Y-4969103D01*
X5334406Y-7367422D01*
X5333593Y-7371283D01*
X5331409Y-7374585D01*
X5328107Y-7376769D01*
X5324246Y-7377582D01*
X5277053Y-7377582D01*
X5270703Y-7378293D01*
X5265267Y-7380173D01*
X5260340Y-7383272D01*
X5256276Y-7387336D01*
X5253177Y-7392263D01*
X5251297Y-7397699D01*
X5250586Y-7404049D01*
X5250586Y-7595920D01*
X5251297Y-7602270D01*
X5253177Y-7607706D01*
X5256276Y-7612634D01*
X5260340Y-7616698D01*
X5265267Y-7619796D01*
X5270703Y-7621676D01*
X5277053Y-7622438D01*
X5451246Y-7622438D01*
X5455107Y-7623200D01*
X5458409Y-7625384D01*
X5460593Y-7628686D01*
X5461406Y-7632598D01*
X5461406Y-8396274D01*
X5460695Y-8399983D01*
X5458714Y-8403183D01*
X5455716Y-8405418D01*
X5447690Y-8409381D01*
X5436311Y-8417001D01*
X5425998Y-8425992D01*
X5417007Y-8436305D01*
X5409387Y-8447684D01*
X5403342Y-8459927D01*
X5398922Y-8472881D01*
X5396280Y-8486343D01*
X5395366Y-8500008D01*
X5396280Y-8513622D01*
X5398922Y-8527084D01*
X5403342Y-8540038D01*
X5409387Y-8552281D01*
X5417007Y-8563660D01*
X5425998Y-8573973D01*
X5436311Y-8582964D01*
X5447690Y-8590584D01*
X5459933Y-8596630D01*
X5472887Y-8601049D01*
X5486349Y-8603691D01*
X5500014Y-8604605D01*
X5513628Y-8603691D01*
X5527090Y-8601049D01*
X5540044Y-8596630D01*
X5552287Y-8590584D01*
X5563666Y-8582964D01*
X5573979Y-8573973D01*
X5582970Y-8563660D01*
X5590590Y-8552281D01*
X5596636Y-8540038D01*
X5601055Y-8527084D01*
X5603697Y-8513622D01*
X5604611Y-8500008D01*
X5603697Y-8486343D01*
X5601055Y-8472881D01*
X5596636Y-8459927D01*
X5590590Y-8447684D01*
X5582970Y-8436305D01*
X5573979Y-8425992D01*
X5563666Y-8417001D01*
X5552287Y-8409381D01*
X5544261Y-8405418D01*
X5541264Y-8403183D01*
X5539282Y-8399983D01*
X5538622Y-8396274D01*
X5538622Y-7632598D01*
X5539384Y-7628686D01*
X5541568Y-7625384D01*
X5544870Y-7623200D01*
X5548782Y-7622438D01*
X5722924Y-7622438D01*
X5729274Y-7621676D01*
X5734710Y-7619796D01*
X5739638Y-7616698D01*
X5743702Y-7612634D01*
X5746800Y-7607706D01*
X5748680Y-7602270D01*
X5749442Y-7595920D01*
X5749442Y-7404049D01*
X5748680Y-7397699D01*
X5746800Y-7392263D01*
X5743702Y-7387336D01*
X5739638Y-7383272D01*
X5734710Y-7380173D01*
X5729274Y-7378293D01*
X5722924Y-7377582D01*
X5548782Y-7377582D01*
X5544870Y-7376769D01*
X5541568Y-7374585D01*
X5539384Y-7371283D01*
X5538622Y-7367422D01*
X5538622Y-4968341D01*
X5539384Y-4964480D01*
X5541568Y-4961178D01*
X5686348Y-4816398D01*
X5689904Y-4814062D01*
X5694070Y-4813401D01*
X5698134Y-4814519D01*
X5701436Y-4817110D01*
X5703366Y-4820869D01*
X5705144Y-4827473D01*
X5710478Y-4840020D01*
X5717438Y-4851755D01*
X5725871Y-4862474D01*
X5735675Y-4871974D01*
X5742990Y-4877358D01*
X5745530Y-4880051D01*
X5746902Y-4883454D01*
X5747004Y-4887112D01*
X5745784Y-4890566D01*
X5742635Y-4894072D01*
X5665012Y-4971694D01*
X5659882Y-4977892D01*
X5656326Y-4984597D01*
X5654141Y-4991811D01*
X5653328Y-4999837D01*
X5653328Y-6961581D01*
X5654141Y-6969607D01*
X5656326Y-6976821D01*
X5659882Y-6983475D01*
X5665012Y-6989724D01*
X5872175Y-7196886D01*
X5874359Y-7200188D01*
X5875172Y-7204100D01*
X5875172Y-7696047D01*
X5874359Y-7699959D01*
X5872175Y-7703261D01*
X5870549Y-7704836D01*
X5864961Y-7712913D01*
X5860796Y-7721803D01*
X5858256Y-7731302D01*
X5857392Y-7741107D01*
X5858256Y-7750860D01*
X5860796Y-7760360D01*
X5864961Y-7769250D01*
X5870549Y-7777327D01*
X5877509Y-7784287D01*
X5885586Y-7789875D01*
X5894476Y-7794040D01*
X5903976Y-7796580D01*
X5913780Y-7797444D01*
X5923534Y-7796580D01*
X5933033Y-7794040D01*
X5941923Y-7789875D01*
X5950000Y-7784287D01*
X5956960Y-7777327D01*
X5962548Y-7769250D01*
X5966714Y-7760360D01*
X5969254Y-7750860D01*
X5970117Y-7741107D01*
X5969254Y-7731302D01*
X5966714Y-7721803D01*
X5962548Y-7712913D01*
X5956960Y-7704836D01*
X5955334Y-7703261D01*
X5953150Y-7699959D01*
X5952388Y-7696047D01*
X5952388Y-7184390D01*
X5951575Y-7176363D01*
X5949391Y-7169150D01*
X5945835Y-7162444D01*
X5940704Y-7156246D01*
X5733542Y-6949033D01*
X5731306Y-6945731D01*
X5730544Y-6941870D01*
X5730544Y-6666280D01*
X5731408Y-6662166D01*
X5733846Y-6658762D01*
X5737453Y-6656628D01*
X5741619Y-6656171D01*
X5745632Y-6657390D01*
X5758637Y-6664604D01*
X5771337Y-6669481D01*
X5784596Y-6672681D01*
X5798159Y-6674002D01*
X5811824Y-6673545D01*
X5825236Y-6671309D01*
X5838291Y-6667246D01*
X5850636Y-6661505D01*
X5862167Y-6654190D01*
X5872581Y-6645402D01*
X5881725Y-6635242D01*
X5889447Y-6624015D01*
X5895594Y-6611874D01*
X5900064Y-6598970D01*
X5902756Y-6585610D01*
X5903671Y-6571996D01*
X5902756Y-6558381D01*
X5900013Y-6544919D01*
X5899912Y-6541617D01*
X5900877Y-6538417D01*
X5902807Y-6535724D01*
X6026861Y-6411671D01*
X6030112Y-6409486D01*
X6034024Y-6408674D01*
X6037935Y-6409486D01*
X6041186Y-6411671D01*
X6043422Y-6414973D01*
X6044184Y-6418834D01*
X6044184Y-8536330D01*
X6043422Y-8540191D01*
X6041186Y-8543493D01*
X5219039Y-9365691D01*
X5213908Y-9371888D01*
X5210352Y-9378594D01*
X5207101Y-9389719D01*
X5204866Y-9392716D01*
X5201666Y-9394647D01*
X5198008Y-9395358D01*
X5167833Y-9395358D01*
X5161483Y-9396069D01*
X5156047Y-9397949D01*
X5151120Y-9401048D01*
X5147056Y-9405112D01*
X5143957Y-9410039D01*
X5142077Y-9415475D01*
X5141366Y-9421825D01*
X5141366Y-9578136D01*
X5142077Y-9584486D01*
X5143957Y-9589922D01*
X5147056Y-9594850D01*
X5151120Y-9598914D01*
X5156047Y-9602012D01*
X5161483Y-9603892D01*
G37*
G36*
X6167831Y-9604654D02*
G01*
X6324142Y-9604654D01*
X6330492Y-9603892D01*
X6335928Y-9602012D01*
X6340856Y-9598914D01*
X6344920Y-9594850D01*
X6348018Y-9589922D01*
X6349898Y-9584486D01*
X6350660Y-9578136D01*
X6350660Y-9421825D01*
X6349898Y-9415475D01*
X6348018Y-9410039D01*
X6344920Y-9405112D01*
X6340856Y-9401048D01*
X6335928Y-9397949D01*
X6330492Y-9396069D01*
X6323126Y-9395358D01*
X6319215Y-9394545D01*
X6315913Y-9392361D01*
X6313728Y-9389059D01*
X6312966Y-9385198D01*
X6313728Y-9381286D01*
X6315913Y-9377984D01*
X7110425Y-8583472D01*
X7115556Y-8577275D01*
X7119112Y-8570569D01*
X7121448Y-8562848D01*
X7123430Y-8559241D01*
X7126630Y-8556701D01*
X7130592Y-8555634D01*
X7134656Y-8556244D01*
X7138162Y-8558377D01*
X7140498Y-8561781D01*
X7141362Y-8565794D01*
X7141362Y-8578138D01*
X7142073Y-8584488D01*
X7143953Y-8589924D01*
X7147052Y-8594852D01*
X7151116Y-8598916D01*
X7156043Y-8602014D01*
X7161479Y-8603894D01*
X7167829Y-8604656D01*
X7309866Y-8604656D01*
X7313726Y-8605418D01*
X7317028Y-8607602D01*
X7319213Y-8610904D01*
X7320025Y-8614816D01*
X7320025Y-9260484D01*
X7319213Y-9264396D01*
X7317028Y-9267698D01*
X7219035Y-9365691D01*
X7213904Y-9371888D01*
X7210348Y-9378594D01*
X7207097Y-9389719D01*
X7204862Y-9392716D01*
X7201662Y-9394647D01*
X7198004Y-9395358D01*
X7167829Y-9395358D01*
X7161479Y-9396069D01*
X7156043Y-9397949D01*
X7151116Y-9401048D01*
X7147052Y-9405112D01*
X7143953Y-9410039D01*
X7142073Y-9415475D01*
X7141362Y-9421825D01*
X7141362Y-9578136D01*
X7142073Y-9584486D01*
X7143953Y-9589922D01*
X7147052Y-9594850D01*
X7151116Y-9598914D01*
X7156043Y-9602012D01*
X7161479Y-9603892D01*
X7167829Y-9604654D01*
X7324140Y-9604654D01*
X7330490Y-9603892D01*
X7335926Y-9602012D01*
X7340853Y-9598914D01*
X7344918Y-9594850D01*
X7348016Y-9589922D01*
X7349896Y-9584486D01*
X7350658Y-9578136D01*
X7350658Y-9421825D01*
X7349896Y-9415475D01*
X7348016Y-9410039D01*
X7344918Y-9405112D01*
X7340853Y-9401048D01*
X7335926Y-9397949D01*
X7330490Y-9396069D01*
X7323124Y-9395358D01*
X7319213Y-9394545D01*
X7315911Y-9392361D01*
X7313726Y-9389059D01*
X7312964Y-9385198D01*
X7313726Y-9381286D01*
X7315911Y-9377984D01*
X7385558Y-9308338D01*
X7390688Y-9302140D01*
X7394244Y-9295434D01*
X7396429Y-9288221D01*
X7397242Y-9280194D01*
X7397242Y-8567572D01*
X7398105Y-8563406D01*
X7400696Y-8559952D01*
X7404404Y-8557869D01*
X7408722Y-8557514D01*
X7412736Y-8558987D01*
X7415834Y-8561933D01*
X7417003Y-8563660D01*
X7425994Y-8573973D01*
X7436307Y-8582964D01*
X7447686Y-8590584D01*
X7459929Y-8596630D01*
X7472883Y-8601049D01*
X7486345Y-8603691D01*
X7500010Y-8604605D01*
X7513624Y-8603691D01*
X7527086Y-8601049D01*
X7540040Y-8596630D01*
X7552283Y-8590584D01*
X7563662Y-8582964D01*
X7573975Y-8573973D01*
X7582966Y-8563660D01*
X7590586Y-8552281D01*
X7596631Y-8540038D01*
X7601051Y-8527084D01*
X7603693Y-8513622D01*
X7604607Y-8500008D01*
X7603693Y-8486343D01*
X7601051Y-8472881D01*
X7596631Y-8459927D01*
X7590586Y-8447684D01*
X7582966Y-8436305D01*
X7573975Y-8425992D01*
X7563662Y-8417001D01*
X7552283Y-8409381D01*
X7540040Y-8403336D01*
X7527086Y-8398916D01*
X7513624Y-8396274D01*
X7500010Y-8395360D01*
X7486345Y-8396274D01*
X7472883Y-8398916D01*
X7459929Y-8403336D01*
X7447686Y-8409381D01*
X7436307Y-8417001D01*
X7425994Y-8425992D01*
X7417003Y-8436305D01*
X7415834Y-8438032D01*
X7412736Y-8440978D01*
X7408722Y-8442452D01*
X7404404Y-8442096D01*
X7400696Y-8440013D01*
X7398105Y-8436559D01*
X7397242Y-8432393D01*
X7397242Y-8170875D01*
X7398003Y-8167014D01*
X7400188Y-8163712D01*
X7529322Y-8034578D01*
X7534452Y-8028330D01*
X7538008Y-8021675D01*
X7540193Y-8014462D01*
X7541006Y-8006435D01*
X7541006Y-7632598D01*
X7541768Y-7628686D01*
X7543952Y-7625384D01*
X7547254Y-7623200D01*
X7551166Y-7622438D01*
X7722920Y-7622438D01*
X7729270Y-7621676D01*
X7734706Y-7619796D01*
X7739634Y-7616698D01*
X7743698Y-7612634D01*
X7746796Y-7607706D01*
X7748676Y-7602270D01*
X7749438Y-7595920D01*
X7749438Y-7404049D01*
X7748676Y-7397699D01*
X7746796Y-7392263D01*
X7743698Y-7387336D01*
X7739634Y-7383272D01*
X7734706Y-7380173D01*
X7729270Y-7378293D01*
X7722920Y-7377582D01*
X7551166Y-7377582D01*
X7547254Y-7376769D01*
X7543952Y-7374585D01*
X7541768Y-7371283D01*
X7541006Y-7367422D01*
X7541006Y-4699304D01*
X7541768Y-4695444D01*
X7543952Y-4692142D01*
X8359444Y-3876649D01*
X8362645Y-3874465D01*
X8366455Y-3873652D01*
X8370265Y-3874363D01*
X8373262Y-3875481D01*
X8386521Y-3878681D01*
X8400084Y-3880002D01*
X8413699Y-3879545D01*
X8427161Y-3877310D01*
X8440166Y-3873246D01*
X8452561Y-3867505D01*
X8464042Y-3860190D01*
X8465515Y-3858920D01*
X8468868Y-3857091D01*
X8472627Y-3856532D01*
X8476335Y-3857498D01*
X8479434Y-3859733D01*
X8481517Y-3862933D01*
X8482228Y-3866692D01*
X8482228Y-3943299D01*
X8481517Y-3947058D01*
X8479434Y-3950258D01*
X8476335Y-3952494D01*
X8472627Y-3953459D01*
X8468868Y-3952900D01*
X8465515Y-3951071D01*
X8464042Y-3949801D01*
X8452561Y-3942486D01*
X8440166Y-3936746D01*
X8427161Y-3932682D01*
X8413699Y-3930446D01*
X8400084Y-3929989D01*
X8386521Y-3931310D01*
X8373262Y-3934510D01*
X8360511Y-3939387D01*
X8348573Y-3945940D01*
X8337600Y-3954018D01*
X8327796Y-3963517D01*
X8319312Y-3974236D01*
X8312353Y-3985971D01*
X8307070Y-3998518D01*
X8303463Y-4011676D01*
X8301634Y-4025188D01*
X8301634Y-4038803D01*
X8303463Y-4052315D01*
X8307324Y-4066286D01*
X8307628Y-4069842D01*
X8306714Y-4073296D01*
X8304682Y-4076192D01*
X8083651Y-4297222D01*
X8078520Y-4303471D01*
X8074964Y-4310126D01*
X8072780Y-4317339D01*
X8072018Y-4325366D01*
X8072018Y-9257436D01*
X8072780Y-9265462D01*
X8074964Y-9272676D01*
X8078520Y-9279382D01*
X8083651Y-9285579D01*
X8176056Y-9377984D01*
X8178241Y-9381286D01*
X8179003Y-9385198D01*
X8178241Y-9389059D01*
X8176056Y-9392361D01*
X8172754Y-9394545D01*
X8167827Y-9395358D01*
X8161477Y-9396069D01*
X8156041Y-9397949D01*
X8151114Y-9401048D01*
X8147050Y-9405112D01*
X8143951Y-9410039D01*
X8142071Y-9415475D01*
X8141360Y-9421825D01*
X8141360Y-9578136D01*
X8142071Y-9584486D01*
X8143951Y-9589922D01*
X8147050Y-9594850D01*
X8151114Y-9598914D01*
X8156041Y-9602012D01*
X8161477Y-9603892D01*
X8167827Y-9604654D01*
X8324138Y-9604654D01*
X8330488Y-9603892D01*
X8335924Y-9602012D01*
X8340852Y-9598914D01*
X8344916Y-9594850D01*
X8348014Y-9589922D01*
X8349894Y-9584486D01*
X8350656Y-9578136D01*
X8350656Y-9421825D01*
X8349894Y-9415475D01*
X8348014Y-9410039D01*
X8344916Y-9405112D01*
X8340852Y-9401048D01*
X8335924Y-9397949D01*
X8330488Y-9396069D01*
X8324138Y-9395358D01*
X8293963Y-9395358D01*
X8290306Y-9394647D01*
X8287105Y-9392716D01*
X8284870Y-9389719D01*
X8281619Y-9378594D01*
X8278063Y-9371888D01*
X8272932Y-9365691D01*
X8152180Y-9244939D01*
X8149996Y-9241637D01*
X8149234Y-9237726D01*
X8149234Y-8613902D01*
X8150098Y-8609736D01*
X8152587Y-8606332D01*
X8156295Y-8604199D01*
X8160512Y-8603792D01*
X8167827Y-8604656D01*
X8324138Y-8604656D01*
X8330488Y-8603894D01*
X8335924Y-8602014D01*
X8340852Y-8598916D01*
X8344916Y-8594852D01*
X8348014Y-8589924D01*
X8349894Y-8584488D01*
X8350656Y-8578138D01*
X8350656Y-8429752D01*
X8351418Y-8425891D01*
X8353602Y-8422589D01*
X8356904Y-8420354D01*
X8360816Y-8419592D01*
X8364677Y-8420354D01*
X8367979Y-8422589D01*
X8399373Y-8453983D01*
X8401507Y-8457082D01*
X8402320Y-8460689D01*
X8401812Y-8464397D01*
X8398916Y-8472881D01*
X8396274Y-8486343D01*
X8395360Y-8500008D01*
X8396274Y-8513622D01*
X8398916Y-8527084D01*
X8403336Y-8540038D01*
X8409381Y-8552281D01*
X8417001Y-8563660D01*
X8425992Y-8573973D01*
X8436305Y-8582964D01*
X8447684Y-8590584D01*
X8459927Y-8596630D01*
X8472881Y-8601049D01*
X8486343Y-8603691D01*
X8500008Y-8604605D01*
X8513622Y-8603691D01*
X8527084Y-8601049D01*
X8540038Y-8596630D01*
X8552281Y-8590584D01*
X8563660Y-8582964D01*
X8573973Y-8573973D01*
X8582964Y-8563660D01*
X8590584Y-8552281D01*
X8596630Y-8540038D01*
X8601049Y-8527084D01*
X8603691Y-8513622D01*
X8604605Y-8500008D01*
X8603691Y-8486343D01*
X8601049Y-8472881D01*
X8596630Y-8459927D01*
X8590584Y-8447684D01*
X8582964Y-8436305D01*
X8573973Y-8425992D01*
X8563660Y-8417001D01*
X8552281Y-8409381D01*
X8540038Y-8403336D01*
X8527084Y-8398916D01*
X8513622Y-8396274D01*
X8500008Y-8395360D01*
X8486343Y-8396274D01*
X8472881Y-8398916D01*
X8464397Y-8401812D01*
X8460689Y-8402320D01*
X8457082Y-8401507D01*
X8453983Y-8399373D01*
X8221522Y-8166912D01*
X8219338Y-8163610D01*
X8218576Y-8159750D01*
X8218576Y-7765338D01*
X8219338Y-7761478D01*
X8221522Y-7758175D01*
X8224824Y-7755940D01*
X8228736Y-7755178D01*
X8232597Y-7755940D01*
X8235899Y-7758175D01*
X9204401Y-8726678D01*
X9206585Y-8729980D01*
X9207398Y-8733840D01*
X9207398Y-9385198D01*
X9206585Y-9389059D01*
X9204401Y-9392361D01*
X9201099Y-9394545D01*
X9197238Y-9395358D01*
X9167825Y-9395358D01*
X9161475Y-9396069D01*
X9156039Y-9397949D01*
X9151112Y-9401048D01*
X9147048Y-9405112D01*
X9143949Y-9410039D01*
X9142069Y-9415475D01*
X9141358Y-9421825D01*
X9141358Y-9578136D01*
X9142069Y-9584486D01*
X9143949Y-9589922D01*
X9147048Y-9594850D01*
X9151112Y-9598914D01*
X9156039Y-9602012D01*
X9161475Y-9603892D01*
X9167825Y-9604654D01*
X9324136Y-9604654D01*
X9330486Y-9603892D01*
X9335922Y-9602012D01*
X9340850Y-9598914D01*
X9344914Y-9594850D01*
X9348012Y-9589922D01*
X9349892Y-9584486D01*
X9350654Y-9578136D01*
X9350654Y-9421825D01*
X9349892Y-9415475D01*
X9348012Y-9410039D01*
X9344914Y-9405112D01*
X9340850Y-9401048D01*
X9335922Y-9397949D01*
X9330486Y-9396069D01*
X9324136Y-9395358D01*
X9294774Y-9395358D01*
X9290862Y-9394545D01*
X9287560Y-9392361D01*
X9285376Y-9389059D01*
X9284614Y-9385198D01*
X9284614Y-8714130D01*
X9283801Y-8706104D01*
X9281617Y-8698890D01*
X9278061Y-8692235D01*
X9272930Y-8685987D01*
X9208922Y-8621979D01*
X9206687Y-8618677D01*
X9205925Y-8614816D01*
X9206687Y-8610904D01*
X9208922Y-8607602D01*
X9212224Y-8605418D01*
X9216085Y-8604656D01*
X9324136Y-8604656D01*
X9330486Y-8603894D01*
X9335922Y-8602014D01*
X9340850Y-8598916D01*
X9344914Y-8594852D01*
X9348012Y-8589924D01*
X9349892Y-8584488D01*
X9350654Y-8578138D01*
X9350654Y-8421827D01*
X9349892Y-8415477D01*
X9348012Y-8410041D01*
X9344914Y-8405114D01*
X9340850Y-8401050D01*
X9335922Y-8397951D01*
X9330486Y-8396071D01*
X9324136Y-8395360D01*
X9167825Y-8395360D01*
X9161475Y-8396071D01*
X9156039Y-8397951D01*
X9151112Y-8401050D01*
X9147048Y-8405114D01*
X9143949Y-8410041D01*
X9142069Y-8415477D01*
X9141358Y-8421827D01*
X9141358Y-8529878D01*
X9140545Y-8533739D01*
X9138361Y-8537041D01*
X9135059Y-8539276D01*
X9131198Y-8540038D01*
X9127286Y-8539276D01*
X9123984Y-8537041D01*
X8289950Y-7703007D01*
X8287766Y-7699705D01*
X8287003Y-7695844D01*
X8287003Y-7632598D01*
X8287766Y-7628686D01*
X8289950Y-7625384D01*
X8293252Y-7623200D01*
X8297164Y-7622438D01*
X8468918Y-7622438D01*
X8475268Y-7621676D01*
X8480704Y-7619796D01*
X8485632Y-7616698D01*
X8489696Y-7612634D01*
X8491372Y-7609941D01*
X8494217Y-7606995D01*
X8497925Y-7605420D01*
X8502040Y-7605420D01*
X8505748Y-7606995D01*
X8508593Y-7609941D01*
X8510270Y-7612634D01*
X8514334Y-7616698D01*
X8519261Y-7619796D01*
X8524697Y-7621676D01*
X8531047Y-7622438D01*
X8722918Y-7622438D01*
X8729268Y-7621676D01*
X8734704Y-7619796D01*
X8739632Y-7616698D01*
X8743696Y-7612634D01*
X8746794Y-7607706D01*
X8748674Y-7602270D01*
X8749436Y-7595920D01*
X8749436Y-7404049D01*
X8748674Y-7397699D01*
X8746794Y-7392263D01*
X8743696Y-7387336D01*
X8739632Y-7383272D01*
X8734704Y-7380173D01*
X8729268Y-7378293D01*
X8722918Y-7377582D01*
X8531047Y-7377582D01*
X8524697Y-7378293D01*
X8519261Y-7380173D01*
X8514334Y-7383272D01*
X8510270Y-7387336D01*
X8508593Y-7390028D01*
X8505748Y-7392974D01*
X8502040Y-7394549D01*
X8497925Y-7394549D01*
X8494217Y-7392974D01*
X8491372Y-7390028D01*
X8489696Y-7387336D01*
X8485632Y-7383272D01*
X8480704Y-7380173D01*
X8475268Y-7378293D01*
X8468918Y-7377582D01*
X8450122Y-7377582D01*
X8446211Y-7376769D01*
X8442909Y-7374585D01*
X8440724Y-7371283D01*
X8439962Y-7367422D01*
X8440724Y-7363510D01*
X8442909Y-7360208D01*
X8547760Y-7255357D01*
X8552891Y-7249109D01*
X8556447Y-7242454D01*
X8558631Y-7235240D01*
X8559444Y-7227214D01*
X8559444Y-2371852D01*
X8558631Y-2363825D01*
X8556447Y-2356612D01*
X8552891Y-2349906D01*
X8547760Y-2343708D01*
X8502091Y-2297988D01*
X8499957Y-2294890D01*
X8499144Y-2291232D01*
X8499703Y-2287473D01*
X8501938Y-2280970D01*
X8504682Y-2267610D01*
X8505596Y-2253996D01*
X8504682Y-2240381D01*
X8501938Y-2227021D01*
X8497468Y-2214118D01*
X8491321Y-2201976D01*
X8483600Y-2190750D01*
X8474456Y-2180590D01*
X8464042Y-2171801D01*
X8452561Y-2164486D01*
X8440166Y-2158746D01*
X8427161Y-2154682D01*
X8413699Y-2152446D01*
X8400084Y-2151989D01*
X8386521Y-2153310D01*
X8373262Y-2156510D01*
X8360511Y-2161387D01*
X8348573Y-2167940D01*
X8337600Y-2176018D01*
X8327796Y-2185517D01*
X8319312Y-2196236D01*
X8312353Y-2207971D01*
X8307070Y-2220518D01*
X8303463Y-2233676D01*
X8301634Y-2247188D01*
X8301634Y-2260803D01*
X8303463Y-2274316D01*
X8307070Y-2287473D01*
X8312353Y-2300020D01*
X8319312Y-2311755D01*
X8327796Y-2322474D01*
X8337600Y-2331974D01*
X8348573Y-2340051D01*
X8360511Y-2346604D01*
X8373262Y-2351481D01*
X8386521Y-2354681D01*
X8400084Y-2356002D01*
X8413699Y-2355545D01*
X8427161Y-2353310D01*
X8437372Y-2350160D01*
X8440978Y-2349703D01*
X8444534Y-2350566D01*
X8447532Y-2352649D01*
X8479231Y-2384348D01*
X8481466Y-2387650D01*
X8482228Y-2391562D01*
X8482228Y-2419299D01*
X8481517Y-2423058D01*
X8479434Y-2426258D01*
X8476335Y-2428494D01*
X8472627Y-2429459D01*
X8468868Y-2428900D01*
X8465515Y-2427071D01*
X8464042Y-2425801D01*
X8452561Y-2418486D01*
X8440166Y-2412746D01*
X8427161Y-2408682D01*
X8413699Y-2406446D01*
X8400084Y-2405989D01*
X8386521Y-2407310D01*
X8373262Y-2410510D01*
X8360511Y-2415387D01*
X8348573Y-2421940D01*
X8337600Y-2430018D01*
X8327796Y-2439517D01*
X8319312Y-2450236D01*
X8312353Y-2461971D01*
X8307070Y-2474518D01*
X8303463Y-2487676D01*
X8301634Y-2501188D01*
X8301634Y-2514803D01*
X8303463Y-2528316D01*
X8307070Y-2541473D01*
X8312353Y-2554020D01*
X8319312Y-2565755D01*
X8327796Y-2576474D01*
X8337600Y-2585974D01*
X8348573Y-2594051D01*
X8360511Y-2600604D01*
X8373262Y-2605481D01*
X8386521Y-2608681D01*
X8400084Y-2610002D01*
X8413699Y-2609545D01*
X8427161Y-2607310D01*
X8440166Y-2603246D01*
X8452561Y-2597505D01*
X8464042Y-2590190D01*
X8465515Y-2588920D01*
X8468868Y-2587091D01*
X8472627Y-2586532D01*
X8476335Y-2587498D01*
X8479434Y-2589733D01*
X8481517Y-2592933D01*
X8482228Y-2596692D01*
X8482228Y-2673299D01*
X8481517Y-2677058D01*
X8479434Y-2680258D01*
X8476335Y-2682494D01*
X8472627Y-2683459D01*
X8468868Y-2682900D01*
X8465515Y-2681071D01*
X8464042Y-2679801D01*
X8452561Y-2672486D01*
X8440166Y-2666746D01*
X8427161Y-2662682D01*
X8413699Y-2660446D01*
X8400084Y-2659989D01*
X8386521Y-2661310D01*
X8373262Y-2664510D01*
X8360511Y-2669387D01*
X8348573Y-2675940D01*
X8337600Y-2684018D01*
X8327796Y-2693517D01*
X8319312Y-2704236D01*
X8312353Y-2715971D01*
X8307070Y-2728518D01*
X8303463Y-2741676D01*
X8301634Y-2755188D01*
X8301634Y-2768803D01*
X8303463Y-2782316D01*
X8307070Y-2795473D01*
X8312353Y-2808020D01*
X8319312Y-2819755D01*
X8327796Y-2830474D01*
X8337600Y-2839974D01*
X8348573Y-2848051D01*
X8360511Y-2854604D01*
X8373262Y-2859481D01*
X8386521Y-2862681D01*
X8400084Y-2864002D01*
X8413699Y-2863545D01*
X8427161Y-2861310D01*
X8440166Y-2857246D01*
X8452561Y-2851505D01*
X8464042Y-2844190D01*
X8465515Y-2842920D01*
X8468868Y-2841091D01*
X8472627Y-2840532D01*
X8476335Y-2841498D01*
X8479434Y-2843733D01*
X8481517Y-2846933D01*
X8482228Y-2850692D01*
X8482228Y-2927299D01*
X8481517Y-2931058D01*
X8479434Y-2934258D01*
X8476335Y-2936494D01*
X8472627Y-2937459D01*
X8468868Y-2936900D01*
X8465515Y-2935071D01*
X8464042Y-2933801D01*
X8452561Y-2926486D01*
X8440166Y-2920746D01*
X8427161Y-2916682D01*
X8413699Y-2914446D01*
X8400084Y-2913989D01*
X8386521Y-2915310D01*
X8373262Y-2918510D01*
X8360511Y-2923387D01*
X8348573Y-2929940D01*
X8337600Y-2938018D01*
X8327796Y-2947517D01*
X8319312Y-2958236D01*
X8312353Y-2969971D01*
X8307070Y-2982518D01*
X8303463Y-2995676D01*
X8301634Y-3009188D01*
X8301634Y-3022803D01*
X8303463Y-3036316D01*
X8307070Y-3049473D01*
X8312353Y-3062020D01*
X8319312Y-3073755D01*
X8327796Y-3084474D01*
X8337600Y-3093974D01*
X8348573Y-3102051D01*
X8360511Y-3108604D01*
X8373262Y-3113481D01*
X8386521Y-3116681D01*
X8400084Y-3118002D01*
X8413699Y-3117545D01*
X8427161Y-3115310D01*
X8440166Y-3111246D01*
X8452561Y-3105505D01*
X8464042Y-3098190D01*
X8465515Y-3096920D01*
X8468868Y-3095091D01*
X8472627Y-3094532D01*
X8476335Y-3095498D01*
X8479434Y-3097733D01*
X8481517Y-3100933D01*
X8482228Y-3104692D01*
X8482228Y-3181299D01*
X8481517Y-3185058D01*
X8479434Y-3188258D01*
X8476335Y-3190494D01*
X8472627Y-3191459D01*
X8468868Y-3190900D01*
X8465515Y-3189071D01*
X8464042Y-3187801D01*
X8452561Y-3180486D01*
X8440166Y-3174746D01*
X8427161Y-3170682D01*
X8413699Y-3168446D01*
X8400084Y-3167989D01*
X8386521Y-3169310D01*
X8373262Y-3172510D01*
X8360511Y-3177387D01*
X8348573Y-3183940D01*
X8337600Y-3192018D01*
X8327796Y-3201517D01*
X8319312Y-3212236D01*
X8312353Y-3223971D01*
X8307070Y-3236518D01*
X8303463Y-3249676D01*
X8301634Y-3263188D01*
X8301634Y-3276803D01*
X8303463Y-3290315D01*
X8307324Y-3304286D01*
X8307628Y-3307842D01*
X8306714Y-3311296D01*
X8304682Y-3314192D01*
X7056526Y-4562348D01*
X7051395Y-4568596D01*
X7047839Y-4575251D01*
X7045655Y-4582464D01*
X7044893Y-4590491D01*
X7044893Y-8535619D01*
X7044080Y-8539530D01*
X7041896Y-8542832D01*
X6219037Y-9365691D01*
X6213906Y-9371888D01*
X6210350Y-9378594D01*
X6207099Y-9389719D01*
X6204864Y-9392716D01*
X6201664Y-9394647D01*
X6198006Y-9395358D01*
X6167831Y-9395358D01*
X6161481Y-9396069D01*
X6156045Y-9397949D01*
X6151118Y-9401048D01*
X6147054Y-9405112D01*
X6143955Y-9410039D01*
X6142075Y-9415475D01*
X6141364Y-9421825D01*
X6141364Y-9578136D01*
X6142075Y-9584486D01*
X6143955Y-9589922D01*
X6147054Y-9594850D01*
X6151118Y-9598914D01*
X6156045Y-9602012D01*
X6161481Y-9603892D01*
G37*
G36*
X7754010Y-9604603D02*
G01*
X7767624Y-9603689D01*
X7781086Y-9601047D01*
X7794040Y-9596628D01*
X7806283Y-9590582D01*
X7817662Y-9582962D01*
X7827975Y-9573971D01*
X7836966Y-9563658D01*
X7844586Y-9552279D01*
X7850631Y-9540036D01*
X7855051Y-9527082D01*
X7857693Y-9513620D01*
X7858607Y-9500006D01*
X7857693Y-9486341D01*
X7855051Y-9472879D01*
X7850631Y-9459925D01*
X7844586Y-9447682D01*
X7836966Y-9436303D01*
X7827975Y-9425990D01*
X7817662Y-9416999D01*
X7806283Y-9409379D01*
X7794040Y-9403334D01*
X7781086Y-9398914D01*
X7767624Y-9396272D01*
X7754010Y-9395358D01*
X7740345Y-9396272D01*
X7726883Y-9398914D01*
X7713929Y-9403334D01*
X7701686Y-9409379D01*
X7690307Y-9416999D01*
X7679994Y-9425990D01*
X7671003Y-9436303D01*
X7663383Y-9447682D01*
X7657338Y-9459925D01*
X7652918Y-9472879D01*
X7650276Y-9486341D01*
X7649362Y-9500006D01*
X7650276Y-9513620D01*
X7652918Y-9527082D01*
X7657338Y-9540036D01*
X7663383Y-9552279D01*
X7671003Y-9563658D01*
X7679994Y-9573971D01*
X7690307Y-9582962D01*
X7701686Y-9590582D01*
X7713929Y-9596628D01*
X7726883Y-9601047D01*
X7740345Y-9603689D01*
G37*
G36*
X8754008Y-9604603D02*
G01*
X8767622Y-9603689D01*
X8781084Y-9601047D01*
X8794038Y-9596628D01*
X8806281Y-9590582D01*
X8817660Y-9582962D01*
X8827973Y-9573971D01*
X8836964Y-9563658D01*
X8844584Y-9552279D01*
X8850630Y-9540036D01*
X8855049Y-9527082D01*
X8857691Y-9513620D01*
X8858605Y-9500006D01*
X8857691Y-9486341D01*
X8855049Y-9472879D01*
X8850630Y-9459925D01*
X8844584Y-9447682D01*
X8836964Y-9436303D01*
X8827973Y-9425990D01*
X8817660Y-9416999D01*
X8806281Y-9409379D01*
X8794038Y-9403334D01*
X8781084Y-9398914D01*
X8767622Y-9396272D01*
X8754008Y-9395358D01*
X8740343Y-9396272D01*
X8726881Y-9398914D01*
X8713927Y-9403334D01*
X8701684Y-9409379D01*
X8690305Y-9416999D01*
X8679992Y-9425990D01*
X8671001Y-9436303D01*
X8663381Y-9447682D01*
X8657336Y-9459925D01*
X8652916Y-9472879D01*
X8650274Y-9486341D01*
X8649360Y-9500006D01*
X8650274Y-9513620D01*
X8652916Y-9527082D01*
X8657336Y-9540036D01*
X8663381Y-9552279D01*
X8671001Y-9563658D01*
X8679992Y-9573971D01*
X8690305Y-9582962D01*
X8701684Y-9590582D01*
X8713927Y-9596628D01*
X8726881Y-9601047D01*
X8740343Y-9603689D01*
G37*
G36*
X6754012Y-9604603D02*
G01*
X6767626Y-9603689D01*
X6781088Y-9601047D01*
X6794042Y-9596628D01*
X6806285Y-9590582D01*
X6817664Y-9582962D01*
X6827977Y-9573971D01*
X6836968Y-9563658D01*
X6844588Y-9552279D01*
X6850634Y-9540036D01*
X6855053Y-9527082D01*
X6857695Y-9513620D01*
X6858609Y-9500006D01*
X6857695Y-9486341D01*
X6855053Y-9472879D01*
X6850634Y-9459925D01*
X6844588Y-9447682D01*
X6836968Y-9436303D01*
X6827977Y-9425990D01*
X6817664Y-9416999D01*
X6806285Y-9409379D01*
X6794042Y-9403334D01*
X6781088Y-9398914D01*
X6767626Y-9396272D01*
X6754012Y-9395358D01*
X6740347Y-9396272D01*
X6726885Y-9398914D01*
X6713931Y-9403334D01*
X6701688Y-9409379D01*
X6690309Y-9416999D01*
X6679996Y-9425990D01*
X6671005Y-9436303D01*
X6663385Y-9447682D01*
X6657340Y-9459925D01*
X6652920Y-9472879D01*
X6650278Y-9486341D01*
X6649364Y-9500006D01*
X6650278Y-9513620D01*
X6652920Y-9527082D01*
X6657340Y-9540036D01*
X6663385Y-9552279D01*
X6671005Y-9563658D01*
X6679996Y-9573971D01*
X6690309Y-9582962D01*
X6701688Y-9590582D01*
X6713931Y-9596628D01*
X6726885Y-9601047D01*
X6740347Y-9603689D01*
G37*
G36*
X5754014Y-9604603D02*
G01*
X5767628Y-9603689D01*
X5781090Y-9601047D01*
X5794044Y-9596628D01*
X5806287Y-9590582D01*
X5817666Y-9582962D01*
X5827979Y-9573971D01*
X5836970Y-9563658D01*
X5844590Y-9552279D01*
X5850636Y-9540036D01*
X5855055Y-9527082D01*
X5857697Y-9513620D01*
X5858611Y-9500006D01*
X5857697Y-9486341D01*
X5855055Y-9472879D01*
X5850636Y-9459925D01*
X5844590Y-9447682D01*
X5836970Y-9436303D01*
X5827979Y-9425990D01*
X5817666Y-9416999D01*
X5806287Y-9409379D01*
X5794044Y-9403334D01*
X5781090Y-9398914D01*
X5767628Y-9396272D01*
X5754014Y-9395358D01*
X5740349Y-9396272D01*
X5726887Y-9398914D01*
X5713933Y-9403334D01*
X5701690Y-9409379D01*
X5690311Y-9416999D01*
X5679998Y-9425990D01*
X5671007Y-9436303D01*
X5663387Y-9447682D01*
X5657342Y-9459925D01*
X5652922Y-9472879D01*
X5650280Y-9486341D01*
X5649366Y-9500006D01*
X5650280Y-9513620D01*
X5652922Y-9527082D01*
X5657342Y-9540036D01*
X5663387Y-9552279D01*
X5671007Y-9563658D01*
X5679998Y-9573971D01*
X5690311Y-9582962D01*
X5701690Y-9590582D01*
X5713933Y-9596628D01*
X5726887Y-9601047D01*
X5740349Y-9603689D01*
G37*
G36*
X9754006Y-9604603D02*
G01*
X9767620Y-9603689D01*
X9781082Y-9601047D01*
X9794036Y-9596628D01*
X9806279Y-9590582D01*
X9817658Y-9582962D01*
X9827971Y-9573971D01*
X9836962Y-9563658D01*
X9844582Y-9552279D01*
X9850628Y-9540036D01*
X9855047Y-9527082D01*
X9857689Y-9513620D01*
X9858603Y-9500006D01*
X9857689Y-9486341D01*
X9855047Y-9472879D01*
X9850628Y-9459925D01*
X9844582Y-9447682D01*
X9836962Y-9436303D01*
X9827971Y-9425990D01*
X9817658Y-9416999D01*
X9806279Y-9409379D01*
X9794036Y-9403334D01*
X9781082Y-9398914D01*
X9767620Y-9396272D01*
X9754006Y-9395358D01*
X9740341Y-9396272D01*
X9726879Y-9398914D01*
X9713925Y-9403334D01*
X9701682Y-9409379D01*
X9690303Y-9416999D01*
X9679990Y-9425990D01*
X9670999Y-9436303D01*
X9663379Y-9447682D01*
X9657334Y-9459925D01*
X9652914Y-9472879D01*
X9650272Y-9486341D01*
X9649358Y-9500006D01*
X9650272Y-9513620D01*
X9652914Y-9527082D01*
X9657334Y-9540036D01*
X9663379Y-9552279D01*
X9670999Y-9563658D01*
X9679990Y-9573971D01*
X9690303Y-9582962D01*
X9701682Y-9590582D01*
X9713925Y-9596628D01*
X9726879Y-9601047D01*
X9740341Y-9603689D01*
G37*
G36*
X6545732Y-9593834D02*
G01*
X6552285Y-9590582D01*
X6563664Y-9582962D01*
X6573977Y-9573971D01*
X6582968Y-9563658D01*
X6590588Y-9552279D01*
X6593840Y-9545726D01*
X6545732Y-9545726D01*
G37*
G36*
X5454294Y-9593834D02*
G01*
X5454294Y-9545726D01*
X5406136Y-9545726D01*
X5409387Y-9552279D01*
X5417007Y-9563658D01*
X5425998Y-9573971D01*
X5436311Y-9582962D01*
X5447690Y-9590582D01*
G37*
G36*
X7545730Y-9593834D02*
G01*
X7552283Y-9590582D01*
X7563662Y-9582962D01*
X7573975Y-9573971D01*
X7582966Y-9563658D01*
X7590586Y-9552279D01*
X7593838Y-9545726D01*
X7545730Y-9545726D01*
G37*
G36*
X8545728Y-9593834D02*
G01*
X8552281Y-9590582D01*
X8563660Y-9582962D01*
X8573973Y-9573971D01*
X8582964Y-9563658D01*
X8590584Y-9552279D01*
X8593836Y-9545726D01*
X8545728Y-9545726D01*
G37*
G36*
X5545734Y-9593834D02*
G01*
X5552287Y-9590582D01*
X5563666Y-9582962D01*
X5573979Y-9573971D01*
X5582970Y-9563658D01*
X5590590Y-9552279D01*
X5593842Y-9545726D01*
X5545734Y-9545726D01*
G37*
G36*
X6454292Y-9593834D02*
G01*
X6454292Y-9545726D01*
X6406134Y-9545726D01*
X6409385Y-9552279D01*
X6417005Y-9563658D01*
X6425996Y-9573971D01*
X6436309Y-9582962D01*
X6447688Y-9590582D01*
G37*
G36*
X7454290Y-9593834D02*
G01*
X7454290Y-9545726D01*
X7406131Y-9545726D01*
X7409383Y-9552279D01*
X7417003Y-9563658D01*
X7425994Y-9573971D01*
X7436307Y-9582962D01*
X7447686Y-9590582D01*
G37*
G36*
X9454286Y-9593834D02*
G01*
X9454286Y-9545726D01*
X9406128Y-9545726D01*
X9409379Y-9552279D01*
X9416999Y-9563658D01*
X9425990Y-9573971D01*
X9436303Y-9582962D01*
X9447682Y-9590582D01*
G37*
G36*
X8454288Y-9593834D02*
G01*
X8454288Y-9545726D01*
X8406130Y-9545726D01*
X8409381Y-9552279D01*
X8417001Y-9563658D01*
X8425992Y-9573971D01*
X8436305Y-9582962D01*
X8447684Y-9590582D01*
G37*
G36*
X9545726Y-9593834D02*
G01*
X9552279Y-9590582D01*
X9563658Y-9582962D01*
X9573971Y-9573971D01*
X9582962Y-9563658D01*
X9590582Y-9552279D01*
X9593834Y-9545726D01*
X9545726Y-9545726D01*
G37*
G36*
X6545732Y-9454286D02*
G01*
X6593840Y-9454286D01*
X6590588Y-9447682D01*
X6582968Y-9436303D01*
X6573977Y-9425990D01*
X6563664Y-9416999D01*
X6552285Y-9409379D01*
X6545732Y-9406128D01*
G37*
G36*
X8545728Y-9454286D02*
G01*
X8593836Y-9454286D01*
X8590584Y-9447682D01*
X8582964Y-9436303D01*
X8573973Y-9425990D01*
X8563660Y-9416999D01*
X8552281Y-9409379D01*
X8545728Y-9406128D01*
G37*
G36*
X5406136Y-9454286D02*
G01*
X5454294Y-9454286D01*
X5454294Y-9406128D01*
X5447690Y-9409379D01*
X5436311Y-9416999D01*
X5425998Y-9425990D01*
X5417007Y-9436303D01*
X5409387Y-9447682D01*
G37*
G36*
X6406134Y-9454286D02*
G01*
X6454292Y-9454286D01*
X6454292Y-9406128D01*
X6447688Y-9409379D01*
X6436309Y-9416999D01*
X6425996Y-9425990D01*
X6417005Y-9436303D01*
X6409385Y-9447682D01*
G37*
G36*
X9545726Y-9454286D02*
G01*
X9593834Y-9454286D01*
X9590582Y-9447682D01*
X9582962Y-9436303D01*
X9573971Y-9425990D01*
X9563658Y-9416999D01*
X9552279Y-9409379D01*
X9545726Y-9406128D01*
G37*
G36*
X8406130Y-9454286D02*
G01*
X8454288Y-9454286D01*
X8454288Y-9406128D01*
X8447684Y-9409379D01*
X8436305Y-9416999D01*
X8425992Y-9425990D01*
X8417001Y-9436303D01*
X8409381Y-9447682D01*
G37*
G36*
X9406128Y-9454286D02*
G01*
X9454286Y-9454286D01*
X9454286Y-9406128D01*
X9447682Y-9409379D01*
X9436303Y-9416999D01*
X9425990Y-9425990D01*
X9416999Y-9436303D01*
X9409379Y-9447682D01*
G37*
G36*
X7406131Y-9454286D02*
G01*
X7454290Y-9454286D01*
X7454290Y-9406128D01*
X7447686Y-9409379D01*
X7436307Y-9416999D01*
X7425994Y-9425990D01*
X7417003Y-9436303D01*
X7409383Y-9447682D01*
G37*
G36*
X5545734Y-9454286D02*
G01*
X5593842Y-9454286D01*
X5590590Y-9447682D01*
X5582970Y-9436303D01*
X5573979Y-9425990D01*
X5563666Y-9416999D01*
X5552287Y-9409379D01*
X5545734Y-9406128D01*
G37*
G36*
X7545730Y-9454286D02*
G01*
X7593838Y-9454286D01*
X7590586Y-9447682D01*
X7582966Y-9436303D01*
X7573975Y-9425990D01*
X7563662Y-9416999D01*
X7552283Y-9409379D01*
X7545730Y-9406128D01*
G37*
G36*
X5167833Y-8604656D02*
G01*
X5324144Y-8604656D01*
X5330494Y-8603894D01*
X5335930Y-8602014D01*
X5340858Y-8598916D01*
X5344922Y-8594852D01*
X5348020Y-8589924D01*
X5349900Y-8584488D01*
X5350662Y-8578138D01*
X5350662Y-8421827D01*
X5349900Y-8415477D01*
X5348020Y-8410041D01*
X5344922Y-8405114D01*
X5340858Y-8401050D01*
X5335930Y-8397951D01*
X5330494Y-8396071D01*
X5324144Y-8395360D01*
X5167833Y-8395360D01*
X5161483Y-8396071D01*
X5156047Y-8397951D01*
X5151120Y-8401050D01*
X5147056Y-8405114D01*
X5143957Y-8410041D01*
X5142077Y-8415477D01*
X5141366Y-8421827D01*
X5141366Y-8578138D01*
X5142077Y-8584488D01*
X5143957Y-8589924D01*
X5147056Y-8594852D01*
X5151120Y-8598916D01*
X5156047Y-8602014D01*
X5161483Y-8603894D01*
G37*
G36*
X8754008Y-8604605D02*
G01*
X8767622Y-8603691D01*
X8781084Y-8601049D01*
X8794038Y-8596630D01*
X8806281Y-8590584D01*
X8817660Y-8582964D01*
X8827973Y-8573973D01*
X8836964Y-8563660D01*
X8844584Y-8552281D01*
X8850630Y-8540038D01*
X8855049Y-8527084D01*
X8857691Y-8513622D01*
X8858605Y-8500008D01*
X8857691Y-8486343D01*
X8855049Y-8472881D01*
X8850630Y-8459927D01*
X8844584Y-8447684D01*
X8836964Y-8436305D01*
X8827973Y-8425992D01*
X8817660Y-8417001D01*
X8806281Y-8409381D01*
X8794038Y-8403336D01*
X8781084Y-8398916D01*
X8767622Y-8396274D01*
X8754008Y-8395360D01*
X8740343Y-8396274D01*
X8726881Y-8398916D01*
X8713927Y-8403336D01*
X8701684Y-8409381D01*
X8690305Y-8417001D01*
X8679992Y-8425992D01*
X8671001Y-8436305D01*
X8663381Y-8447684D01*
X8657336Y-8459927D01*
X8652916Y-8472881D01*
X8650274Y-8486343D01*
X8649360Y-8500008D01*
X8650274Y-8513622D01*
X8652916Y-8527084D01*
X8657336Y-8540038D01*
X8663381Y-8552281D01*
X8671001Y-8563660D01*
X8679992Y-8573973D01*
X8690305Y-8582964D01*
X8701684Y-8590584D01*
X8713927Y-8596630D01*
X8726881Y-8601049D01*
X8740343Y-8603691D01*
G37*
G36*
X5754014Y-8604605D02*
G01*
X5767628Y-8603691D01*
X5781090Y-8601049D01*
X5794044Y-8596630D01*
X5806287Y-8590584D01*
X5817666Y-8582964D01*
X5827979Y-8573973D01*
X5836970Y-8563660D01*
X5844590Y-8552281D01*
X5850636Y-8540038D01*
X5855055Y-8527084D01*
X5857697Y-8513622D01*
X5858611Y-8500008D01*
X5857697Y-8486343D01*
X5855055Y-8472881D01*
X5850636Y-8459927D01*
X5844590Y-8447684D01*
X5836970Y-8436305D01*
X5827979Y-8425992D01*
X5817666Y-8417001D01*
X5806287Y-8409381D01*
X5794044Y-8403336D01*
X5781090Y-8398916D01*
X5767628Y-8396274D01*
X5754014Y-8395360D01*
X5740349Y-8396274D01*
X5726887Y-8398916D01*
X5713933Y-8403336D01*
X5701690Y-8409381D01*
X5690311Y-8417001D01*
X5679998Y-8425992D01*
X5671007Y-8436305D01*
X5663387Y-8447684D01*
X5657342Y-8459927D01*
X5652922Y-8472881D01*
X5650280Y-8486343D01*
X5649366Y-8500008D01*
X5650280Y-8513622D01*
X5652922Y-8527084D01*
X5657342Y-8540038D01*
X5663387Y-8552281D01*
X5671007Y-8563660D01*
X5679998Y-8573973D01*
X5690311Y-8582964D01*
X5701690Y-8590584D01*
X5713933Y-8596630D01*
X5726887Y-8601049D01*
X5740349Y-8603691D01*
G37*
G36*
X7754010Y-8604605D02*
G01*
X7767624Y-8603691D01*
X7781086Y-8601049D01*
X7794040Y-8596630D01*
X7806283Y-8590584D01*
X7817662Y-8582964D01*
X7827975Y-8573973D01*
X7836966Y-8563660D01*
X7844586Y-8552281D01*
X7850631Y-8540038D01*
X7855051Y-8527084D01*
X7857693Y-8513622D01*
X7858607Y-8500008D01*
X7857693Y-8486343D01*
X7855051Y-8472881D01*
X7850631Y-8459927D01*
X7844586Y-8447684D01*
X7836966Y-8436305D01*
X7827975Y-8425992D01*
X7817662Y-8417001D01*
X7806283Y-8409381D01*
X7794040Y-8403336D01*
X7781086Y-8398916D01*
X7767624Y-8396274D01*
X7754010Y-8395360D01*
X7740345Y-8396274D01*
X7726883Y-8398916D01*
X7713929Y-8403336D01*
X7701686Y-8409381D01*
X7690307Y-8417001D01*
X7679994Y-8425992D01*
X7671003Y-8436305D01*
X7663383Y-8447684D01*
X7657338Y-8459927D01*
X7652918Y-8472881D01*
X7650276Y-8486343D01*
X7649362Y-8500008D01*
X7650276Y-8513622D01*
X7652918Y-8527084D01*
X7657338Y-8540038D01*
X7663383Y-8552281D01*
X7671003Y-8563660D01*
X7679994Y-8573973D01*
X7690307Y-8582964D01*
X7701686Y-8590584D01*
X7713929Y-8596630D01*
X7726883Y-8601049D01*
X7740345Y-8603691D01*
G37*
G36*
X6754012Y-8604605D02*
G01*
X6767626Y-8603691D01*
X6781088Y-8601049D01*
X6794042Y-8596630D01*
X6806285Y-8590584D01*
X6817664Y-8582964D01*
X6827977Y-8573973D01*
X6836968Y-8563660D01*
X6844588Y-8552281D01*
X6850634Y-8540038D01*
X6855053Y-8527084D01*
X6857695Y-8513622D01*
X6858609Y-8500008D01*
X6857695Y-8486343D01*
X6855053Y-8472881D01*
X6850634Y-8459927D01*
X6844588Y-8447684D01*
X6836968Y-8436305D01*
X6827977Y-8425992D01*
X6817664Y-8417001D01*
X6806285Y-8409381D01*
X6794042Y-8403336D01*
X6781088Y-8398916D01*
X6767626Y-8396274D01*
X6754012Y-8395360D01*
X6740347Y-8396274D01*
X6726885Y-8398916D01*
X6713931Y-8403336D01*
X6701688Y-8409381D01*
X6690309Y-8417001D01*
X6679996Y-8425992D01*
X6671005Y-8436305D01*
X6663385Y-8447684D01*
X6657340Y-8459927D01*
X6652920Y-8472881D01*
X6650278Y-8486343D01*
X6649364Y-8500008D01*
X6650278Y-8513622D01*
X6652920Y-8527084D01*
X6657340Y-8540038D01*
X6663385Y-8552281D01*
X6671005Y-8563660D01*
X6679996Y-8573973D01*
X6690309Y-8582964D01*
X6701688Y-8590584D01*
X6713931Y-8596630D01*
X6726885Y-8601049D01*
X6740347Y-8603691D01*
G37*
G36*
X6500012Y-8604605D02*
G01*
X6513626Y-8603691D01*
X6527088Y-8601049D01*
X6540042Y-8596630D01*
X6552285Y-8590584D01*
X6563664Y-8582964D01*
X6573977Y-8573973D01*
X6582968Y-8563660D01*
X6590588Y-8552281D01*
X6596634Y-8540038D01*
X6601053Y-8527084D01*
X6603695Y-8513622D01*
X6604609Y-8500008D01*
X6603695Y-8486343D01*
X6601053Y-8472881D01*
X6596634Y-8459927D01*
X6590588Y-8447684D01*
X6582968Y-8436305D01*
X6573977Y-8425992D01*
X6563664Y-8417001D01*
X6552285Y-8409381D01*
X6544259Y-8405418D01*
X6541262Y-8403183D01*
X6539280Y-8399983D01*
X6538620Y-8396274D01*
X6538620Y-7632598D01*
X6539382Y-7628686D01*
X6541566Y-7625384D01*
X6544868Y-7623200D01*
X6548780Y-7622438D01*
X6722922Y-7622438D01*
X6729272Y-7621676D01*
X6734708Y-7619796D01*
X6739636Y-7616698D01*
X6743700Y-7612634D01*
X6746798Y-7607706D01*
X6748678Y-7602270D01*
X6749440Y-7595920D01*
X6749440Y-7404049D01*
X6748678Y-7397699D01*
X6746798Y-7392263D01*
X6743700Y-7387336D01*
X6739636Y-7383272D01*
X6734708Y-7380173D01*
X6729272Y-7378293D01*
X6722922Y-7377582D01*
X6548780Y-7377582D01*
X6544868Y-7376769D01*
X6541566Y-7374585D01*
X6539382Y-7371283D01*
X6538620Y-7367422D01*
X6538620Y-3515207D01*
X6539382Y-3511346D01*
X6541566Y-3508044D01*
X6543192Y-3506419D01*
X6548780Y-3498392D01*
X6552946Y-3489502D01*
X6555486Y-3480003D01*
X6556349Y-3470198D01*
X6555486Y-3460394D01*
X6552946Y-3450894D01*
X6548780Y-3442004D01*
X6543192Y-3433978D01*
X6536232Y-3427018D01*
X6528155Y-3421379D01*
X6519265Y-3417214D01*
X6509766Y-3414674D01*
X6500012Y-3413810D01*
X6490208Y-3414674D01*
X6480708Y-3417214D01*
X6471818Y-3421379D01*
X6463741Y-3427018D01*
X6456781Y-3433978D01*
X6451193Y-3442004D01*
X6447028Y-3450894D01*
X6444488Y-3460394D01*
X6443624Y-3470198D01*
X6444488Y-3480003D01*
X6447028Y-3489502D01*
X6451193Y-3498392D01*
X6456781Y-3506419D01*
X6458407Y-3508044D01*
X6460591Y-3511346D01*
X6461404Y-3515207D01*
X6461404Y-7367422D01*
X6460591Y-7371283D01*
X6458407Y-7374585D01*
X6455105Y-7376769D01*
X6451244Y-7377582D01*
X6421780Y-7377582D01*
X6417868Y-7376769D01*
X6414566Y-7374585D01*
X6412382Y-7371283D01*
X6411620Y-7367422D01*
X6411620Y-4839004D01*
X6412382Y-4835144D01*
X6414566Y-4831842D01*
X6416192Y-4830216D01*
X6421780Y-4822190D01*
X6425946Y-4813300D01*
X6428486Y-4803800D01*
X6429349Y-4793996D01*
X6428486Y-4784191D01*
X6425946Y-4774692D01*
X6421780Y-4765802D01*
X6416192Y-4757775D01*
X6409232Y-4750816D01*
X6401155Y-4745177D01*
X6392265Y-4741011D01*
X6382766Y-4738471D01*
X6373012Y-4737608D01*
X6363208Y-4738471D01*
X6353708Y-4741011D01*
X6344818Y-4745177D01*
X6336741Y-4750816D01*
X6329781Y-4757775D01*
X6324193Y-4765802D01*
X6320028Y-4774692D01*
X6317488Y-4784191D01*
X6316624Y-4793996D01*
X6317488Y-4803800D01*
X6320028Y-4813300D01*
X6324193Y-4822190D01*
X6329781Y-4830216D01*
X6331407Y-4831842D01*
X6333591Y-4835144D01*
X6334404Y-4839004D01*
X6334404Y-7367422D01*
X6333591Y-7371283D01*
X6331407Y-7374585D01*
X6328105Y-7376769D01*
X6324244Y-7377582D01*
X6277051Y-7377582D01*
X6270701Y-7378293D01*
X6265265Y-7380173D01*
X6260338Y-7383272D01*
X6256274Y-7387336D01*
X6253175Y-7392263D01*
X6251295Y-7397699D01*
X6250584Y-7404049D01*
X6250584Y-7595920D01*
X6251295Y-7602270D01*
X6253175Y-7607706D01*
X6256274Y-7612634D01*
X6260338Y-7616698D01*
X6265265Y-7619796D01*
X6270701Y-7621676D01*
X6277051Y-7622438D01*
X6451244Y-7622438D01*
X6455105Y-7623200D01*
X6458407Y-7625384D01*
X6460591Y-7628686D01*
X6461404Y-7632598D01*
X6461404Y-8396274D01*
X6460693Y-8399983D01*
X6458712Y-8403183D01*
X6455714Y-8405418D01*
X6447688Y-8409381D01*
X6436309Y-8417001D01*
X6425996Y-8425992D01*
X6417005Y-8436305D01*
X6409385Y-8447684D01*
X6403340Y-8459927D01*
X6398920Y-8472881D01*
X6396278Y-8486343D01*
X6395364Y-8500008D01*
X6396278Y-8513622D01*
X6398920Y-8527084D01*
X6403340Y-8540038D01*
X6409385Y-8552281D01*
X6417005Y-8563660D01*
X6425996Y-8573973D01*
X6436309Y-8582964D01*
X6447688Y-8590584D01*
X6459931Y-8596630D01*
X6472885Y-8601049D01*
X6486347Y-8603691D01*
G37*
G36*
X9500006Y-8604605D02*
G01*
X9513620Y-8603691D01*
X9527082Y-8601049D01*
X9540036Y-8596630D01*
X9552279Y-8590584D01*
X9563658Y-8582964D01*
X9573971Y-8573973D01*
X9582962Y-8563660D01*
X9590582Y-8552281D01*
X9596628Y-8540038D01*
X9601047Y-8527084D01*
X9603689Y-8513622D01*
X9604603Y-8500008D01*
X9603689Y-8486343D01*
X9601047Y-8472881D01*
X9596628Y-8459927D01*
X9590582Y-8447684D01*
X9582962Y-8436305D01*
X9573971Y-8425992D01*
X9563658Y-8417001D01*
X9552279Y-8409381D01*
X9544253Y-8405418D01*
X9541256Y-8403183D01*
X9539274Y-8399983D01*
X9538614Y-8396274D01*
X9538614Y-7632598D01*
X9539376Y-7628686D01*
X9541560Y-7625384D01*
X9544862Y-7623200D01*
X9548774Y-7622438D01*
X9703460Y-7622438D01*
X9707372Y-7623200D01*
X9710674Y-7625384D01*
X9712858Y-7628686D01*
X9713620Y-7632598D01*
X9713620Y-8397138D01*
X9712960Y-8400846D01*
X9710978Y-8403996D01*
X9707981Y-8406282D01*
X9701682Y-8409381D01*
X9690303Y-8417001D01*
X9679990Y-8425992D01*
X9670999Y-8436305D01*
X9663379Y-8447684D01*
X9657334Y-8459927D01*
X9652914Y-8472881D01*
X9650272Y-8486343D01*
X9649358Y-8500008D01*
X9650272Y-8513622D01*
X9652914Y-8527084D01*
X9657334Y-8540038D01*
X9663379Y-8552281D01*
X9670999Y-8563660D01*
X9679990Y-8573973D01*
X9690303Y-8582964D01*
X9701682Y-8590584D01*
X9713925Y-8596630D01*
X9726879Y-8601049D01*
X9740341Y-8603691D01*
X9754006Y-8604605D01*
X9767620Y-8603691D01*
X9781082Y-8601049D01*
X9794036Y-8596630D01*
X9806279Y-8590584D01*
X9817658Y-8582964D01*
X9827971Y-8573973D01*
X9836962Y-8563660D01*
X9844582Y-8552281D01*
X9850628Y-8540038D01*
X9855047Y-8527084D01*
X9857689Y-8513622D01*
X9858603Y-8500008D01*
X9857689Y-8486343D01*
X9855047Y-8472881D01*
X9850628Y-8459927D01*
X9844582Y-8447684D01*
X9836962Y-8436305D01*
X9827971Y-8425992D01*
X9817658Y-8417001D01*
X9809988Y-8411819D01*
X9807549Y-8409584D01*
X9805974Y-8406638D01*
X9805466Y-8403386D01*
X9805416Y-3003804D01*
X9804196Y-2995066D01*
X9801504Y-2987040D01*
X9797389Y-2979623D01*
X9791649Y-2972765D01*
X9620097Y-2801162D01*
X9618014Y-2798165D01*
X9617151Y-2794609D01*
X9617557Y-2791002D01*
X9622231Y-2776118D01*
X9624974Y-2761183D01*
X9625888Y-2745994D01*
X9624974Y-2730804D01*
X9622231Y-2715869D01*
X9617710Y-2701340D01*
X9611461Y-2687472D01*
X9603587Y-2674467D01*
X9594189Y-2662529D01*
X9583470Y-2651760D01*
X9571482Y-2642412D01*
X9558477Y-2634538D01*
X9544608Y-2628290D01*
X9530130Y-2623769D01*
X9515144Y-2621026D01*
X9500006Y-2620111D01*
X9484817Y-2621026D01*
X9469831Y-2623769D01*
X9455353Y-2628290D01*
X9441484Y-2634538D01*
X9428480Y-2642412D01*
X9416491Y-2651760D01*
X9405772Y-2662529D01*
X9396374Y-2674467D01*
X9388500Y-2687472D01*
X9382252Y-2701340D01*
X9377730Y-2715869D01*
X9374987Y-2730804D01*
X9374073Y-2745994D01*
X9374987Y-2761183D01*
X9377730Y-2776118D01*
X9382252Y-2790647D01*
X9388500Y-2804515D01*
X9396374Y-2817520D01*
X9405772Y-2829458D01*
X9416491Y-2840228D01*
X9428480Y-2849575D01*
X9441484Y-2857449D01*
X9455404Y-2863748D01*
X9458553Y-2865932D01*
X9460636Y-2869184D01*
X9461398Y-2872994D01*
X9460636Y-2876804D01*
X9458553Y-2880055D01*
X9455404Y-2882239D01*
X9441484Y-2888538D01*
X9428480Y-2896412D01*
X9416491Y-2905760D01*
X9405772Y-2916529D01*
X9396374Y-2928467D01*
X9388500Y-2941472D01*
X9382252Y-2955340D01*
X9377730Y-2969869D01*
X9374987Y-2984804D01*
X9374073Y-2999994D01*
X9374987Y-3015183D01*
X9377730Y-3030118D01*
X9382252Y-3044647D01*
X9388500Y-3058515D01*
X9396374Y-3071520D01*
X9405772Y-3083458D01*
X9416491Y-3094228D01*
X9428480Y-3103575D01*
X9441484Y-3111449D01*
X9455404Y-3117748D01*
X9458553Y-3119932D01*
X9460636Y-3123184D01*
X9461398Y-3126994D01*
X9460636Y-3130804D01*
X9458553Y-3134055D01*
X9455404Y-3136239D01*
X9441484Y-3142538D01*
X9428480Y-3150412D01*
X9416491Y-3159760D01*
X9405772Y-3170529D01*
X9396374Y-3182467D01*
X9388500Y-3195472D01*
X9382252Y-3209340D01*
X9377730Y-3223869D01*
X9374987Y-3238804D01*
X9374073Y-3253994D01*
X9374987Y-3269183D01*
X9377730Y-3284118D01*
X9382252Y-3298647D01*
X9388500Y-3312515D01*
X9396374Y-3325520D01*
X9405772Y-3337458D01*
X9416491Y-3348228D01*
X9428480Y-3357575D01*
X9441484Y-3365449D01*
X9455404Y-3371748D01*
X9458553Y-3373932D01*
X9460636Y-3377184D01*
X9461398Y-3380994D01*
X9460636Y-3384804D01*
X9458553Y-3388055D01*
X9455404Y-3390239D01*
X9441484Y-3396538D01*
X9428480Y-3404412D01*
X9416491Y-3413760D01*
X9405772Y-3424529D01*
X9396374Y-3436467D01*
X9388500Y-3449472D01*
X9382252Y-3463340D01*
X9377730Y-3477869D01*
X9374987Y-3492804D01*
X9374073Y-3507994D01*
X9374987Y-3523183D01*
X9377730Y-3538118D01*
X9382252Y-3552647D01*
X9388500Y-3566515D01*
X9396374Y-3579520D01*
X9405772Y-3591458D01*
X9416491Y-3602228D01*
X9428480Y-3611575D01*
X9441484Y-3619449D01*
X9455353Y-3625697D01*
X9469831Y-3630218D01*
X9484817Y-3632962D01*
X9500006Y-3633876D01*
X9515144Y-3632962D01*
X9530130Y-3630218D01*
X9544608Y-3625697D01*
X9558477Y-3619449D01*
X9571482Y-3611575D01*
X9583470Y-3602228D01*
X9594189Y-3591458D01*
X9603587Y-3579520D01*
X9611461Y-3566515D01*
X9617710Y-3552647D01*
X9622231Y-3538118D01*
X9624974Y-3523183D01*
X9625888Y-3507994D01*
X9624974Y-3492804D01*
X9622231Y-3477869D01*
X9617710Y-3463340D01*
X9611461Y-3449472D01*
X9603587Y-3436467D01*
X9594189Y-3424529D01*
X9583470Y-3413760D01*
X9571482Y-3404412D01*
X9558477Y-3396538D01*
X9544558Y-3390239D01*
X9541408Y-3388055D01*
X9539325Y-3384804D01*
X9538563Y-3380994D01*
X9539325Y-3377184D01*
X9541408Y-3373932D01*
X9544558Y-3371748D01*
X9558477Y-3365449D01*
X9571482Y-3357575D01*
X9583470Y-3348228D01*
X9594189Y-3337458D01*
X9603587Y-3325520D01*
X9611461Y-3312515D01*
X9617710Y-3298647D01*
X9622231Y-3284118D01*
X9624974Y-3269183D01*
X9625888Y-3253994D01*
X9624974Y-3238804D01*
X9622231Y-3223869D01*
X9617710Y-3209340D01*
X9611461Y-3195472D01*
X9603587Y-3182467D01*
X9594189Y-3170529D01*
X9583470Y-3159760D01*
X9571482Y-3150412D01*
X9558477Y-3142538D01*
X9544558Y-3136239D01*
X9541408Y-3134055D01*
X9539325Y-3130804D01*
X9538563Y-3126994D01*
X9539325Y-3123184D01*
X9541408Y-3119932D01*
X9544558Y-3117748D01*
X9558477Y-3111449D01*
X9571482Y-3103575D01*
X9583470Y-3094228D01*
X9594189Y-3083458D01*
X9603587Y-3071520D01*
X9611461Y-3058515D01*
X9617710Y-3044647D01*
X9622231Y-3030118D01*
X9624974Y-3015183D01*
X9625888Y-2999994D01*
X9624974Y-2984804D01*
X9622231Y-2969869D01*
X9617862Y-2955899D01*
X9617506Y-2951429D01*
X9619081Y-2947263D01*
X9622282Y-2944164D01*
X9626549Y-2942742D01*
X9630968Y-2943301D01*
X9634728Y-2945688D01*
X9710674Y-3021584D01*
X9712858Y-3024886D01*
X9713620Y-3028797D01*
X9713620Y-7367422D01*
X9712858Y-7371283D01*
X9710674Y-7374585D01*
X9707372Y-7376769D01*
X9703460Y-7377582D01*
X9548774Y-7377582D01*
X9544862Y-7376769D01*
X9541560Y-7374585D01*
X9539376Y-7371283D01*
X9538614Y-7367422D01*
X9538614Y-7181443D01*
X9537801Y-7173417D01*
X9535617Y-7166203D01*
X9532061Y-7159548D01*
X9526930Y-7153300D01*
X8711946Y-6338316D01*
X8709761Y-6335014D01*
X8708999Y-6331153D01*
X8708999Y-2443734D01*
X8709761Y-2439822D01*
X8711946Y-2436520D01*
X8713571Y-2434945D01*
X8719159Y-2426868D01*
X8723325Y-2417978D01*
X8725865Y-2408478D01*
X8726728Y-2398725D01*
X8725865Y-2388920D01*
X8723325Y-2379421D01*
X8719159Y-2370531D01*
X8713571Y-2362454D01*
X8706612Y-2355494D01*
X8698534Y-2349906D01*
X8689644Y-2345740D01*
X8680145Y-2343200D01*
X8670391Y-2342337D01*
X8660587Y-2343200D01*
X8651087Y-2345740D01*
X8642197Y-2349906D01*
X8634120Y-2355494D01*
X8627160Y-2362454D01*
X8621572Y-2370531D01*
X8617407Y-2379421D01*
X8614867Y-2388920D01*
X8614003Y-2398725D01*
X8614867Y-2408478D01*
X8617407Y-2417978D01*
X8621572Y-2426868D01*
X8627160Y-2434945D01*
X8628786Y-2436520D01*
X8630970Y-2439822D01*
X8631783Y-2443734D01*
X8631783Y-6350863D01*
X8632545Y-6358890D01*
X8634730Y-6366103D01*
X8638286Y-6372758D01*
X8643416Y-6379006D01*
X9458401Y-7193991D01*
X9460585Y-7197293D01*
X9461398Y-7201153D01*
X9461398Y-7367422D01*
X9460585Y-7371283D01*
X9458401Y-7374585D01*
X9455099Y-7376769D01*
X9451238Y-7377582D01*
X9277045Y-7377582D01*
X9270695Y-7378293D01*
X9265259Y-7380173D01*
X9260332Y-7383272D01*
X9256268Y-7387336D01*
X9253169Y-7392263D01*
X9251289Y-7397699D01*
X9250578Y-7404049D01*
X9250578Y-7595920D01*
X9251289Y-7602270D01*
X9253169Y-7607706D01*
X9256268Y-7612634D01*
X9260332Y-7616698D01*
X9265259Y-7619796D01*
X9270695Y-7621676D01*
X9277045Y-7622438D01*
X9451238Y-7622438D01*
X9455099Y-7623200D01*
X9458401Y-7625384D01*
X9460585Y-7628686D01*
X9461398Y-7632598D01*
X9461398Y-8396274D01*
X9460687Y-8399983D01*
X9458706Y-8403183D01*
X9455708Y-8405418D01*
X9447682Y-8409381D01*
X9436303Y-8417001D01*
X9425990Y-8425992D01*
X9416999Y-8436305D01*
X9409379Y-8447684D01*
X9403334Y-8459927D01*
X9398914Y-8472881D01*
X9396272Y-8486343D01*
X9395358Y-8500008D01*
X9396272Y-8513622D01*
X9398914Y-8527084D01*
X9403334Y-8540038D01*
X9409379Y-8552281D01*
X9416999Y-8563660D01*
X9425990Y-8573973D01*
X9436303Y-8582964D01*
X9447682Y-8590584D01*
X9459925Y-8596630D01*
X9472879Y-8601049D01*
X9486341Y-8603691D01*
G37*
G36*
X5798159Y-2864002D02*
G01*
X5811824Y-2863545D01*
X5825236Y-2861310D01*
X5838291Y-2857246D01*
X5850636Y-2851505D01*
X5862167Y-2844190D01*
X5872581Y-2835402D01*
X5881725Y-2825242D01*
X5889447Y-2814015D01*
X5895594Y-2801874D01*
X5900064Y-2788970D01*
X5902756Y-2775610D01*
X5903671Y-2761996D01*
X5902756Y-2748381D01*
X5900064Y-2735021D01*
X5895594Y-2722118D01*
X5889447Y-2709976D01*
X5881725Y-2698750D01*
X5872581Y-2688590D01*
X5862167Y-2679801D01*
X5850636Y-2672486D01*
X5838291Y-2666746D01*
X5825236Y-2662682D01*
X5811824Y-2660446D01*
X5798159Y-2659989D01*
X5784596Y-2661310D01*
X5771337Y-2664510D01*
X5758637Y-2669387D01*
X5746648Y-2675940D01*
X5735675Y-2684018D01*
X5725871Y-2693517D01*
X5717438Y-2704236D01*
X5710478Y-2715971D01*
X5705144Y-2728518D01*
X5701538Y-2741676D01*
X5699709Y-2755188D01*
X5699709Y-2768803D01*
X5701538Y-2782316D01*
X5705144Y-2795473D01*
X5710478Y-2808020D01*
X5717438Y-2819755D01*
X5725871Y-2830474D01*
X5735675Y-2839974D01*
X5746648Y-2848051D01*
X5758637Y-2854604D01*
X5771337Y-2859481D01*
X5784596Y-2862681D01*
G37*
G36*
X5798159Y-2610002D02*
G01*
X5811824Y-2609545D01*
X5825236Y-2607310D01*
X5838291Y-2603246D01*
X5850636Y-2597505D01*
X5862167Y-2590190D01*
X5872581Y-2581402D01*
X5881725Y-2571242D01*
X5889447Y-2560015D01*
X5895594Y-2547874D01*
X5900064Y-2534970D01*
X5902756Y-2521610D01*
X5903671Y-2507996D01*
X5902756Y-2494381D01*
X5900064Y-2481021D01*
X5895594Y-2468118D01*
X5889447Y-2455976D01*
X5881725Y-2444750D01*
X5872581Y-2434590D01*
X5862167Y-2425801D01*
X5850636Y-2418486D01*
X5838291Y-2412746D01*
X5825236Y-2408682D01*
X5811824Y-2406446D01*
X5798159Y-2405989D01*
X5784596Y-2407310D01*
X5771337Y-2410510D01*
X5758637Y-2415387D01*
X5746648Y-2421940D01*
X5735675Y-2430018D01*
X5725871Y-2439517D01*
X5717438Y-2450236D01*
X5710478Y-2461971D01*
X5705144Y-2474518D01*
X5701538Y-2487676D01*
X5699709Y-2501188D01*
X5699709Y-2514803D01*
X5701538Y-2528316D01*
X5705144Y-2541473D01*
X5710478Y-2554020D01*
X5717438Y-2565755D01*
X5725871Y-2576474D01*
X5735675Y-2585974D01*
X5746648Y-2594051D01*
X5758637Y-2600604D01*
X5771337Y-2605481D01*
X5784596Y-2608681D01*
G37*
G36*
X9400540Y-2594102D02*
G01*
X9599422Y-2594102D01*
X9605721Y-2593390D01*
X9611207Y-2591460D01*
X9616084Y-2588412D01*
X9620199Y-2584297D01*
X9623247Y-2579420D01*
X9625177Y-2573934D01*
X9625888Y-2567635D01*
X9625888Y-2416352D01*
X9625177Y-2410053D01*
X9623247Y-2404567D01*
X9620199Y-2399690D01*
X9616084Y-2395575D01*
X9611207Y-2392527D01*
X9605721Y-2390597D01*
X9599422Y-2389886D01*
X9400540Y-2389886D01*
X9394240Y-2390597D01*
X9388754Y-2392527D01*
X9383877Y-2395575D01*
X9379762Y-2399690D01*
X9376714Y-2404567D01*
X9374784Y-2410053D01*
X9374073Y-2416352D01*
X9374073Y-2567635D01*
X9374784Y-2573934D01*
X9376714Y-2579420D01*
X9379762Y-2584297D01*
X9383877Y-2588412D01*
X9388754Y-2591460D01*
X9394240Y-2593390D01*
G37*
G36*
X5798159Y-2356002D02*
G01*
X5811824Y-2355545D01*
X5825236Y-2353310D01*
X5838291Y-2349246D01*
X5850636Y-2343505D01*
X5862167Y-2336190D01*
X5872581Y-2327402D01*
X5881725Y-2317242D01*
X5889447Y-2306015D01*
X5895594Y-2293874D01*
X5900064Y-2280970D01*
X5902756Y-2267610D01*
X5903671Y-2253996D01*
X5902756Y-2240381D01*
X5900064Y-2227021D01*
X5895594Y-2214118D01*
X5889447Y-2201976D01*
X5881725Y-2190750D01*
X5872581Y-2180590D01*
X5862167Y-2171801D01*
X5850636Y-2164486D01*
X5838291Y-2158746D01*
X5825236Y-2154682D01*
X5811824Y-2152446D01*
X5798159Y-2151989D01*
X5784596Y-2153310D01*
X5771337Y-2156510D01*
X5758637Y-2161387D01*
X5746648Y-2167940D01*
X5735675Y-2176018D01*
X5725871Y-2185517D01*
X5717438Y-2196236D01*
X5710478Y-2207971D01*
X5705144Y-2220518D01*
X5701538Y-2233676D01*
X5699709Y-2247188D01*
X5699709Y-2260803D01*
X5701538Y-2274316D01*
X5705144Y-2287473D01*
X5710478Y-2300020D01*
X5717438Y-2311755D01*
X5725871Y-2322474D01*
X5735675Y-2331974D01*
X5746648Y-2340051D01*
X5758637Y-2346604D01*
X5771337Y-2351481D01*
X5784596Y-2354681D01*
G37*
G36*
X8400084Y-2102002D02*
G01*
X8413699Y-2101545D01*
X8427161Y-2099310D01*
X8440166Y-2095246D01*
X8452561Y-2089505D01*
X8464042Y-2082190D01*
X8474456Y-2073402D01*
X8483600Y-2063242D01*
X8491321Y-2052015D01*
X8497468Y-2039874D01*
X8501938Y-2026970D01*
X8504682Y-2013610D01*
X8505596Y-1999996D01*
X8504682Y-1986381D01*
X8501938Y-1973021D01*
X8497468Y-1960118D01*
X8491321Y-1947976D01*
X8483600Y-1936750D01*
X8474456Y-1926589D01*
X8464042Y-1917801D01*
X8452561Y-1910486D01*
X8440166Y-1904746D01*
X8427161Y-1900682D01*
X8413699Y-1898446D01*
X8400084Y-1897989D01*
X8386521Y-1899310D01*
X8373262Y-1902510D01*
X8360511Y-1907387D01*
X8348573Y-1913940D01*
X8337600Y-1922018D01*
X8327796Y-1931517D01*
X8319312Y-1942236D01*
X8312353Y-1953971D01*
X8307070Y-1966518D01*
X8303463Y-1979675D01*
X8301634Y-1993188D01*
X8301634Y-2006803D01*
X8303463Y-2020316D01*
X8307070Y-2033473D01*
X8312353Y-2046020D01*
X8319312Y-2057755D01*
X8327796Y-2068474D01*
X8337600Y-2077974D01*
X8348573Y-2086051D01*
X8360511Y-2092604D01*
X8373262Y-2097481D01*
X8386521Y-2100681D01*
G37*
G36*
X5798159Y-2102002D02*
G01*
X5811824Y-2101545D01*
X5825236Y-2099310D01*
X5838291Y-2095246D01*
X5850636Y-2089505D01*
X5862167Y-2082190D01*
X5872581Y-2073402D01*
X5881725Y-2063242D01*
X5889447Y-2052015D01*
X5895594Y-2039874D01*
X5900064Y-2026970D01*
X5902756Y-2013610D01*
X5903671Y-1999996D01*
X5902756Y-1986381D01*
X5900064Y-1973021D01*
X5895594Y-1960118D01*
X5889447Y-1947976D01*
X5881725Y-1936750D01*
X5872581Y-1926589D01*
X5862167Y-1917801D01*
X5850636Y-1910486D01*
X5838291Y-1904746D01*
X5825236Y-1900682D01*
X5811824Y-1898446D01*
X5798159Y-1897989D01*
X5784596Y-1899310D01*
X5771337Y-1902510D01*
X5758637Y-1907387D01*
X5746648Y-1913940D01*
X5735675Y-1922018D01*
X5725871Y-1931517D01*
X5717438Y-1942236D01*
X5710478Y-1953971D01*
X5705144Y-1966518D01*
X5701538Y-1979675D01*
X5699709Y-1993188D01*
X5699709Y-2006803D01*
X5701538Y-2020316D01*
X5705144Y-2033473D01*
X5710478Y-2046020D01*
X5717438Y-2057755D01*
X5725871Y-2068474D01*
X5735675Y-2077974D01*
X5746648Y-2086051D01*
X5758637Y-2092604D01*
X5771337Y-2097481D01*
X5784596Y-2100681D01*
G37*
G36*
X8717991Y-908456D02*
G01*
X8752382Y-908456D01*
X8752382Y-847648D01*
X8691524Y-847648D01*
X8691524Y-881989D01*
X8692235Y-888288D01*
X8694166Y-893775D01*
X8697214Y-898652D01*
X8701328Y-902766D01*
X8706205Y-905814D01*
X8711692Y-907745D01*
G37*
G36*
X8847632Y-908456D02*
G01*
X8881973Y-908456D01*
X8888272Y-907745D01*
X8893759Y-905814D01*
X8898636Y-902766D01*
X8902750Y-898652D01*
X8905798Y-893775D01*
X8907729Y-888288D01*
X8908440Y-881989D01*
X8908440Y-847648D01*
X8847632Y-847648D01*
G37*
G36*
X9048902Y-908456D02*
G01*
X9063075Y-907491D01*
X9076944Y-904748D01*
X9090406Y-900176D01*
X9103106Y-893927D01*
X9114891Y-886002D01*
X9125559Y-876655D01*
X9134906Y-865987D01*
X9142831Y-854202D01*
X9149080Y-841502D01*
X9153652Y-828040D01*
X9156395Y-814171D01*
X9157360Y-799998D01*
X9156395Y-785825D01*
X9153652Y-771956D01*
X9149080Y-758494D01*
X9142831Y-745794D01*
X9134906Y-734009D01*
X9125559Y-723341D01*
X9114891Y-713994D01*
X9108033Y-709371D01*
X9105239Y-706577D01*
X9103715Y-702919D01*
X9103715Y-698957D01*
X9105239Y-695299D01*
X9108033Y-692505D01*
X9114891Y-687882D01*
X9125559Y-678535D01*
X9134906Y-667867D01*
X9142831Y-656082D01*
X9149080Y-643382D01*
X9153652Y-629920D01*
X9156395Y-616051D01*
X9157360Y-601878D01*
X9156395Y-587705D01*
X9153652Y-573836D01*
X9149080Y-560374D01*
X9142831Y-547674D01*
X9134906Y-535889D01*
X9125559Y-525221D01*
X9114891Y-515874D01*
X9103106Y-507949D01*
X9090406Y-501700D01*
X9076944Y-497128D01*
X9063075Y-494385D01*
X9048902Y-493420D01*
X9034729Y-494385D01*
X9020860Y-497128D01*
X9007398Y-501700D01*
X8994698Y-507949D01*
X8982913Y-515874D01*
X8972245Y-525221D01*
X8962898Y-535889D01*
X8954973Y-547674D01*
X8948724Y-560374D01*
X8944152Y-573836D01*
X8941409Y-587705D01*
X8940444Y-601878D01*
X8941409Y-616051D01*
X8944152Y-629920D01*
X8948724Y-643382D01*
X8954973Y-656082D01*
X8962898Y-667867D01*
X8972245Y-678535D01*
X8982913Y-687882D01*
X8989771Y-692505D01*
X8992565Y-695299D01*
X8994089Y-698957D01*
X8994089Y-702919D01*
X8992565Y-706577D01*
X8989771Y-709371D01*
X8982913Y-713994D01*
X8972245Y-723341D01*
X8962898Y-734009D01*
X8954973Y-745794D01*
X8948724Y-758494D01*
X8944152Y-771956D01*
X8941409Y-785825D01*
X8940444Y-799998D01*
X8941409Y-814171D01*
X8944152Y-828040D01*
X8948724Y-841502D01*
X8954973Y-854202D01*
X8962898Y-865987D01*
X8972245Y-876655D01*
X8982913Y-886002D01*
X8994698Y-893927D01*
X9007398Y-900176D01*
X9020860Y-904748D01*
X9034729Y-907491D01*
G37*
G36*
X6248908Y-908456D02*
G01*
X6263081Y-907491D01*
X6276949Y-904748D01*
X6290411Y-900176D01*
X6303111Y-893927D01*
X6314897Y-886002D01*
X6325565Y-876655D01*
X6334912Y-865987D01*
X6342837Y-854202D01*
X6349085Y-841502D01*
X6353657Y-828040D01*
X6356400Y-814171D01*
X6357366Y-799998D01*
X6356400Y-785825D01*
X6353657Y-771956D01*
X6349085Y-758494D01*
X6342837Y-745794D01*
X6334912Y-734009D01*
X6325565Y-723341D01*
X6314897Y-713994D01*
X6308039Y-709371D01*
X6305245Y-706577D01*
X6303721Y-702919D01*
X6303721Y-698957D01*
X6305245Y-695299D01*
X6308039Y-692505D01*
X6314897Y-687882D01*
X6325565Y-678535D01*
X6334912Y-667867D01*
X6342837Y-656082D01*
X6349085Y-643382D01*
X6353657Y-629920D01*
X6356400Y-616051D01*
X6357366Y-601878D01*
X6356400Y-587705D01*
X6353657Y-573836D01*
X6349085Y-560374D01*
X6342837Y-547674D01*
X6334912Y-535889D01*
X6325565Y-525221D01*
X6314897Y-515874D01*
X6303111Y-507949D01*
X6290411Y-501700D01*
X6276949Y-497128D01*
X6263081Y-494385D01*
X6248908Y-493420D01*
X6234734Y-494385D01*
X6220866Y-497128D01*
X6207404Y-501700D01*
X6194704Y-507949D01*
X6182918Y-515874D01*
X6172250Y-525221D01*
X6162903Y-535889D01*
X6154978Y-547674D01*
X6148730Y-560374D01*
X6144158Y-573836D01*
X6141415Y-587705D01*
X6140450Y-601878D01*
X6141415Y-616051D01*
X6144158Y-629920D01*
X6148730Y-643382D01*
X6154978Y-656082D01*
X6162903Y-667867D01*
X6172250Y-678535D01*
X6182918Y-687882D01*
X6189776Y-692505D01*
X6192570Y-695299D01*
X6194094Y-698957D01*
X6194094Y-702919D01*
X6192570Y-706577D01*
X6189776Y-709371D01*
X6182918Y-713994D01*
X6172250Y-723341D01*
X6162903Y-734009D01*
X6154978Y-745794D01*
X6148730Y-758494D01*
X6144158Y-771956D01*
X6141415Y-785825D01*
X6140450Y-799998D01*
X6141415Y-814171D01*
X6144158Y-828040D01*
X6148730Y-841502D01*
X6154978Y-854202D01*
X6162903Y-865987D01*
X6172250Y-876655D01*
X6182918Y-886002D01*
X6194704Y-893927D01*
X6207404Y-900176D01*
X6220866Y-904748D01*
X6234734Y-907491D01*
G37*
G36*
X8691524Y-752398D02*
G01*
X8752382Y-752398D01*
X8752382Y-714146D01*
X8753094Y-710387D01*
X8755126Y-707186D01*
X8758275Y-704951D01*
X8761984Y-704037D01*
X8765794Y-704545D01*
X8771940Y-706628D01*
X8785809Y-709371D01*
X8799982Y-710336D01*
X8814155Y-709371D01*
X8828024Y-706628D01*
X8834170Y-704545D01*
X8837980Y-704037D01*
X8841689Y-704951D01*
X8844838Y-707186D01*
X8846870Y-710387D01*
X8847632Y-714146D01*
X8847632Y-752398D01*
X8908440Y-752398D01*
X8908440Y-718007D01*
X8907729Y-711708D01*
X8905798Y-706221D01*
X8902750Y-701344D01*
X8898636Y-697230D01*
X8893759Y-694182D01*
X8888272Y-692251D01*
X8886088Y-691997D01*
X8881922Y-690575D01*
X8878773Y-687527D01*
X8877198Y-683463D01*
X8877452Y-679043D01*
X8879586Y-675233D01*
X8885986Y-667867D01*
X8893911Y-656082D01*
X8900160Y-643382D01*
X8904732Y-629920D01*
X8907475Y-616051D01*
X8908440Y-601878D01*
X8907475Y-587705D01*
X8904732Y-573836D01*
X8900160Y-560374D01*
X8893911Y-547674D01*
X8885986Y-535889D01*
X8876639Y-525221D01*
X8865971Y-515874D01*
X8854186Y-507949D01*
X8841486Y-501700D01*
X8828024Y-497128D01*
X8814155Y-494385D01*
X8799982Y-493420D01*
X8785809Y-494385D01*
X8771940Y-497128D01*
X8758478Y-501700D01*
X8745778Y-507949D01*
X8733993Y-515874D01*
X8723325Y-525221D01*
X8713978Y-535889D01*
X8706053Y-547674D01*
X8699804Y-560374D01*
X8695232Y-573836D01*
X8692489Y-587705D01*
X8691524Y-601878D01*
X8692489Y-616051D01*
X8695232Y-629920D01*
X8699804Y-643382D01*
X8706053Y-656082D01*
X8713978Y-667867D01*
X8720378Y-675233D01*
X8722512Y-679043D01*
X8722766Y-683463D01*
X8721191Y-687527D01*
X8718042Y-690575D01*
X8713876Y-691997D01*
X8711692Y-692251D01*
X8706205Y-694182D01*
X8701328Y-697230D01*
X8697214Y-701344D01*
X8694166Y-706221D01*
X8692235Y-711708D01*
X8691524Y-718007D01*
G37*
G36*
X5522468Y-546506D02*
G01*
X5542737Y-545541D01*
X5562803Y-542696D01*
X5582564Y-537972D01*
X5601766Y-531469D01*
X5620258Y-523138D01*
X5637885Y-513130D01*
X5654548Y-501497D01*
X5669991Y-488391D01*
X5684164Y-473913D01*
X5696915Y-458114D01*
X5708142Y-441198D01*
X5717743Y-423316D01*
X5725617Y-404622D01*
X5731713Y-385267D01*
X5735980Y-365455D01*
X5738317Y-345287D01*
X5738825Y-325018D01*
X5737402Y-304800D01*
X5734050Y-284784D01*
X5728868Y-265176D01*
X5721908Y-246125D01*
X5713171Y-227787D01*
X5702757Y-210413D01*
X5690768Y-194056D01*
X5677255Y-178866D01*
X5662422Y-165049D01*
X5646369Y-152654D01*
X5629198Y-141833D01*
X5611114Y-132689D01*
X5592216Y-125272D01*
X5572760Y-119633D01*
X5552795Y-115824D01*
X5532628Y-113944D01*
X5512308Y-113944D01*
X5492140Y-115824D01*
X5472176Y-119633D01*
X5452719Y-125272D01*
X5433822Y-132689D01*
X5415737Y-141833D01*
X5398566Y-152654D01*
X5382514Y-165049D01*
X5367680Y-178866D01*
X5354167Y-194056D01*
X5342178Y-210413D01*
X5331764Y-227787D01*
X5323027Y-246125D01*
X5316067Y-265176D01*
X5310886Y-284784D01*
X5307533Y-304800D01*
X5306110Y-325018D01*
X5306618Y-345287D01*
X5308955Y-365455D01*
X5313222Y-385267D01*
X5319318Y-404622D01*
X5327192Y-423316D01*
X5336794Y-441198D01*
X5348020Y-458114D01*
X5360771Y-473913D01*
X5374944Y-488391D01*
X5390388Y-501497D01*
X5407050Y-513130D01*
X5424678Y-523138D01*
X5443169Y-531469D01*
X5462371Y-537972D01*
X5482132Y-542696D01*
X5502198Y-545541D01*
G37*
G36*
X9526422Y-546506D02*
G01*
X9546691Y-545541D01*
X9566757Y-542696D01*
X9586518Y-537972D01*
X9605721Y-531469D01*
X9624212Y-523138D01*
X9641840Y-513130D01*
X9658502Y-501497D01*
X9673945Y-488391D01*
X9688118Y-473913D01*
X9700869Y-458114D01*
X9712096Y-441198D01*
X9721697Y-423316D01*
X9729571Y-404622D01*
X9735667Y-385267D01*
X9739934Y-365455D01*
X9742271Y-345287D01*
X9742779Y-325018D01*
X9741357Y-304800D01*
X9738004Y-284784D01*
X9732822Y-265176D01*
X9725863Y-246125D01*
X9717125Y-227787D01*
X9706711Y-210413D01*
X9694722Y-194056D01*
X9681210Y-178866D01*
X9666376Y-165049D01*
X9650323Y-152654D01*
X9633153Y-141833D01*
X9615068Y-132689D01*
X9596170Y-125272D01*
X9576714Y-119633D01*
X9556750Y-115824D01*
X9536582Y-113944D01*
X9516262Y-113944D01*
X9496094Y-115824D01*
X9476130Y-119633D01*
X9456674Y-125272D01*
X9437776Y-132689D01*
X9419691Y-141833D01*
X9402521Y-152654D01*
X9386468Y-165049D01*
X9371634Y-178866D01*
X9358122Y-194056D01*
X9346133Y-210413D01*
X9335719Y-227787D01*
X9326981Y-246125D01*
X9320022Y-265176D01*
X9314840Y-284784D01*
X9311487Y-304800D01*
X9310065Y-325018D01*
X9310573Y-345287D01*
X9312910Y-365455D01*
X9317177Y-385267D01*
X9323273Y-404622D01*
X9331147Y-423316D01*
X9340748Y-441198D01*
X9351975Y-458114D01*
X9364726Y-473913D01*
X9378899Y-488391D01*
X9394342Y-501497D01*
X9411004Y-513130D01*
X9428632Y-523138D01*
X9447123Y-531469D01*
X9466326Y-537972D01*
X9486087Y-542696D01*
X9506153Y-545541D01*
G37*
G36*
X8322462Y-546506D02*
G01*
X8342731Y-545541D01*
X8362797Y-542696D01*
X8382558Y-537972D01*
X8401761Y-531469D01*
X8420252Y-523138D01*
X8437880Y-513130D01*
X8454542Y-501497D01*
X8469985Y-488391D01*
X8484158Y-473913D01*
X8496909Y-458114D01*
X8508136Y-441198D01*
X8517737Y-423316D01*
X8525611Y-404622D01*
X8531707Y-385267D01*
X8535974Y-365455D01*
X8538311Y-345287D01*
X8538819Y-325018D01*
X8537397Y-304800D01*
X8534044Y-284784D01*
X8528862Y-265176D01*
X8521903Y-246125D01*
X8513165Y-227787D01*
X8502751Y-210413D01*
X8490762Y-194056D01*
X8477250Y-178866D01*
X8462416Y-165049D01*
X8446363Y-152654D01*
X8429193Y-141833D01*
X8411108Y-132689D01*
X8392210Y-125272D01*
X8372754Y-119633D01*
X8352790Y-115824D01*
X8332622Y-113944D01*
X8312302Y-113944D01*
X8292134Y-115824D01*
X8272170Y-119633D01*
X8252714Y-125272D01*
X8233816Y-132689D01*
X8215731Y-141833D01*
X8198561Y-152654D01*
X8182508Y-165049D01*
X8167674Y-178866D01*
X8154162Y-194056D01*
X8142173Y-210413D01*
X8131759Y-227787D01*
X8123021Y-246125D01*
X8116062Y-265176D01*
X8110880Y-284784D01*
X8107527Y-304800D01*
X8106105Y-325018D01*
X8106613Y-345287D01*
X8108950Y-365455D01*
X8113217Y-385267D01*
X8119313Y-404622D01*
X8127187Y-423316D01*
X8136788Y-441198D01*
X8148015Y-458114D01*
X8160766Y-473913D01*
X8174939Y-488391D01*
X8190382Y-501497D01*
X8207044Y-513130D01*
X8224672Y-523138D01*
X8243163Y-531469D01*
X8262366Y-537972D01*
X8282127Y-542696D01*
X8302193Y-545541D01*
G37*
G36*
X6726428Y-546506D02*
G01*
X6746697Y-545541D01*
X6766763Y-542696D01*
X6786524Y-537972D01*
X6805726Y-531469D01*
X6824218Y-523138D01*
X6841845Y-513130D01*
X6858508Y-501497D01*
X6873951Y-488391D01*
X6888124Y-473913D01*
X6900875Y-458114D01*
X6912102Y-441198D01*
X6921703Y-423316D01*
X6929577Y-404622D01*
X6935673Y-385267D01*
X6939940Y-365455D01*
X6942277Y-345287D01*
X6942785Y-325018D01*
X6941362Y-304800D01*
X6938009Y-284784D01*
X6932828Y-265176D01*
X6925868Y-246125D01*
X6917131Y-227787D01*
X6906717Y-210413D01*
X6894728Y-194056D01*
X6881215Y-178866D01*
X6866381Y-165049D01*
X6850329Y-152654D01*
X6833158Y-141833D01*
X6815074Y-132689D01*
X6796176Y-125272D01*
X6776720Y-119633D01*
X6756755Y-115824D01*
X6736588Y-113944D01*
X6716268Y-113944D01*
X6696100Y-115824D01*
X6676136Y-119633D01*
X6656679Y-125272D01*
X6637781Y-132689D01*
X6619697Y-141833D01*
X6602526Y-152654D01*
X6586474Y-165049D01*
X6571640Y-178866D01*
X6558127Y-194056D01*
X6546138Y-210413D01*
X6535724Y-227787D01*
X6526987Y-246125D01*
X6520027Y-265176D01*
X6514846Y-284784D01*
X6511493Y-304800D01*
X6510070Y-325018D01*
X6510578Y-345287D01*
X6512915Y-365455D01*
X6517182Y-385267D01*
X6523278Y-404622D01*
X6531152Y-423316D01*
X6540754Y-441198D01*
X6551980Y-458114D01*
X6564731Y-473913D01*
X6578904Y-488391D01*
X6594348Y-501497D01*
X6611010Y-513130D01*
X6628638Y-523138D01*
X6647129Y-531469D01*
X6666331Y-537972D01*
X6686092Y-542696D01*
X6706158Y-545541D01*
G37*

%LPD*%
D10*
X4203496Y-2253995D02*
G01*
X3398037Y-3059455D01*
X3398037Y-5350510D01*
X1372996Y-7375550D01*
X1372996Y-7499985D02*
G01*
X1372996Y-7375550D01*
X8372983Y-7499985D02*
G01*
X8372983Y-7375550D01*
X8403488Y-2253995D02*
G01*
X8520836Y-2371344D01*
X8520836Y-7227696D01*
X8372983Y-7375550D01*
X6372986Y-7499985D02*
G01*
X6372986Y-4793995D01*
X5801588Y-4539995D02*
G01*
X5372988Y-4968595D01*
X5372988Y-7499985D01*
D11*
X999997Y-799998D02*
G01*
X999997Y-918565D01*
X499998Y-2745994D02*
G01*
X240436Y-3005556D01*
X240436Y-8268462D01*
X360781Y-8388807D01*
X360781Y-8534425D01*
X447471Y-8621115D01*
X632866Y-8621115D01*
X753998Y-8499983D01*
D10*
X499998Y-8499983D02*
G01*
X934415Y-8065566D01*
X934415Y-2835249D01*
X1499996Y-8499983D02*
G01*
X992987Y-7992973D01*
X992987Y-2780664D01*
X974318Y-2761995D01*
X1601596Y-3015995D02*
G01*
X1709572Y-3123971D01*
X1709572Y-6772351D01*
X1237513Y-7244410D01*
X1237513Y-7600594D01*
X1985086Y-8348167D01*
X2348179Y-8348167D01*
X2499995Y-8499983D01*
X3499993Y-8499983D02*
G01*
X3499993Y-4430268D01*
X3515182Y-4415078D01*
X3515182Y-3781653D01*
X4499990Y-8499983D02*
G01*
X4499990Y-6190995D01*
D11*
X9499981Y-2745994D02*
G01*
X9759543Y-3005556D01*
X9759543Y-8494420D01*
X9753981Y-8499983D01*
D10*
X5801588Y-3523995D02*
G01*
X5910300Y-3632707D01*
X5910300Y-4582871D01*
X5811723Y-4681448D01*
X5766688Y-4681448D01*
X5499988Y-4948148D01*
X5499988Y-8499983D01*
X6499986Y-8499983D02*
G01*
X6499986Y-3470198D01*
X5801588Y-3015995D02*
G01*
X5951245Y-3165652D01*
X5951245Y-4803952D01*
X5834202Y-4920995D01*
X5770270Y-4920995D01*
X5691936Y-4999329D01*
X5691936Y-6962063D01*
X5913754Y-7183881D01*
X5913754Y-7741081D01*
X8499983Y-8499983D02*
G01*
X8179943Y-8179943D01*
X8179943Y-4399203D01*
X9499981Y-8499983D02*
G01*
X9499981Y-7180961D01*
X8670366Y-6351346D01*
X8670366Y-2398699D01*
X4203496Y-4285995D02*
G01*
X4315764Y-4398263D01*
X4315764Y-7047103D01*
X4158995Y-7203871D01*
X4158995Y-7624571D01*
X1245996Y-9499980D02*
G01*
X1352651Y-9499980D01*
X4203496Y-4031995D02*
G01*
X3882313Y-4353179D01*
X3882313Y-8523731D01*
X2785745Y-9620300D01*
X1446301Y-9620300D01*
X1352651Y-9526651D01*
X1352651Y-9499980D01*
X2245995Y-9499980D02*
G01*
X2245995Y-9393326D01*
X3456609Y-4390796D02*
G01*
X3456609Y-7085177D01*
X2626664Y-7915122D01*
X2626664Y-9012656D01*
X2245995Y-9393326D01*
X3245993Y-9499980D02*
G01*
X3245993Y-9393326D01*
X4203496Y-3269995D02*
G01*
X4308297Y-3374796D01*
X4308297Y-4090847D01*
X4240149Y-4158995D01*
X4182821Y-4158995D01*
X4004843Y-4336973D01*
X4004843Y-8634476D01*
X3245993Y-9393326D01*
X4245990Y-9499980D02*
G01*
X4245990Y-9393326D01*
X4203496Y-4539995D02*
G01*
X4098543Y-4644948D01*
X4098543Y-9245879D01*
X4245990Y-9393326D01*
X5245988Y-9499980D02*
G01*
X5245988Y-9393326D01*
X5245988Y-9393326D02*
G01*
X6082791Y-8556523D01*
X6082791Y-5609081D01*
X6245986Y-9393326D02*
G01*
X7083475Y-8555837D01*
X7083475Y-4590008D01*
X8403488Y-3269995D01*
X6245986Y-9499980D02*
G01*
X6245986Y-9393326D01*
X7245984Y-9499980D02*
G01*
X7245984Y-9393326D01*
X8403488Y-3777995D02*
G01*
X7502372Y-4679111D01*
X7502372Y-8006918D01*
X7358608Y-8150682D01*
X7358608Y-9280702D01*
X7245984Y-9393326D01*
X8403488Y-4031995D02*
G01*
X8110600Y-4324883D01*
X8110600Y-9257944D01*
X8245983Y-9393326D01*
X8245983Y-9499980D02*
G01*
X8245983Y-9393326D01*
X8403488Y-4285995D02*
G01*
X8248370Y-4441113D01*
X8248370Y-7716037D01*
X9245981Y-8713647D01*
X9245981Y-9499980D01*
D11*
X1601470Y-6571995D02*
G01*
X1054100Y-6024626D01*
X1054100Y-972565D01*
X999997Y-918463D01*
X5999988Y-799998D02*
G01*
X5999988Y-6373596D01*
X5801588Y-6571995D01*
D12*
G01*
X4626990Y-7499985D03*
G01*
X4372990Y-7499985D03*
G01*
X3626993Y-7499985D03*
G01*
X3372993Y-7499985D03*
G01*
X2626995Y-7499985D03*
G01*
X2372995Y-7499985D03*
G01*
X626998Y-7499985D03*
G01*
X372998Y-7499985D03*
G01*
X1626996Y-7499985D03*
G01*
X1372996Y-7499985D03*
G01*
X8626983Y-7499985D03*
G01*
X8372983Y-7499985D03*
G01*
X9626981Y-7499985D03*
G01*
X9372981Y-7499985D03*
G01*
X7626984Y-7499985D03*
G01*
X7372984Y-7499985D03*
G01*
X6626986Y-7499985D03*
G01*
X6372986Y-7499985D03*
G01*
X5626988Y-7499985D03*
G01*
X5372988Y-7499985D03*
D13*
G01*
X999997Y-799998D03*
D14*
G01*
X1248918Y-799998D03*
G01*
X1248918Y-601878D03*
G01*
X999997Y-601878D03*
D15*
G01*
X522478Y-330098D03*
G01*
X1726437Y-330098D03*
D13*
G01*
X3799992Y-799998D03*
D14*
G01*
X4048912Y-799998D03*
G01*
X4048912Y-601878D03*
G01*
X3799992Y-601878D03*
D15*
G01*
X3322472Y-330098D03*
G01*
X4526432Y-330098D03*
D13*
G01*
X5999988Y-799998D03*
D14*
G01*
X6248908Y-799998D03*
G01*
X6248908Y-601878D03*
G01*
X5999988Y-601878D03*
D15*
G01*
X5522468Y-330098D03*
G01*
X6726427Y-330098D03*
D13*
G01*
X8799982Y-799998D03*
D14*
G01*
X9048902Y-799998D03*
G01*
X9048902Y-601878D03*
G01*
X8799982Y-601878D03*
D15*
G01*
X8322462Y-330098D03*
G01*
X9526422Y-330098D03*
D16*
G01*
X753998Y-8499983D03*
G01*
X499998Y-8499983D03*
D17*
G01*
X245998Y-8499983D03*
D16*
G01*
X1753996Y-8499983D03*
G01*
X1499996Y-8499983D03*
D17*
G01*
X1245996Y-8499983D03*
D16*
G01*
X2753995Y-8499983D03*
G01*
X2499995Y-8499983D03*
D17*
G01*
X2245995Y-8499983D03*
D16*
G01*
X3753993Y-8499983D03*
G01*
X3499993Y-8499983D03*
D17*
G01*
X3245993Y-8499983D03*
D16*
G01*
X4753990Y-8499983D03*
G01*
X4499990Y-8499983D03*
D17*
G01*
X4245990Y-8499983D03*
D16*
G01*
X5753988Y-8499983D03*
G01*
X5499988Y-8499983D03*
D17*
G01*
X5245988Y-8499983D03*
D16*
G01*
X6753986Y-8499983D03*
G01*
X6499986Y-8499983D03*
D17*
G01*
X6245986Y-8499983D03*
D16*
G01*
X7753984Y-8499983D03*
G01*
X7499984Y-8499983D03*
D17*
G01*
X7245984Y-8499983D03*
D16*
G01*
X8753983Y-8499983D03*
G01*
X8499983Y-8499983D03*
D17*
G01*
X8245983Y-8499983D03*
D16*
G01*
X9753981Y-8499983D03*
G01*
X9499981Y-8499983D03*
D17*
G01*
X9245981Y-8499983D03*
D16*
G01*
X753998Y-9499980D03*
G01*
X499998Y-9499980D03*
D17*
G01*
X245998Y-9499980D03*
D16*
G01*
X1753996Y-9499980D03*
G01*
X1499996Y-9499980D03*
D17*
G01*
X1245996Y-9499980D03*
D16*
G01*
X2753995Y-9499980D03*
G01*
X2499995Y-9499980D03*
D17*
G01*
X2245995Y-9499980D03*
D16*
G01*
X3753993Y-9499980D03*
G01*
X3499993Y-9499980D03*
D17*
G01*
X3245993Y-9499980D03*
D16*
G01*
X4753990Y-9499980D03*
G01*
X4499990Y-9499980D03*
D17*
G01*
X4245990Y-9499980D03*
D16*
G01*
X5753988Y-9499980D03*
G01*
X5499988Y-9499980D03*
D17*
G01*
X5245988Y-9499980D03*
D16*
G01*
X6753986Y-9499980D03*
G01*
X6499986Y-9499980D03*
D17*
G01*
X6245986Y-9499980D03*
D16*
G01*
X7753984Y-9499980D03*
G01*
X7499984Y-9499980D03*
D17*
G01*
X7245984Y-9499980D03*
D16*
G01*
X8753983Y-9499980D03*
G01*
X8499983Y-9499980D03*
D17*
G01*
X8245983Y-9499980D03*
D16*
G01*
X9753981Y-9499980D03*
G01*
X9499981Y-9499980D03*
D17*
G01*
X9245981Y-9499980D03*
D18*
G01*
X1601596Y-1999995D03*
G01*
X1601596Y-2253995D03*
G01*
X1601596Y-2507995D03*
G01*
X1601596Y-2761995D03*
G01*
X1601596Y-3015995D03*
G01*
X1601596Y-3269995D03*
G01*
X1601596Y-3523995D03*
G01*
X1601596Y-3777995D03*
G01*
X1601596Y-4031995D03*
G01*
X1601596Y-4285995D03*
G01*
X1601596Y-4539995D03*
G01*
X1601596Y-4793995D03*
G01*
X1601596Y-5047995D03*
G01*
X1601596Y-5301995D03*
G01*
X1601596Y-5555995D03*
G01*
X1601596Y-5809995D03*
G01*
X1601596Y-6063995D03*
G01*
X1601596Y-6317995D03*
G01*
X1601596Y-6571995D03*
G01*
X4203496Y-6571995D03*
G01*
X4203496Y-6317995D03*
G01*
X4203496Y-6063995D03*
G01*
X4203496Y-5809995D03*
G01*
X4203496Y-5555995D03*
G01*
X4203496Y-5301995D03*
G01*
X4203496Y-5047995D03*
G01*
X4203496Y-4793995D03*
G01*
X4203496Y-4539995D03*
G01*
X4203496Y-4285995D03*
G01*
X4203496Y-4031995D03*
G01*
X4203496Y-3777995D03*
G01*
X4203496Y-3523995D03*
G01*
X4203496Y-3269995D03*
G01*
X4203496Y-3015995D03*
G01*
X4203496Y-2761995D03*
G01*
X4203496Y-2507995D03*
G01*
X4203496Y-2253995D03*
G01*
X4203496Y-1999995D03*
G01*
X5801588Y-1999995D03*
G01*
X5801588Y-2253995D03*
G01*
X5801588Y-2507995D03*
G01*
X5801588Y-2761995D03*
G01*
X5801588Y-3015995D03*
G01*
X5801588Y-3269995D03*
G01*
X5801588Y-3523995D03*
G01*
X5801588Y-3777995D03*
G01*
X5801588Y-4031995D03*
G01*
X5801588Y-4285995D03*
G01*
X5801588Y-4539995D03*
G01*
X5801588Y-4793995D03*
G01*
X5801588Y-5047995D03*
G01*
X5801588Y-5301995D03*
G01*
X5801588Y-5555995D03*
G01*
X5801588Y-5809995D03*
G01*
X5801588Y-6063995D03*
G01*
X5801588Y-6317995D03*
G01*
X5801588Y-6571995D03*
G01*
X8403488Y-6571995D03*
G01*
X8403488Y-6317995D03*
G01*
X8403488Y-6063995D03*
G01*
X8403488Y-5809995D03*
G01*
X8403488Y-5555995D03*
G01*
X8403488Y-5301995D03*
G01*
X8403488Y-5047995D03*
G01*
X8403488Y-4793995D03*
G01*
X8403488Y-4539995D03*
G01*
X8403488Y-4285995D03*
G01*
X8403488Y-4031995D03*
G01*
X8403488Y-3777995D03*
G01*
X8403488Y-3523995D03*
G01*
X8403488Y-3269995D03*
G01*
X8403488Y-3015995D03*
G01*
X8403488Y-2761995D03*
G01*
X8403488Y-2507995D03*
G01*
X8403488Y-2253995D03*
G01*
X8403488Y-1999995D03*
D19*
G01*
X499998Y-2491994D03*
D20*
G01*
X499998Y-2745994D03*
G01*
X499998Y-2999994D03*
G01*
X499998Y-3253994D03*
G01*
X499998Y-3507994D03*
D19*
G01*
X9499981Y-2491994D03*
D20*
G01*
X9499981Y-2745994D03*
G01*
X9499981Y-2999994D03*
G01*
X9499981Y-3253994D03*
G01*
X9499981Y-3507994D03*
D21*
G01*
X6372986Y-4793995D03*
G01*
X934415Y-2835249D03*
G01*
X974318Y-2761995D03*
G01*
X3515182Y-3781653D03*
G01*
X4499990Y-6190995D03*
G01*
X6499986Y-3470198D03*
G01*
X5913754Y-7741081D03*
G01*
X8179943Y-4399203D03*
G01*
X8670366Y-2398699D03*
G01*
X4158995Y-7624571D03*
G01*
X3456609Y-4390796D03*
G01*
X6082791Y-5609081D03*
M02*
