G04 Layer: TopSolderMaskLayer*
G04 EasyEDA v6.5.15, 2022-10-09 18:36:16*
G04 2a5d3d0542d34b858b2f245c142da422,939f56e90c3d43cda586b760d259c3b5,10*
G04 Gerber Generator version 0.2*
G04 Scale: 100 percent, Rotated: No, Reflected: No *
G04 Dimensions in millimeters *
G04 leading zeros omitted , absolute positions ,4 integer and 5 decimal *
%FSLAX45Y45*%
%MOMM*%

%AMMACRO1*1,1,$1,$2,$3*1,1,$1,$4,$5*1,1,$1,0-$2,0-$3*1,1,$1,0-$4,0-$5*20,1,$1,$2,$3,$4,$5,0*20,1,$1,$4,$5,0-$2,0-$3,0*20,1,$1,0-$2,0-$3,0-$4,0-$5,0*20,1,$1,0-$4,0-$5,$2,$3,0*4,1,4,$2,$3,$4,$5,0-$2,0-$3,0-$4,0-$5,$2,$3,0*%
%ADD10MACRO1,0.1016X-0.9652X-0.9652X-0.9652X0.9652*%
%ADD11MACRO1,0.1016X0.8255X0.8255X0.8255X-0.8255*%
%ADD12C,1.7526*%
%ADD13C,3.9116*%
%ADD14C,1.6764*%
%ADD15MACRO1,0.1016X-0.7874X0.7874X0.7874X0.7874*%
%ADD16C,1.6256*%
%ADD17MACRO1,0.1016X-1X0.762X1X0.762*%
%ADD18C,2.1016*%

%LPD*%
D10*
G01*
X4626990Y-7499984D03*
G01*
X4372990Y-7499984D03*
G01*
X3626993Y-7499984D03*
G01*
X3372993Y-7499984D03*
G01*
X2626995Y-7499984D03*
G01*
X2372995Y-7499984D03*
G01*
X626999Y-7499984D03*
G01*
X372999Y-7499984D03*
G01*
X1626997Y-7499984D03*
G01*
X1372997Y-7499984D03*
G01*
X8626983Y-7499984D03*
G01*
X8372983Y-7499984D03*
G01*
X9626980Y-7499984D03*
G01*
X9372980Y-7499984D03*
G01*
X7626985Y-7499984D03*
G01*
X7372985Y-7499984D03*
G01*
X6626986Y-7499984D03*
G01*
X6372986Y-7499984D03*
G01*
X5626988Y-7499984D03*
G01*
X5372988Y-7499984D03*
D11*
G01*
X999997Y-799998D03*
D12*
G01*
X1248918Y-799998D03*
G01*
X1248918Y-601878D03*
G01*
X999997Y-601878D03*
D13*
G01*
X522478Y-330098D03*
G01*
X1726437Y-330098D03*
D11*
G01*
X3799992Y-799998D03*
D12*
G01*
X4048912Y-799998D03*
G01*
X4048912Y-601878D03*
G01*
X3799992Y-601878D03*
D13*
G01*
X3322472Y-330098D03*
G01*
X4526432Y-330098D03*
D11*
G01*
X5999988Y-799998D03*
D12*
G01*
X6248908Y-799998D03*
G01*
X6248908Y-601878D03*
G01*
X5999988Y-601878D03*
D13*
G01*
X5522468Y-330098D03*
G01*
X6726427Y-330098D03*
D11*
G01*
X8799982Y-799998D03*
D12*
G01*
X9048902Y-799998D03*
G01*
X9048902Y-601878D03*
G01*
X8799982Y-601878D03*
D13*
G01*
X8322462Y-330098D03*
G01*
X9526422Y-330098D03*
D14*
G01*
X753998Y-8499983D03*
G01*
X499998Y-8499983D03*
D15*
G01*
X245998Y-8499983D03*
D14*
G01*
X1753996Y-8499983D03*
G01*
X1499996Y-8499983D03*
D15*
G01*
X1245997Y-8499983D03*
D14*
G01*
X2753995Y-8499983D03*
G01*
X2499995Y-8499983D03*
D15*
G01*
X2245994Y-8499983D03*
D14*
G01*
X3753993Y-8499983D03*
G01*
X3499993Y-8499983D03*
D15*
G01*
X3245993Y-8499983D03*
D14*
G01*
X4753990Y-8499983D03*
G01*
X4499990Y-8499983D03*
D15*
G01*
X4245990Y-8499983D03*
D14*
G01*
X5753988Y-8499983D03*
G01*
X5499988Y-8499983D03*
D15*
G01*
X5245989Y-8499983D03*
D14*
G01*
X6753986Y-8499983D03*
G01*
X6499986Y-8499983D03*
D15*
G01*
X6245987Y-8499983D03*
D14*
G01*
X7753984Y-8499983D03*
G01*
X7499984Y-8499983D03*
D15*
G01*
X7245985Y-8499983D03*
D14*
G01*
X8753983Y-8499983D03*
G01*
X8499983Y-8499983D03*
D15*
G01*
X8245983Y-8499983D03*
D14*
G01*
X9753981Y-8499983D03*
G01*
X9499981Y-8499983D03*
D15*
G01*
X9245980Y-8499983D03*
D14*
G01*
X753998Y-9499980D03*
G01*
X499998Y-9499980D03*
D15*
G01*
X245998Y-9499980D03*
D14*
G01*
X1753996Y-9499980D03*
G01*
X1499996Y-9499980D03*
D15*
G01*
X1245997Y-9499980D03*
D14*
G01*
X2753995Y-9499980D03*
G01*
X2499995Y-9499980D03*
D15*
G01*
X2245994Y-9499980D03*
D14*
G01*
X3753993Y-9499980D03*
G01*
X3499993Y-9499980D03*
D15*
G01*
X3245993Y-9499980D03*
D14*
G01*
X4753990Y-9499980D03*
G01*
X4499990Y-9499980D03*
D15*
G01*
X4245990Y-9499980D03*
D14*
G01*
X5753988Y-9499980D03*
G01*
X5499988Y-9499980D03*
D15*
G01*
X5245989Y-9499980D03*
D14*
G01*
X6753986Y-9499980D03*
G01*
X6499986Y-9499980D03*
D15*
G01*
X6245987Y-9499980D03*
D14*
G01*
X7753984Y-9499980D03*
G01*
X7499984Y-9499980D03*
D15*
G01*
X7245985Y-9499980D03*
D14*
G01*
X8753983Y-9499980D03*
G01*
X8499983Y-9499980D03*
D15*
G01*
X8245983Y-9499980D03*
D14*
G01*
X9753981Y-9499980D03*
G01*
X9499981Y-9499980D03*
D15*
G01*
X9245980Y-9499980D03*
D16*
G01*
X1601596Y-1999995D03*
G01*
X1601596Y-2253995D03*
G01*
X1601596Y-2507995D03*
G01*
X1601596Y-2761995D03*
G01*
X1601596Y-3015995D03*
G01*
X1601596Y-3269995D03*
G01*
X1601596Y-3523995D03*
G01*
X1601596Y-3777995D03*
G01*
X1601596Y-4031995D03*
G01*
X1601596Y-4285995D03*
G01*
X1601596Y-4539995D03*
G01*
X1601596Y-4793995D03*
G01*
X1601596Y-5047995D03*
G01*
X1601596Y-5301995D03*
G01*
X1601596Y-5555995D03*
G01*
X1601596Y-5809995D03*
G01*
X1601596Y-6063995D03*
G01*
X1601596Y-6317995D03*
G01*
X1601596Y-6571995D03*
G01*
X4203496Y-6571995D03*
G01*
X4203496Y-6317995D03*
G01*
X4203496Y-6063995D03*
G01*
X4203496Y-5809995D03*
G01*
X4203496Y-5555995D03*
G01*
X4203496Y-5301995D03*
G01*
X4203496Y-5047995D03*
G01*
X4203496Y-4793995D03*
G01*
X4203496Y-4539995D03*
G01*
X4203496Y-4285995D03*
G01*
X4203496Y-4031995D03*
G01*
X4203496Y-3777995D03*
G01*
X4203496Y-3523995D03*
G01*
X4203496Y-3269995D03*
G01*
X4203496Y-3015995D03*
G01*
X4203496Y-2761995D03*
G01*
X4203496Y-2507995D03*
G01*
X4203496Y-2253995D03*
G01*
X4203496Y-1999995D03*
G01*
X5801588Y-1999995D03*
G01*
X5801588Y-2253995D03*
G01*
X5801588Y-2507995D03*
G01*
X5801588Y-2761995D03*
G01*
X5801588Y-3015995D03*
G01*
X5801588Y-3269995D03*
G01*
X5801588Y-3523995D03*
G01*
X5801588Y-3777995D03*
G01*
X5801588Y-4031995D03*
G01*
X5801588Y-4285995D03*
G01*
X5801588Y-4539995D03*
G01*
X5801588Y-4793995D03*
G01*
X5801588Y-5047995D03*
G01*
X5801588Y-5301995D03*
G01*
X5801588Y-5555995D03*
G01*
X5801588Y-5809995D03*
G01*
X5801588Y-6063995D03*
G01*
X5801588Y-6317995D03*
G01*
X5801588Y-6571995D03*
G01*
X8403488Y-6571995D03*
G01*
X8403488Y-6317995D03*
G01*
X8403488Y-6063995D03*
G01*
X8403488Y-5809995D03*
G01*
X8403488Y-5555995D03*
G01*
X8403488Y-5301995D03*
G01*
X8403488Y-5047995D03*
G01*
X8403488Y-4793995D03*
G01*
X8403488Y-4539995D03*
G01*
X8403488Y-4285995D03*
G01*
X8403488Y-4031995D03*
G01*
X8403488Y-3777995D03*
G01*
X8403488Y-3523995D03*
G01*
X8403488Y-3269995D03*
G01*
X8403488Y-3015995D03*
G01*
X8403488Y-2761995D03*
G01*
X8403488Y-2507995D03*
G01*
X8403488Y-2253995D03*
G01*
X8403488Y-1999995D03*
D17*
G01*
X499998Y-2491994D03*
D18*
G01*
X499998Y-2745994D03*
G01*
X499998Y-2999994D03*
G01*
X499998Y-3253994D03*
G01*
X499998Y-3507994D03*
D17*
G01*
X9499981Y-2491994D03*
D18*
G01*
X9499981Y-2745994D03*
G01*
X9499981Y-2999994D03*
G01*
X9499981Y-3253994D03*
G01*
X9499981Y-3507994D03*
M02*
